<svg width="200" height="200" viewBox="0 0 391 780" fill="none" xmlns="http://www.w3.org/2000/svg">
<path fill-rule="evenodd" clip-rule="evenodd" d="M344.746 318.412C339.232 320.754 333.538 323.006 327.529 323.603C326.158 323.74 326.14 325.895 327.529 325.761C332.521 325.276 337.527 324.814 342.454 323.846C343.074 323.723 346.298 322.584 346.477 323.663C345.766 326.244 332.786 328.881 329.9 329.408C312.806 333.627 295.631 330.298 278.467 330.11C276.754 329.601 274.992 329.628 273.342 330.157C272.431 330.186 271.519 330.226 270.608 330.28C273.95 323.151 278.729 316.798 284.39 311.36C288.519 313.242 299.876 307.583 304.137 305.759C311.255 302.663 317.629 295.919 325.97 297.295C321.948 300.899 317.564 304.042 313.475 307.566C312.426 308.478 313.301 310.18 314.568 310.202C323.45 310.811 332.35 310.871 341.144 309.272C347.379 308.08 347.478 308.274 342.106 311.742C339.265 313.552 335.94 315.267 332.46 314.883C330.56 314.83 330.685 317.52 332.46 317.749C337.615 317.933 342.865 317.783 347.96 316.918C346.886 317.615 345.333 318.153 344.746 318.412ZM269.348 333.707C269.275 333.785 269.202 333.859 269.13 333.933C269.095 333.947 269.061 333.961 269.027 333.975C269.17 333.614 269.31 333.257 269.443 332.909C269.447 332.909 269.452 332.908 269.456 332.907C269.365 333.168 269.332 333.438 269.348 333.707ZM228.376 447.579C254.132 518.881 233.448 598.969 263.135 669.078C262.812 669.348 262.575 669.813 262.56 670.313C258.711 670.684 254.962 672.453 251.116 673.127C239.929 675.734 228.416 676.275 216.965 676.408C216.962 676.407 216.959 676.405 216.956 676.404C216.644 676.305 216.189 676.373 215.742 676.414C213.321 666.979 209.663 657.851 207.863 648.234C189.33 524.69 208.186 512.053 122.113 404.891C149.91 423.936 186.906 446.315 220.009 426.554C223.02 433.467 225.931 440.444 228.376 447.579ZM253.928 692.346C254.343 693.458 254.699 694.61 255.316 695.549C242.537 710.303 236.155 702.92 220.795 698.493C221.186 691.766 220.441 685.099 219.251 678.475C229.524 680.06 240.038 679.322 250.215 677.403C250.702 682.532 252.162 687.522 253.928 692.346ZM263.402 694.432C265.984 696.986 268.776 699.382 271.902 701.282C269.9 702.928 265.42 704.124 265.136 706.948C265.182 709.501 269.283 709.709 268.299 707.31C270.03 705.535 272.218 704.269 274.067 702.606C275.949 703.714 277.878 704.711 279.844 705.628C278.012 707.088 275.29 708.236 274.887 710.752C274.744 711.981 276.093 712.552 277.064 712.407C279.562 711.518 280.944 708.536 283.187 707.103C296.771 712.569 312.352 715.938 321.468 728.404C321.14 728.571 320.903 728.815 320.752 729.101C317.195 728.545 313.553 729.92 309.994 730.255C298.985 731.905 287.876 732.898 276.752 733.299C258.064 733.871 239.322 732.814 220.777 730.537C218.089 730.089 215.404 729.382 212.817 728.454C213.334 721.973 214.074 715.378 214.347 708.81C214.654 708.564 214.835 708.137 214.765 707.704C214.551 706.376 214.608 704.477 215.052 702.908C215.12 702.801 215.191 702.695 215.27 702.594C216.185 701.414 217.732 701.083 219.158 701.17C219.274 701.177 219.39 701.191 219.507 701.209C219.701 701.31 219.888 701.429 220.066 701.57C220.141 701.581 220.214 701.589 220.291 701.602C220.342 701.611 220.388 701.625 220.431 701.642C220.467 701.583 220.498 701.518 220.529 701.454C221.412 701.724 222.311 702.087 223.172 702.128C230.091 705.147 237.063 708.959 244.798 707.518C250.685 706.564 254.112 701.502 258.372 697.903C259.879 696.522 261.997 695.879 263.402 694.432ZM321.949 731.938C339.745 744.882 234.514 739.416 228.737 738.801C223.32 738.305 206.44 738.858 209.551 730.031C210.487 730.326 211.544 730.057 212.154 729.438C231.238 740.762 301.07 739.885 321.949 731.938ZM167.392 480.315C166.184 482.616 164.903 484.877 163.716 487.189C163.438 487.73 163.165 488.273 162.894 488.816C162.526 489.364 162.161 489.911 161.8 490.459C155.177 500.626 151.57 513.016 146.082 526.456C132.416 559.924 119.44 599.907 109.636 628.322C106.014 636.153 102.02 643.859 97.0099 650.906C95.9001 653.047 93.1279 654.788 93.0251 657.229C92.9951 657.259 92.965 657.288 92.935 657.318C92.7669 657.483 92.5992 657.648 92.4306 657.812C89.8204 656.447 82.4456 656.409 79.8667 655.547C68.7608 653.379 58.0255 649.376 48.2348 643.718C74.2204 589.481 100.558 512.767 122.015 455.535C123.464 451.982 124.897 448.423 126.343 444.87C128.474 439.633 130.855 434.432 132.714 429.093C133.294 427.426 133.722 425.64 133.664 423.868C145.63 441.395 158.168 458.642 168.689 477.095C168.418 478.228 167.907 479.335 167.392 480.315ZM90.0217 664.101C88.0468 670.157 85.9367 676.238 84.4212 682.427C84.3555 682.71 84.341 682.976 84.3657 683.225C84.35 683.266 84.3346 683.307 84.3189 683.348C84.0567 684.035 83.7095 684.625 83.7993 685.281C68.8372 691.825 71.5284 699.641 55.9453 687.951C55.4276 687.654 54.8785 687.361 54.3097 687.108C54.3347 687.041 54.3572 686.971 54.3741 686.895C54.7363 685.272 54.9718 683.629 55.0813 681.972C55.6489 679.53 56.1921 677.079 56.8086 674.649C57.6225 672.309 58.4475 669.971 59.2345 667.63C59.3155 667.435 59.396 667.241 59.478 667.046C60.6711 664.23 61.8248 661.205 62.0742 658.153C62.2224 657.561 62.3613 656.968 62.4957 656.375C62.8729 656.259 63.1346 655.995 63.2797 655.675C72.2074 658.765 81.5911 661.287 91.0778 661.409C90.7038 662.298 90.3378 663.189 90.0217 664.101ZM91.6347 686.469C94.448 687.211 95.9312 689.977 97.7078 692.204C95.6618 693.615 93.9754 695.652 92.8041 697.859C92.0271 698.576 91.3013 699.342 90.6565 700.172C89.8519 701.376 91.6863 702.789 92.6671 701.721C94.7081 699.041 96.7925 696.279 99.6298 694.36C100.998 695.855 102.459 697.262 103.975 698.612C102.603 699.593 101.412 700.783 100.467 702.18C98.6708 703.52 97.216 705.051 97.9612 706.261C98.6849 707.428 100.073 706.792 100.748 705.95C102.235 703.878 103.891 701.816 105.99 700.345C110.83 704.45 116.331 707.644 122.307 709.787C130.215 712.721 140.569 715.074 143.608 723.986C130.248 724.148 116.864 724.31 103.506 723.604C83.9878 722.965 64.6752 719.936 45.2495 718.34C45.3749 718.178 45.416 717.963 45.2709 717.773C44.8702 717.248 44.2753 717.012 43.8581 716.511C44.3888 714.349 43.3914 711.109 43.7652 709.126C43.7023 703.295 45.7858 691.39 45.9114 691.175C47.2705 688.847 49.9195 687.282 52.4176 688.961C52.5905 689.078 63.3756 699.462 70.5692 697.3C72.6468 696.627 74.3716 695.281 76.1789 694.107C81.0422 690.972 86.1478 688.355 91.6347 686.469ZM146.237 729.704C112.623 731.63 78.6921 731.199 45.3996 725.894C44.3065 725.577 43.3226 725.051 42.5531 724.358C42.4799 723.518 42.4272 722.678 42.4023 721.835C42.3897 721.404 42.1472 719.946 42.6148 719.675C42.8782 719.523 43.0561 719.328 43.1651 719.113C55.0719 723.182 68.11 723.858 80.554 725.492C101.84 727.249 123.601 729.137 144.851 727.333C145.429 728.077 146.083 728.812 146.237 729.704ZM43.2912 717.715C43.4247 717.902 43.5772 718.077 43.7503 718.22C43.5843 718.207 43.418 718.193 43.2518 718.18C43.2252 718.078 43.1891 717.978 43.1421 717.882C43.1948 717.828 43.2442 717.772 43.2912 717.715ZM58.52 661.442C58.7247 660.554 58.961 659.625 59.1752 658.681C59.0244 659.867 58.723 661.046 58.3409 662.208C58.4001 661.952 58.4608 661.697 58.52 661.442ZM120.327 403.896C120.361 403.87 120.392 403.841 120.42 403.806C120.69 403.978 120.96 404.149 121.23 404.322C122.091 406.042 123.063 407.742 124.097 409.43C122.836 407.602 121.611 405.718 120.327 403.896ZM88.7386 385.435C88.6851 384.916 88.5982 384.392 88.4954 383.872C88.7792 384.294 89.0898 384.697 89.4211 385.073C89.7054 385.395 90.0087 385.697 90.3274 385.983C89.8016 385.79 89.2729 385.605 88.7386 385.435ZM88.798 386.662C88.8022 386.385 88.7925 386.104 88.7723 385.82C89.0639 386.012 89.3575 386.201 89.6543 386.384C89.362 386.455 89.0761 386.547 88.798 386.662ZM84.7401 352.535C84.0961 359.755 83.3608 367.196 85.2061 374.297C77.5782 361.864 67.9288 351.951 66.1903 336.723C66.732 336.572 67.2358 336.347 67.6554 336.027C71.602 337.891 72.2803 332.153 72.8633 329.5C74.4386 323.881 76.3226 318.354 77.7606 312.699C81.5397 311.037 73.9501 310.333 72.8474 310.3C72.892 310.263 72.9357 310.225 72.9792 310.183C77.4355 304.957 79.584 297.941 82.8044 291.92C87.6005 281.63 91.8962 271.11 95.7314 260.427C99.4581 291.611 87.8919 321.817 84.7401 352.535ZM77.7278 381.448C75.8428 378.906 74.2509 376.131 73.0267 373.214C72.8455 372.782 72.433 372.273 71.8841 372.346C68.7721 372.762 67.7478 375.728 67.8048 378.535C69.1815 388.996 73.9132 398.983 79.9979 407.538C60.4469 387.644 53.4302 359.65 48.5204 333.042C53.582 334.439 58.5607 336.428 63.8073 336.983C66.8738 361.89 85.5982 369.346 86.2147 387.431C85.3282 391.197 78.6851 382.706 77.7278 381.448ZM264.439 304.514C264.393 304.526 264.349 304.541 264.306 304.567C264.267 304.59 264.229 304.615 264.191 304.638C264.12 304.535 264.046 304.434 263.968 304.337C264.125 304.396 264.282 304.457 264.439 304.514ZM286.452 311.174C285.831 311.27 285.229 311.26 284.684 311.077C284.809 310.958 284.93 310.836 285.056 310.719C285.148 310.632 285.375 310.393 285.656 310.13C285.799 310.559 286.077 310.941 286.452 311.174ZM351.737 315.032C351.633 314.093 350.951 313.556 350.007 313.717C347.634 314.123 345.269 314.417 342.901 314.614C346.009 312.73 352.708 308.963 346.919 305.737C345.134 305.074 343.011 305.774 341.211 306.066C333.735 307.317 326.147 307.841 318.584 307.211C321.341 304.909 324.195 302.725 326.886 300.344C328.316 299.078 329.94 297.391 328.331 295.502C325.496 292.817 319.238 294.794 315.96 295.974C306.917 301.126 298.201 306.602 288.496 310.566C288.394 309.183 288.863 307.508 287.552 306.579C283.707 304.735 278.976 305.274 274.883 304.784C270.114 304.057 265.875 302.989 261.152 301.706C258.063 299.31 257.604 292.968 252.664 293.758C257.039 282.563 248.946 271.605 246.441 260.885C243.314 249.913 241.672 238.519 241.628 227.111C241.598 208.85 231.193 194.831 216.162 185.461C215.909 185.254 215.66 185.043 215.409 184.833C214.759 184.149 214.123 183.449 213.502 182.726C212.193 181.202 210.927 179.639 209.598 178.132C208.994 177.192 208.354 176.276 207.606 175.441C206.943 174.624 206.201 173.886 205.249 173.308C205.175 173.263 205.097 173.223 205.021 173.18C203.435 172.098 201.641 171.343 199.744 170.968C198.847 167.517 197.891 164.082 197.112 160.603C196.754 159.728 196.291 153.384 195.331 154.089C194.125 157.137 195.226 184.714 201.108 181.112C201.688 188.284 201.801 198.59 193.878 201.761C179.995 206.078 162.135 175.085 156.388 164.604C157.974 165.215 159.32 161.531 159.994 157.741C160.277 156.844 160.507 155.928 160.696 155.008C160.898 154.024 161.186 152.989 160.956 151.998C160.88 151.673 160.63 151.458 160.338 151.367C160.232 150.768 160.053 150.37 159.79 150.264C159.58 150.732 159.41 151.218 159.262 151.715C159.251 151.735 159.237 151.752 159.226 151.772C158.815 152.561 158.772 153.465 158.6 154.333C158.449 154.942 158.283 155.545 158.071 156.126C157.533 157.605 156.77 158.923 156.027 160.264C154.597 158.718 152.342 157.936 150.213 157.695C148.158 157.462 146.059 157.447 143.994 157.382C142.009 157.319 139.875 157.239 137.944 157.74C137.848 157.765 137.831 157.858 137.868 157.928C95.2028 160.227 51.8555 223.913 41.329 259.248C37.3195 273.057 35.0714 287.645 36.5593 302.014C35.5493 301.862 31.0735 301.149 31.1379 302.587C31.3571 308.84 32.4885 315.022 32.8008 321.271C32.4904 329.549 40.9479 330.547 47.057 332.588C46.6809 356.606 55.2616 380.63 68.6907 400.373C71.9533 404.257 78.205 416.049 84.1605 410.679C84.862 409.844 84.7024 408.851 83.8425 408.216C82.4382 407.179 81.4415 405.499 80.4735 404.07C77.1669 399.837 66.9306 379.132 71.2206 374.946C73.3794 379.549 81.2123 393.343 87.3578 390.298C88.2819 389.483 88.6785 388.386 88.7754 387.173C89.0179 387.234 89.2618 387.29 89.5068 387.339C91.6516 389.237 97.9475 392.043 100.226 391.845C100.987 392.219 101.747 392.594 102.506 392.971C104.61 394.153 106.697 395.363 108.77 396.595C110.412 397.682 112.099 398.687 113.814 399.647C114.806 400.259 115.796 400.877 116.783 401.499C117.548 403.484 118.889 405.386 119.944 407.103C120.602 408.175 121.34 409.506 122.222 410.668C123.194 412.237 124.278 413.731 125.391 415.13C126.862 416.978 128.7 418.608 130.005 420.576C131.463 422.776 131.257 425.181 130.49 427.599C129.693 430.108 128.554 432.524 127.543 434.953C126.45 437.58 125.357 440.207 124.263 442.834C122.138 447.942 120.012 453.05 117.887 458.158C116.673 461.074 115.48 464.001 114.306 466.932C113.904 467.936 113.537 468.949 113.191 469.967C91.0268 521.932 67.3849 593.292 43.2325 643.417C40.8467 646.516 52.4025 651.293 58.7862 653.864C58.8147 653.952 58.8396 654.039 58.8655 654.127C57.9103 656.18 57.4356 658.602 56.8836 660.751C56.1907 663.446 55.4822 666.137 54.7581 668.825C54.0335 671.515 53.3101 674.219 52.6167 676.931C51.6822 679.318 50.7415 681.693 49.7511 684.025C49.7124 684.124 49.672 684.223 49.6324 684.322C48.3585 684.394 47.2444 684.932 46.3966 685.782C46.2976 685.813 46.2016 685.877 46.1223 685.979C41.2671 692.471 39.6555 700.978 39.2482 708.912C39.4752 711.288 38.5625 716.007 40.418 717.878C39.9599 718.414 39.7022 719.097 39.5714 719.847C38.4438 721.242 38.6813 723.668 39.4519 725.232C42.4006 733.851 109.045 734.173 120.318 734.063C129.511 733.895 138.641 733.354 147.794 732.503C149.213 732.202 149.494 731.014 149.236 729.684C149.517 728.108 148.941 726.054 147.694 724.912C147.962 724.483 148.06 723.938 147.869 723.306C142.114 706.569 120.84 707.702 108.254 698.763C108.426 698.662 108.579 698.57 108.723 698.482C108.999 698.386 109.277 698.297 109.557 698.217C110.879 697.838 110.304 695.749 108.989 696.16C107.97 696.478 106.99 696.874 106.064 697.347C104.31 696.157 102.606 694.855 101.006 693.445C101.48 693.147 101.961 692.861 102.445 692.579C103.141 692.451 103.86 692.383 104.608 692.379C105.56 692.374 105.824 691.431 105.455 690.812C105.53 690.766 105.606 690.723 105.681 690.676C105.571 690.658 105.455 690.651 105.336 690.65C105.168 690.46 104.926 690.321 104.608 690.29C102.533 690.087 100.59 690.57 98.8577 691.503C96.8075 689.492 94.9392 687.076 92.1781 686.219C94.3963 685.411 95.4353 682.961 92.6291 682.252C91.393 682.141 90.1243 682.601 88.929 683.106C90.6504 676.067 91.9452 668.87 92.9749 661.717C93.2684 661.767 93.5591 661.799 93.8441 661.806C95.0059 661.836 95.7873 660.951 96.3501 659.901C96.4128 659.892 96.475 659.882 96.5346 659.873C98.6435 658.987 99.621 656.559 101.078 654.91C105.635 648.635 109.468 641.844 112.73 634.817C124.717 600.443 142.592 543.259 157.071 510.795C161.707 500.4 165.846 490.93 170.663 480.606C205.554 538.426 188.56 609.382 210.083 671.037C211.018 672.846 212.756 679.511 215.158 677.954C215.172 677.964 215.186 677.975 215.203 677.985C215.652 678.238 216.103 678.547 216.593 678.714C216.824 678.793 217.03 678.714 217.174 678.566C217.392 679.439 217.343 680.453 217.384 681.307C217.441 682.467 217.472 683.628 217.485 684.789C217.511 687.089 217.454 689.388 217.303 691.683C217.088 693.635 216.838 695.584 216.533 697.528C215.396 697.738 214.348 698.318 213.592 699.258C212.482 700.638 212.09 702.402 211.825 704.114C211.76 704.529 211.707 704.941 211.68 705.343C210.26 710.775 208.896 718.698 208.719 719.913C208.714 722.414 206.595 727.982 208.531 729.468C205.741 730.629 205.286 734.919 207.247 737.125C213.073 745.087 241.467 742.899 251.942 744.234C265.189 743.9 324.168 748.943 328.015 736.164C328.78 733.247 327.469 729.564 324.802 728.441C325.869 725.908 323.313 723.461 321.75 721.684C312.53 711.931 299.029 708.607 286.753 704.362C287.211 703.886 289.984 702.155 289.621 701.707C287.604 701.795 285.647 702.438 283.814 703.318C281.401 702.433 279.002 701.489 276.664 700.409C283.323 694.939 279.431 696.624 274.821 699.523C274.313 699.257 273.804 698.992 273.294 698.728C273.345 698.505 273.293 698.263 273.089 698.073C272.444 697.469 271.603 697.228 270.812 696.862C269.962 696.469 269.137 696.018 268.343 695.523C266.875 694.606 265.64 693.15 264.105 692.388C263.87 692.272 263.63 692.204 263.389 692.174C262.397 691.278 259.997 692.127 258.878 692.949C258.86 692.941 258.844 692.934 258.828 692.927C256.018 687.877 253.924 682.489 252.04 677.042C255.516 675.946 263.34 675.532 264.892 672.032C269.882 670.33 266.26 662.779 265.226 659.327C235.977 584.903 263.86 496.382 220.69 426.138C228.47 421.608 237.168 410.778 230.031 402.374C229.831 401.983 229.613 401.602 229.391 401.235C228.319 399.458 227.164 397.741 226.111 395.954C226.057 395.727 226.009 395.498 225.977 395.261C225.914 394.829 225.644 394.616 225.324 394.565C224.266 392.624 223.326 390.632 222.434 388.609C216.929 362.658 215.446 336.068 219.114 309.692C223.478 326.703 237.657 339.524 252.959 347.296C258.931 349.802 266.817 354.974 273.374 353.342C279.291 351.562 290.039 339.208 291.305 333.275C308.555 335.36 326.467 333.686 342.952 328.171C345.069 327.358 349.193 326.123 348.538 323.069C347.886 320.477 344.793 321.026 342.792 321.507C345.851 319.783 351.797 319.54 351.737 315.032Z" fill="black"/>
<path fill-rule="evenodd" clip-rule="evenodd" d="M182.049 54.2249C183.277 54.3268 184.512 54.4998 185.725 54.7273C189.413 54.1253 193.23 54.7937 196.806 55.9527C205.183 58.6664 213.245 63.3782 219.558 69.5286C222.807 72.6951 225.464 76.3426 227.1 80.5851C227.932 82.7372 228.4 85.0338 228.535 87.3352L228.55 87.6141C228.588 88.3776 228.605 89.2932 228.514 90.2002C228.806 92.0311 229.067 93.8769 229.086 95.7286C229.096 96.5864 229.04 97.4427 228.935 98.2933L228.971 98.3742C228.82 99.3897 228.639 100.401 228.433 101.407L228.381 101.474C228.353 101.678 228.32 101.882 228.29 102.086C228.178 102.604 228.06 103.12 227.936 103.634C227.667 104.747 227.37 105.853 227.049 106.952C226.993 107.145 227.047 107.297 227.152 107.396C226.919 108.233 226.663 109.064 226.38 109.885C226.519 110.604 226.659 111.322 226.808 112.039C227.585 115.765 228.243 119.514 229.126 123.218C230.917 130.736 233.639 138.134 234.387 145.862C234.969 151.856 234.002 158.41 230.269 163.306C227.051 167.525 222.211 170.016 216.983 170.68C214.483 171 211.918 170.853 209.472 170.222L209.205 170.152C207.98 169.823 206.421 169.308 205.282 168.478C204.047 168.044 202.881 167.243 202.178 166.461C201.219 165.392 200.172 163.565 200.433 162.045C199.005 162.162 197.569 162.195 196.156 162.19C192.674 162.183 189.162 161.908 185.813 160.898C182.825 159.998 179.344 158.493 177.577 155.777C177.494 155.649 177.631 155.464 177.776 155.513C179.204 156.014 180.538 156.689 182.011 157.071C183.459 157.445 184.908 157.798 186.402 157.952C189.322 158.253 192.287 158.212 195.217 158.068L196.223 158.016C199.359 157.848 202.599 157.609 205.532 156.438C206.682 155.978 207.747 155.337 208.718 154.575L208.871 154.454C209.391 154.032 209.928 153.677 210.474 153.34C210.552 153.241 210.631 153.141 210.709 153.039C211.951 151.449 213.286 149.915 214.404 148.235C216.627 144.9 217.485 141.435 217.601 137.458C217.723 133.26 217.737 129.056 217.787 124.857L217.805 123.458C217.869 118.656 217.879 113.838 218.249 109.048C218.42 106.822 218.663 104.607 219.036 102.408L219.118 101.937L219.722 98.5457C219.867 97.7288 219.952 96.8869 220.137 96.0735C219.929 95.7322 219.687 95.4037 219.408 95.0909C219.15 94.8024 218.889 94.5225 218.627 94.2445L218.439 94.0786C218.009 93.6954 217.639 93.3296 217.292 92.8024L217.209 92.6719C216.837 92.2237 216.486 91.7549 216.175 91.2399L216.118 91.1399C216.041 91.043 215.964 90.9458 215.884 90.85C215.635 90.5516 215.374 90.2698 215.105 89.9999C214.159 91.8225 212.822 93.4012 210.929 94.3881C210.244 94.7451 209.409 94.4393 209.185 93.6799C208.618 91.763 207.758 89.9804 206.62 88.3662C204.719 91.5227 201.705 93.9916 198.154 95.1963C197.266 95.4973 196.485 94.5682 196.693 93.7385C197.334 91.188 197.461 88.5944 197.085 86.0304C195.744 86.9865 194.362 87.8869 192.942 88.7217C189.783 91.1589 186.435 93.3521 182.753 94.9271C181.902 95.2911 180.622 94.6794 181.009 93.5889C181.334 92.6707 181.602 91.7372 181.773 90.7785L181.811 90.5569C181.812 90.5502 181.813 90.5436 181.814 90.5367C173.286 102.276 152.607 113.589 151.02 113.698H150.977C151.968 114.643 152.768 115.811 153.291 117.152C153.841 118.562 151.599 119.175 151.02 117.828L151.001 117.783C150.109 115.496 147.904 113.858 145.504 113.47C144.053 113.733 142.682 114.431 141.747 115.49C139.906 117.573 139.89 120.085 141.146 122.455L141.33 122.801C142.01 124.067 142.727 125.336 143.11 126.726C143.578 128.433 143.224 130.163 143.53 131.867L143.547 131.957C143.692 132.715 144.006 133.577 144.91 133.37C144.98 133.354 145.047 133.332 145.115 133.309C145.305 133.461 145.535 133.586 145.821 133.669C146.521 133.873 147.294 133.774 147.991 133.609C148.664 133.451 149.318 133.202 149.947 132.91C150.016 133.082 150.059 133.261 150.064 133.434C150.085 134.315 149.719 135.041 149.156 135.631C150.054 136.764 150.821 138.01 151.686 139.167C152.928 140.826 154.198 142.449 155.55 144.021C156.956 145.659 158.487 147.206 160.076 148.669C161.19 149.693 163.031 150.787 163.729 152.274C164.532 152.522 165.213 153.136 165.462 154.146C165.916 155.976 166.049 160.263 165.693 162.124C165.339 163.968 163.99 165.117 162.499 166.089C162.085 166.359 161.618 166.331 161.238 166.129C160.903 166.454 160.525 166.752 160.093 167.018C158.497 168.002 156.642 168.359 154.804 168.566C152.322 169.357 149.646 169.566 147 169.073C146.136 169.175 145.271 169.267 144.404 169.343C135.536 170.113 126.521 169.457 117.872 167.35C113.904 166.383 110.156 164.625 106.665 162.368C100.647 158.477 98.1006 147.555 101.592 137.114L101.869 136.291C103.442 131.627 105.139 126.987 107.413 122.635L107.684 122.118C109.775 118.149 112.075 114.184 115.129 110.873C116.658 109.216 118.435 107.711 120.442 106.659C121.203 106.259 122.093 105.983 122.962 105.669L122.98 105.452L122.999 105.235C123.056 104.539 123.129 103.845 123.223 103.153C123.574 100.562 124.069 98.0106 124.773 95.4909C125.478 92.968 126.344 90.4874 127.386 88.0832C129.125 84.072 131.309 80.2671 133.83 76.6967C134.01 76.328 134.193 75.9606 134.38 75.5961C136.505 71.4508 139.258 67.4974 142.808 64.4376C146.884 60.9251 151.793 58.7447 156.915 57.2136C162.228 55.628 167.771 54.5425 173.307 54.1775C176.221 53.9855 179.139 53.9831 182.049 54.2249ZM143.196 120.82C145.863 119.078 149.496 120.272 150.848 123.102C151.824 125.153 148.596 126.307 148.086 124.264C147.577 122.216 145.395 120.749 143.298 121.062C143.153 121.086 143.063 120.905 143.196 120.82Z" fill="black"/>
<path fill-rule="evenodd" clip-rule="evenodd" d="M184.875 130.942C188.946 130.449 192.892 131.693 196.872 132.32C198.974 132.651 201.077 132.898 203.204 132.99C203.632 133.008 204.06 133.019 204.488 133.028C204.527 132.652 204.738 132.307 205.195 132.1C206.132 131.676 206.881 131.485 207.91 131.526C208.851 131.563 209.795 131.66 210.722 131.829C212.405 132.137 214.096 132.836 215.327 134.05C218.176 136.859 217.743 141.372 215.541 144.431C210.993 150.754 202.691 151.048 195.581 150.965L194.925 150.957C188.451 150.864 179.189 151.828 176.248 144.477C175.166 141.774 175.317 138.641 176.641 136.048C178.22 132.956 181.545 131.346 184.875 130.942ZM205.097 141.47L205.039 141.472C202.054 141.587 199.07 141.668 196.084 141.72C196.173 142.486 196.264 143.251 196.369 144.015C196.45 144.616 196.538 145.216 196.629 145.816C196.668 146.07 196.81 146.464 196.769 146.715L196.755 146.815C196.908 146.884 197.047 146.996 197.151 147.157C197.187 147.213 197.213 147.27 197.239 147.326C199.558 147.344 202.053 147.299 204.417 146.879L204.421 146.827C204.464 146.526 204.59 146.323 204.757 146.184C204.923 145.223 204.908 144.199 204.972 143.246C205.012 142.654 205.055 142.062 205.097 141.47ZM193.803 141.761C191.651 141.797 189.499 141.826 187.348 141.799L186.372 141.784C186.578 142.888 186.802 143.989 186.989 145.1C187.183 146.258 186.162 146.995 185.278 146.965C185.377 146.981 185.476 146.998 185.575 147.012C188.338 147.402 191.206 147.298 194.01 147.295C193.859 146.417 193.92 145.425 193.897 144.692L193.893 144.579C193.85 143.639 193.82 142.7 193.803 141.761ZM179.19 141.558C179.264 142.132 179.41 142.694 179.627 143.217C180.545 145.427 182.651 146.459 184.878 146.893C184.492 146.76 184.185 146.44 184.107 145.892C183.914 144.529 183.845 143.143 183.839 141.759C182.287 141.745 180.724 141.712 179.19 141.558ZM213.193 141.086C212.088 141.347 210.803 141.227 209.719 141.277C208.703 141.323 207.687 141.363 206.671 141.404C206.718 142.096 206.765 142.788 206.816 143.48C206.881 144.374 206.887 145.319 207.059 146.209C209.104 145.512 210.936 144.396 212.31 142.61C212.653 142.165 212.959 141.643 213.193 141.086ZM184.408 134.568C182.568 135.003 180.827 135.921 179.891 137.602C179.336 138.599 179.091 139.78 179.138 140.945C180.693 140.764 182.275 140.696 183.849 140.639C183.854 140.356 183.861 140.073 183.87 139.791L183.894 139.069C183.937 137.69 183.958 135.959 184.408 134.568ZM193.931 134.736L193.121 134.645C190.872 134.39 188.623 134.121 186.373 134.275C186.048 134.297 185.717 134.333 185.386 134.381C185.784 135.813 185.75 137.495 185.916 138.913C185.981 139.461 186.062 140.005 186.151 140.546L186.542 140.528C188.956 140.397 191.372 140.317 193.788 140.221C193.788 139.769 193.791 139.316 193.798 138.863L193.807 138.409C193.834 137.252 193.759 135.948 193.931 134.736ZM205.229 134.552C202.873 134.932 200.438 135.013 198.123 135.016C197.199 135.017 196.275 134.96 195.351 134.878C195.411 135.369 195.443 135.866 195.488 136.349C195.579 137.327 195.683 138.304 195.797 139.279L195.898 140.133C198.867 139.998 201.837 139.853 204.805 139.703L205.224 139.68L205.342 138.04C205.422 136.946 205.51 135.852 205.634 134.764L205.541 134.73C205.431 134.685 205.327 134.623 205.229 134.552ZM206.252 134.96C206.382 136.506 206.454 138.059 206.549 139.608L208.507 139.504C208.833 139.486 209.159 139.468 209.485 139.449C210.753 139.376 212.383 138.993 213.637 139.351C213.733 138.213 213.407 137.105 212.378 136.341C210.572 134.998 208.272 135.476 206.252 134.96ZM199.565 121.134C202.48 119.468 209.792 117.766 210.256 123C210.469 125.409 208.674 127.405 206.579 128.295L206.5 128.328C204.535 129.135 201.052 130.045 199.351 128.297C197.936 126.841 199.813 124.232 201.572 125.424C202.476 126.037 204.378 125.586 205.387 125.294L205.45 125.276C206.538 124.956 207.989 123.935 207.539 122.597C207.141 121.414 205.446 121.198 204.385 121.16C202.801 121.103 201.259 121.47 199.689 121.59C199.44 121.608 199.364 121.249 199.565 121.134ZM211.638 112.717C215.593 112.532 218.054 116.843 217.144 120.374C216.987 120.984 216.304 121.582 215.645 121.513L215.479 121.498C215.394 121.49 215.309 121.479 215.231 121.458C214.605 121.285 214.044 120.635 214.09 119.961L214.102 119.765C214.194 118.097 214.013 116.175 212.026 115.771C210.341 115.428 209.401 117.046 209.381 118.536C209.377 118.801 209.079 118.985 208.845 118.843C207.627 118.103 207.416 116.632 207.881 115.365C208.471 113.759 209.946 112.796 211.638 112.717ZM182.284 113.642C185.162 112.683 188.268 114.214 189.662 116.754C190.151 116.896 190.639 117.272 190.571 117.848C190.473 118.676 190.325 119.199 189.75 119.827C188.849 120.81 187.163 120.307 186.789 119.097L186.773 119.043C186.348 117.479 184.622 116.447 183.051 116.994C181.215 117.634 181.268 119.569 179.981 120.696C179.829 120.828 179.648 120.849 179.467 120.762C178.099 120.102 178.345 118.117 178.832 116.981C179.472 115.49 180.715 114.164 182.284 113.642ZM178.363 104.918C180.696 102.543 186.778 100.244 188.374 104.63C188.678 105.466 188.031 106.592 187.159 106.766C185.732 107.049 184.466 106.431 183.048 106.542C181.9 106.632 180.703 107.015 179.785 107.724C177.244 109.69 176.685 113.014 174.914 115.515C174.827 115.637 174.66 115.586 174.644 115.442C174.241 111.8 175.808 107.519 178.363 104.918ZM208.784 102.58C210.332 102.034 212.085 102.081 213.641 102.565C215.209 103.052 216.647 103.979 217.756 105.189C218.259 105.738 218.725 106.344 219.098 106.99C219.296 107.332 219.505 108.038 219.73 108.459C220.949 109.162 221.471 110.763 220.379 111.902L220.33 111.952L220.184 112.096C219.597 112.676 218.712 112.927 217.911 112.696C216.118 112.178 215.901 110.769 215.28 109.273C214.87 108.286 214.168 107.411 213.316 106.769C211.304 105.253 208.005 104.769 205.582 105.484C205.453 105.522 205.302 105.358 205.394 105.239C205.853 104.646 206.117 104.159 206.732 103.68C207.356 103.194 208.037 102.843 208.784 102.58Z" fill="black"/>
<path fill-rule="evenodd" clip-rule="evenodd" d="M223.287 117.423C222.616 119.247 221.594 121.146 220.344 122.681C215.287 126.954 210.373 124.588 207.878 118.796C206.93 114.702 209.447 110.293 212.114 107.282C215.966 103.429 222.253 105.451 224.024 110.031C224.132 110.625 224.197 111.217 224.228 111.807C224.191 113.725 223.959 115.364 223.287 117.186V117.423ZM174.678 113.744C181.34 105.836 193.804 105.413 193.486 117.585C192.055 132.991 167.956 129.21 174.678 113.744ZM225.383 107.147C225.149 106.752 224.89 106.37 224.608 106.005C224.503 105.943 224.443 105.392 224.059 105.352C218.923 99.6966 209.9 102.905 206.639 108.54C206.044 109.252 205.558 110.086 205.2 110.967C201.988 110.379 198.243 110.494 195.255 111.705C192.293 103.985 183.324 103.295 177.414 106.594C173.738 108.398 171.354 112.177 167.779 114.253C159.374 114.856 150.354 112.977 142.101 115.081C135.593 116.431 141.034 119.72 142.125 117.526C149.906 115.231 159.124 117.17 167.203 116.653C168.043 118.071 169.654 119.232 171.259 119.182C172.993 134.521 195.408 131.978 196.181 118.342C197.059 116.958 198.149 115.634 199.711 114.771C200.308 114.648 200.886 114.488 201.413 114.239C202.315 114.112 203.705 114.494 204.535 115.243C207.377 132.264 223.754 130.282 226.68 115.371C226.738 115.311 226.901 115.089 227.026 114.732C228.028 113.411 230.48 112.919 230.088 110.688C229.739 108.456 226.915 108.482 225.383 107.147Z" fill="black"/>
</svg>
