<svg width="200" height="200" viewBox="0 0 391 780" fill="none" xmlns="http://www.w3.org/2000/svg">
<path fill-rule="evenodd" clip-rule="evenodd" d="M264.224 665.193C266.899 666.675 269.039 668.989 271.847 670.272C284.001 676.351 299.388 673.077 308.649 663.328C309.955 663.355 311.004 661.928 310.727 660.643C313.505 660.888 315.695 663.025 317.763 664.712C317.481 666.665 317.611 668.628 318.402 670.498C318.464 670.647 318.732 670.706 318.766 670.498C319.006 669.076 319.253 667.644 319.576 666.239C320.159 666.715 320.751 667.17 321.354 667.62C321.407 668.789 322.627 669.639 323.625 669.237C331.808 674.782 341.057 678.717 350.663 681.018C358.179 682.586 362.082 682.425 365.416 690.328C364.18 690.575 362.965 691.174 361.108 691.627C329.684 695.289 297.971 691.342 266.497 694.014C266.076 687.104 265.699 680.199 265.224 673.294C265.056 670.81 264.983 668.302 264.017 665.98C264.036 665.696 264.081 665.416 264.172 665.198C264.188 665.195 264.205 665.195 264.224 665.193ZM265.397 648.183C265.499 647.723 265.138 647.335 264.78 647.031C264.369 646.339 263.901 645.687 263.345 645.138C274.26 644.173 284.724 640.821 294.976 637.364C296.215 646.164 300.612 654.157 305.566 661.418C297.157 670.17 283.463 672.3 272.455 667.516C273.19 665.898 271.614 663.562 271.213 661.892C269.833 657.889 267.942 654.064 266.304 650.176C266.024 649.534 265.73 648.854 265.397 648.183ZM263.151 648.031C263.224 648.083 263.3 648.138 263.374 648.185C263.419 648.294 263.462 648.403 263.507 648.512C263.393 648.389 263.277 648.268 263.16 648.149C263.158 648.109 263.156 648.071 263.151 648.031ZM162.254 684.33C162.472 684.716 162.7 685.097 162.938 685.472C162.481 685.756 159.037 693.057 160.962 691.89C162.03 690.371 163.099 688.84 164.251 687.378C164.572 687.804 164.902 688.223 165.244 688.634C164.059 689.484 164.519 691.478 166.089 691.482C166.65 691.485 167.086 691.369 167.609 691.174C174.634 697.887 183.87 701.857 193.168 704.317C200.871 706.727 215.382 705.495 215.774 716.459C214.99 716.439 214.15 716.693 213.554 717.257C179.541 728.747 144.402 716.635 110.096 713.28C110.57 712.331 109.967 710.617 108.712 710.692C108.7 703.014 110.826 695.39 113.903 688.404C131.358 705.026 143.856 688.765 161.463 684.789C161.802 684.721 162.064 684.552 162.254 684.33ZM171.252 681.346C171.202 681.346 171.074 681.33 171.024 681.346C170.316 683.731 168.81 685.881 166.892 687.423C166.381 686.956 165.88 686.479 165.389 685.996C166.669 684.512 168.07 683.14 169.692 681.981C170.147 681.671 170.678 681.311 171.252 681.346ZM103.382 374.171C102.928 372.512 103.442 370.776 103.494 369.089C103.883 364.499 104.413 359.872 104.311 355.26C104.185 353.6 104.15 351.996 104.52 350.375C104.407 349.94 104.018 350.968 103.902 351.065C103.878 350.934 103.847 350.804 103.821 350.674C104.007 350.463 104.204 350.278 104.417 350.1C113.539 357.63 122.38 365.501 130.905 373.699C131.788 374.545 133.092 374.493 133.983 373.699C135.83 372.05 137.744 370.502 139.716 369.044C140.397 371.268 141.44 373.327 142.632 375.318C134.84 376.267 127.152 374.2 119.415 373.597C114.227 373.2 109.02 373.444 103.866 374.128C103.733 374.147 103.524 374.147 103.382 374.171ZM120.56 300.437C117.839 298.091 116.699 296.557 117.033 292.86C118.643 287.397 120.729 282.087 122.51 276.682C122.739 277.824 122.758 278.993 122.854 280.151C122.225 286.93 121.737 293.731 120.56 300.437ZM123.326 274.783C123.288 274.712 123.25 274.641 123.21 274.572C123.269 274.39 123.329 274.207 123.388 274.025C123.367 274.278 123.348 274.53 123.326 274.783ZM74.2678 316.506C74.2844 313.608 73.9044 310.69 73.7358 307.799C72.3444 283.476 74.0505 258.976 78.8205 235.082C85.1111 201.298 96.7647 167.374 137.034 166.685C138.446 167.962 138.942 169.93 139.729 171.622C142.103 176.311 145.588 180.371 149.585 183.762C166.15 197.218 209.957 212.579 213.805 179.979C213.814 178.967 213.745 177.898 213.581 176.829C213.945 175.708 213.776 174.303 213.52 173.042C213.693 172.139 213.427 171.103 212.969 170.129C213.045 170.065 213.116 169.994 213.178 169.916C211.37 166.472 208.271 165.345 204.83 164.047C204.355 163.573 204.775 162.592 205.504 162.848C207.108 163.41 208.756 163.789 210.428 164.076C210.66 164.116 210.808 164.237 210.881 164.391C249.934 176.188 248.657 208.29 248.057 242.221C248.648 278.777 269.87 313.098 263.678 350.034C256.368 305.463 241.991 262.117 238.728 216.858C238.482 212.799 237.879 208.791 237.42 204.754C237.186 203.053 236.931 198.29 236.347 199.087C233.56 214.653 235.737 230.646 238.076 246.143C243.232 277.636 251.752 308.452 257.517 339.826C260.698 353.774 261.04 368.44 247.022 376.505C231.87 384.826 213.017 383.154 196.646 379.782C195.34 379.475 194.352 380.153 193.882 381.087C190.686 374.403 183.512 371.114 178.844 365.631C174.168 359.65 171.11 352.578 166.81 346.329C167.247 342.527 163.705 336.534 159.662 336.453C149.452 325.815 138.409 315.969 126.475 307.294C126.302 306.746 125.836 306.438 125.509 305.948C125.021 305.121 124.705 304.09 124.782 303.137C126.593 292.691 127.017 281.853 124.183 271.543C129.235 255.877 132.31 239.699 135.193 223.532C135.463 222.75 134.151 222.384 133.956 223.191C133.616 224.907 133.291 226.625 132.973 228.343C127.15 249.793 120.213 270.887 112.646 291.779C111.763 294.692 110.936 297.6 111.435 300.65C111.867 302.429 114.569 302.258 114.878 300.435C115.483 300.258 116.018 300.415 116.491 300.774C116.496 300.767 116.498 300.759 116.503 300.755C120.124 305.921 124.922 310.192 129.805 314.236C138.169 321.332 146.372 328.617 154.097 336.406C155.933 338.774 162.095 343.001 162.531 346.201C161.723 351.902 155.811 354.605 151.169 356.833C144.416 360.108 138.083 364.254 132.467 369.227C120.24 357.944 107.501 347.186 94.0388 337.396C86.318 331.85 76.7548 326.352 74.2678 316.506ZM211.302 170.435C211.335 170.617 211.366 170.8 211.397 170.98C211.252 170.778 211.103 170.579 210.943 170.39C211.062 170.406 211.181 170.421 211.302 170.435ZM255.399 411.249C255.268 410.862 255.13 410.479 254.993 410.095C255.35 408.381 255.889 406.775 256.052 404.973C259.514 401.461 261.664 396.678 262.238 391.8C262.409 390.366 262.509 388.991 261.455 387.87C261.068 387.458 260.246 387.413 259.866 387.87C258.574 389.423 258.909 391.762 258.448 393.656C257.479 397.666 255.236 401.448 252.022 404.001C250.211 405.478 247.9 407.341 245.828 407.909C247.445 401.602 251.003 395.598 251.475 388.951C251.611 387.002 251.487 385.18 251.01 383.284C250.655 382.103 250.121 381.077 250.542 379.847C255.431 376.697 259.752 372.16 261.946 366.679C262.727 366.764 263.529 366.419 263.882 365.551C265.637 378.513 268.005 392.2 261.224 404.086C259.705 406.781 257.744 409.226 255.399 411.249ZM185.669 381.236C183.76 379.282 182.041 377.17 180.285 375.081C178.421 373.152 175.242 376.159 178.533 378.982C184.267 386.134 184.063 395.052 181.34 403.335C180.87 401.207 180.494 399.093 179.789 397.005C178.039 391.826 175.384 387 172.071 382.658C171.273 381.613 169.207 382.144 169.731 383.642C171.387 388.361 172.135 393.582 171.384 398.559C171.033 400.88 170.031 403.086 169.895 405.442C169.85 406.258 170.335 408.32 169.045 407.853C168.549 407.672 168.107 406.623 167.896 405.954C166.842 402.503 167.064 398.847 166.661 395.298C166.16 390.686 165.388 385.948 162.075 382.445C161.348 381.675 160.275 382.17 159.93 383.009C157.311 389.316 160.021 397.139 155.363 402.672C155.131 402.928 153.801 404.224 153.585 404.053C153.219 403.764 153.613 402.131 153.675 401.752C156.877 388.543 145.993 377.578 142.104 367.338C149.846 360.983 163.101 358.951 166.464 348.534C169.601 355.45 172.32 362.768 177.293 368.635C182.171 374.46 191.316 378.305 191.694 386.813C189.366 385.462 187.552 383.13 185.669 381.236ZM115.489 657.436C121.473 657.529 127.485 659.383 133.417 659.285C138.896 659.479 144.382 659.226 149.851 658.896C147.785 667.035 148.581 676.578 151.314 684.472C140.681 689.436 130.999 696.525 119.336 689.603C119.208 688.579 118.859 687.562 118.522 686.567C118.656 686.016 118.758 685.297 118.254 684.861C118.281 675.66 117.33 666.454 115.489 657.436ZM324.834 657.56C325.54 658.304 323.024 664.101 322.419 665.082C321.701 664.62 320.99 664.166 320.286 663.684C320.846 662.015 321.602 660.42 322.699 658.963C322.996 658.569 324.166 656.986 324.834 657.56ZM370.367 691.253C370.251 690.75 369.769 690.293 369.244 690.165C367.732 686.268 365.317 682.372 361.576 680.322C359.317 679.153 356.814 678.814 354.351 678.326C344.015 676.314 334.191 672.226 325.216 666.817C326.097 664.328 326.924 661.857 327.453 659.278C328.316 656.39 326.015 653.976 323.13 655.187C320.593 656.324 319.06 659.809 318.305 662.306C317.666 661.868 316.991 661.43 316.298 661.031C315.937 660.024 314.745 659.595 313.826 659.024C312.394 658.071 310.47 656.401 308.748 657.694C305.635 653.551 303.14 648.956 301.035 644.232C299.38 640.904 298.75 637.119 296.432 634.147C296.757 632.088 295.496 630.035 294.653 628.205C293.872 626.535 293.126 624.845 292.423 623.138C277.836 583.518 272.647 541.039 266.524 499.467C262.12 471.477 262.789 442.76 256.574 415.091C271.671 402.838 271.313 380.226 264.741 363.51C278.779 324.36 254.979 285.389 252.102 246.392C251.179 217.933 255.923 183.759 226.279 167.693C222.525 165.626 218.493 163.958 214.275 163.13C210.372 160.94 205.72 160.406 201.301 160.319C198.807 158.968 198.099 155.865 197.204 153.373C196.96 152.474 196.411 151.462 196.314 150.543C196.304 150.462 196.181 150.429 196.159 150.521C192.698 159.627 201.426 169.141 210.307 170.288C214.31 184.38 205.889 196.943 190.713 196.145C173.142 194.83 148.302 185.153 141.95 167.342C144.751 167.29 147.416 166.418 150.058 165.588C150.668 165.309 151.518 165.351 151.894 164.732C157.965 161.687 162.65 155.957 163.661 149.222C163.618 149.256 163.545 149.305 163.428 149.379C163.533 149.313 163.628 149.241 163.713 149.168C163.799 148.135 163.811 147.101 163.711 146.065C163.246 145.646 162.585 145.418 161.818 145.573C159.481 146.042 159.434 148.5 159.059 150.344C158.721 152.005 158.09 153.534 157.24 154.998C153.776 160.872 147.151 164.959 140.219 164.071C139.903 163.787 139.459 163.647 139.029 163.789C139.06 163.815 139.093 163.841 139.124 163.865C98.4122 162.374 83.8873 193.585 76.7976 228.415C71.1323 253.974 68.8968 280.294 70.2163 306.44C70.539 309.464 70.1407 317.703 72.1186 319.481C76.4656 332.674 90.0882 338.874 100.361 346.766C99.2771 349.867 99.2531 353.17 99.1971 356.419C99.0356 360.133 98.7862 363.845 98.4466 367.549C98.1403 370.891 97.2639 374.643 98.4775 377.894C99.2517 379.946 100.985 382.087 103.277 382.36C103.894 387.968 104.094 393.64 104.579 399.251C105.158 450.645 111.045 502.311 102.918 553.424C99.9231 572.835 97.4584 592.494 99.4987 612.136C101.03 626.729 103.926 641.164 107.108 655.471C107.687 657.362 109.186 659.161 111.3 658.837C112.028 659.276 112.915 659.615 113.705 659.232C113.816 668.372 115.003 677.499 114.347 686.645C113.907 686.382 113.463 686.124 113.017 685.872C112.76 685.324 112.246 684.796 111.627 685.123C111.492 685.062 111.316 685.18 111.347 685.32C110.218 688.375 109.458 691.697 108.832 694.907C106.634 699.128 105.3 703.833 104.856 708.587C104.639 710.443 104.321 712.84 105.954 714.169C105.387 714.188 104.682 714.235 104.512 714.894C103.709 716.86 102.396 728.95 105.379 728.897C116.935 729.601 128.544 729.788 140.114 730.203C140.743 730.226 141.344 729.74 141.506 729.146C141.874 727.797 142.271 726.456 142.655 725.112C161.025 735.173 204.894 729.31 215.961 727.063C218.241 727.063 218.389 719.976 218.241 717.817C219.528 716.188 218.721 713.463 217.93 711.742C214.593 704.517 205.852 703.744 198.924 702.589C188.232 700.533 177.758 696.503 169.306 689.525C171.587 687.364 174.291 683.796 173.999 680.54C173.695 679.122 172.42 678.336 171.023 678.421C167.843 678.687 165.528 682.026 163.735 684.318C163.36 683.922 162.991 683.523 162.626 683.121C162.585 682.27 162.018 681.44 161.025 681.559C159.059 681.793 157.147 682.272 155.275 682.907C154.812 680.758 153.957 678.658 153.48 676.499C152.22 671.086 151.923 665.554 151.803 660.01C154.1 659.974 155.42 659.863 157.204 658.92C158.173 659.204 159.27 658.846 159.569 657.549C160.545 653.338 160.598 648.987 160.894 644.682C164.195 590.106 170.142 535.139 189.118 483.49C191.097 489.715 193.703 495.718 195.931 501.858C211.498 542.342 221.176 584.699 232.422 626.499C233.374 630.009 234.34 633.514 235.331 637.013C236.713 642.977 239.61 645.724 245.961 645.699C250.131 645.894 254.31 645.845 258.476 645.569C263.4 650.214 265.783 656.422 267.508 662.774C266.251 663.4 262.534 662.478 262.369 664.179C260.81 666.725 261.475 670.013 261.445 672.861C261.676 676.681 261.479 680.729 262.616 684.389C262.679 688.245 262.831 692.101 263.036 695.955C259.636 698.404 260.654 703.281 261.588 706.729C261.395 709.173 281.657 708.073 284.543 708.287C289.296 707.897 296.299 709.374 298.814 704.212C314.577 711.956 336.418 706.441 353.394 704.872C359.374 703.997 365.328 702.961 371.253 701.778C372.113 701.605 372.528 700.626 372.35 699.849C371.7 696.981 371.03 694.118 370.367 691.253Z" fill="black"/>
<path fill-rule="evenodd" clip-rule="evenodd" d="M201.261 154.196C194.697 157.853 187.181 157.995 180.12 155.694C175.886 154.317 172.003 152.188 168.369 149.643C165.208 147.427 162.387 144.969 159.591 142.359C157.29 137.294 155.241 132.239 154.281 126.729C153.421 121.782 153.307 116.646 154.305 111.709C161.682 105.654 169.013 99.5482 176.334 93.4241C180.063 90.3048 183.801 87.2026 187.584 84.1497C189.506 82.5996 191.408 81.0259 193.322 79.4687C193.638 79.2128 193.952 78.9568 194.268 78.7008C198.219 81.5876 202.456 84.0622 206.379 86.9962C208.434 88.5344 210.431 90.1721 212.333 91.8949C213.331 92.7982 214.305 93.7296 215.254 94.6848C216.123 95.5572 216.962 96.8084 218.195 97.1381C218.363 97.1829 218.522 97.1924 218.672 97.171C220.32 111.572 221.491 127.122 214.43 140.2C211.35 145.905 206.983 151.005 201.261 154.196ZM158.559 159.488C157.655 158.662 159.002 157.324 159.902 158.147C165.556 163.316 172.947 166.055 180.412 167.323C181.617 167.528 181.103 169.355 179.907 169.151C172.113 167.828 164.452 164.875 158.559 159.488ZM151.775 167.418C150.696 166.84 151.656 165.204 152.734 165.781C157.138 168.138 161.969 169.363 166.87 170.19C168.075 170.394 167.561 172.22 166.365 172.019C161.298 171.163 156.326 169.854 151.775 167.418ZM169.701 87.5392C173.356 84.2659 177.284 81.1513 181.433 78.5231C185.632 75.8639 190.218 74.2736 195.174 74.2356C194.828 74.5129 194.497 74.821 194.163 75.1076C193.227 75.9066 192.294 76.71 191.36 77.5111C189.494 79.1157 187.622 80.7176 185.779 82.3485C182.15 85.5623 178.51 88.7596 174.888 91.9806C167.927 98.1713 161.116 104.497 154.452 111.005C154.488 110.847 154.526 110.688 154.564 110.529C156.77 101.333 162.771 93.7463 169.701 87.5392ZM198.352 74.6361C198.376 74.565 198.393 74.4961 198.402 74.4299C207.914 75.6671 215.858 82.6516 218.484 91.8478C218.256 92.1654 218.13 92.5422 218.178 92.9425C218.201 93.1442 218.225 93.3481 218.249 93.5495C217.923 93.2274 217.589 92.9262 217.304 92.6394C216.356 91.6819 215.385 90.7502 214.387 89.8425C212.347 87.9869 210.229 86.252 207.996 84.6332C204.114 81.8175 199.91 79.2294 195.281 77.8784C195.585 77.6296 195.889 77.3807 196.196 77.1342C197.11 76.3921 197.958 75.7809 198.352 74.6361ZM215.404 64.8026C209.564 58.4342 201.478 53.7698 192.961 52.1487C184.83 50.5986 176.411 51.6201 168.728 54.6325C152.652 60.937 139.968 74.7999 134.028 90.8642C130.566 100.224 129.43 110.484 130.471 120.391C131.506 130.253 134.482 140.437 139.897 148.827C140.393 149.596 140.937 150.332 141.507 151.046C141.253 153.942 140.284 156.781 138.759 159.251C138.677 159.383 138.591 159.513 138.505 159.643C136.944 160.81 135.324 161.905 133.743 163.035C132.373 164.015 131.017 165.019 129.729 166.104C128.513 167.128 127.1 168.269 126.277 169.651C125.602 170.783 125.327 172.323 126.248 173.403C127.358 174.703 129.238 174.245 130.741 174.245C130.87 174.245 130.999 174.247 131.127 174.249C131.579 174.532 132.044 174.788 132.494 175.026C137.047 177.435 141.616 179.816 146.19 182.187C155.3 186.91 164.372 191.824 173.67 196.173C177.978 198.189 182.59 199.953 187.416 199.946C191.943 199.939 196.034 198.144 199.568 195.416C203.596 192.309 206.964 188.363 210.231 184.495C211.538 182.947 212.818 181.381 214.074 179.793C216.487 178.989 218.881 178.755 221.032 180.305C222.759 181.549 225.034 179.857 225.075 177.989C225.089 177.326 225.061 176.671 224.989 176.027C224.557 172.045 222.605 168.442 220.406 165.101C219.204 163.273 217.938 161.479 216.665 159.701C216.366 159.282 216.071 158.862 215.786 158.436C220.899 150.923 224.956 142.592 227.449 133.886C230.069 124.726 230.96 115.227 230.376 105.734C229.478 91.1866 225.479 75.7904 215.404 64.8026Z" fill="black"/>
<path fill-rule="evenodd" clip-rule="evenodd" d="M197.519 143.848C195.923 143.198 194.498 142.114 193.457 140.729C193.095 140.247 193.001 139.739 193.077 139.274C193.162 138.751 193.472 138.277 193.895 137.959C194.319 137.64 194.85 137.483 195.362 137.563C195.808 137.633 196.251 137.876 196.603 138.381L196.676 138.482C197.295 139.318 198.102 140.004 199.021 140.446C199.907 140.872 200.898 141.071 201.924 140.955C203.877 140.735 205.223 139.681 206.654 138.25C206.831 138.069 207.008 137.882 207.187 137.693C207.299 137.521 207.456 137.411 207.629 137.353C207.822 137.289 208.04 137.292 208.239 137.362C208.432 137.429 208.604 137.556 208.719 137.725C208.829 137.886 208.891 138.085 208.871 138.313C208.74 139.796 207.963 141.12 206.859 142.16C205.633 143.314 204.008 144.113 202.478 144.393C200.792 144.702 199.075 144.481 197.519 143.848ZM203.273 120.962C205.066 122.05 207.799 124.587 205.87 127.284C203.599 129.662 200.329 126.935 198.718 125.702C197.224 124.746 195.545 127.204 196.932 128.32C208.574 136.923 213.299 121.247 204.18 119.683C203.176 119.511 202.803 120.626 203.273 120.962ZM182.409 110.955C182.608 108.501 186.353 107.943 186.726 110.372C187.06 112.548 186.667 114.547 185.685 116.506C184.747 118.377 182.388 117.504 182.21 115.8C181.971 113.516 182.286 112.482 182.409 110.955ZM210.923 109.869C211.446 109.186 212.2 108.72 213.103 108.983C215.926 109.806 215.094 113.806 214.102 115.752C213.564 116.809 211.823 117.077 211.036 116.146C209.753 114.629 209.139 111.598 210.77 110.102C210.814 110.025 210.863 109.947 210.923 109.869ZM185.645 100.215L186.091 100.137C187.47 99.8987 189.185 99.6699 190.161 100.777C190.678 101.364 190.857 102.454 190.161 103.016C188.937 104.004 187.585 103.621 186.118 103.705C184.91 103.774 183.749 103.974 182.585 104.306C180.031 105.034 177.951 106.364 175.77 107.824C175.484 108.015 175.192 107.65 175.328 107.383C176.587 104.922 179.027 102.901 181.471 101.668C182.775 101.011 184.202 100.465 185.645 100.215ZM208.35 99.1123L208.692 99.182C212.405 99.9567 217.23 101.504 218.989 105.145C219.056 105.66 218.985 105.77 218.927 105.842L218.908 105.866C218.861 105.927 218.823 106.012 218.599 106.082C218.537 106.068 218.475 106.052 218.411 106.035C217.605 105.825 216.967 105.534 216.35 105.233L215.68 104.904C214.904 104.524 214.12 104.157 213.29 103.887C211.518 103.31 209.695 102.904 207.844 102.687C207.442 102.64 207.056 102.505 206.751 102.273C206.462 102.053 206.241 101.749 206.14 101.344C206.01 100.821 206.047 100.424 206.329 99.9517C206.54 99.597 206.843 99.3512 207.191 99.21C207.545 99.066 207.949 99.0321 208.35 99.1123Z" fill="black"/>
</svg>
