<svg width="200" height="200" viewBox="0 0 391 780" fill="none" xmlns="http://www.w3.org/2000/svg">
<path fill-rule="evenodd" clip-rule="evenodd" d="M281.668 396.861C279.009 405.785 276.568 418.999 269.796 425.57C267.413 427.491 264.613 426.318 261.878 426.084C263.641 415.76 264.857 405.351 265.84 394.927C271.411 393.86 276.783 391.921 281.758 389.205C283.05 391.367 282.243 394.654 281.668 396.861ZM259.46 423.353C256.893 438.101 253.393 452.664 250.006 467.205C248.212 476.07 244.391 485.211 243.567 493.959C226.282 500.843 207.58 498.168 189.702 495.357C189.978 495.126 190.188 494.77 190.218 494.336C190.662 494.134 191.025 493.734 191.092 493.134C192.098 479.994 193.938 465.701 190.828 452.987C192.883 451.138 194.72 448.99 196.433 446.822C197.991 444.77 194.749 442.056 192.927 443.549C195.449 437.263 198.051 431.01 200.779 424.809C201.508 423.147 199.052 421.699 198.316 423.372C188.156 446.576 179.586 470.325 170.725 494.058C170.231 493.081 168.248 493.198 168.967 494.587C150.813 496.102 131.864 491.479 115.162 483.959C119.153 471.166 123.7 458.133 123.433 444.597C127.343 444.778 132.626 442.557 134.695 439.198C136.764 440.802 139.3 438.833 140.39 436.962C142.909 432.058 141.515 426.07 140.058 421.043C145.2 421.85 151.638 417.09 148.12 411.773C142.684 407.013 136.479 402.959 131.149 397.944C130.694 388.539 134.345 379.762 137.661 370.939C154.418 382.725 170.847 395.407 188.443 405.811C191.469 406.118 193.912 403.833 196.183 402.165C202.664 397.365 209.205 392.63 215.591 387.7C216.292 387.958 217.097 387.895 217.693 387.496C221.771 391.855 226.081 395.881 230.116 400.262C232.539 402.497 234.29 405.986 237.673 406.844C239.254 407.133 240.261 406.479 241.275 405.384C247.429 398.885 254.05 392.85 260.427 386.574C261.247 387.639 262.828 387.28 263.616 386.259C262.976 398.68 261.344 411.062 259.46 423.353ZM248.064 495.447C247.869 495.613 248.099 495.471 248.284 495.748C248.472 497.531 247.422 499.343 247.071 501.093C245.905 503.666 246.018 509.619 242.575 509.711C223.561 513.012 204.349 510.199 185.744 505.954C185.986 502.187 187.155 498.305 186.392 494.575C186.703 494.295 187.034 494.101 187.402 494.025C187.298 494.553 187.369 495.2 187.774 495.462C203.694 502.439 226.756 503.881 243.278 497.396C245.016 497.944 246.314 495.71 244.952 494.478C245.183 494.447 245.404 494.366 245.591 494.224C245.321 495.402 247.049 496.312 248.064 495.447ZM195.127 510.481C195.612 510.609 196.099 510.728 196.585 510.844C196.212 511.734 196.751 513.021 196.604 514.022C196.262 512.78 195.78 511.581 195.127 510.481ZM166.718 500.263C165.961 502.431 164.759 504.842 162.22 505.186C161.627 504.947 160.943 504.989 160.496 505.397C143.947 505.174 123.699 500.195 111.098 489.321C110.946 487.833 111.655 486.336 111.804 484.855C112.012 484.269 112.25 480.574 113.039 481.26C112.437 482.73 111.918 484.885 114.212 484.668C130.437 494.009 149.61 497.567 168.2 496.983C167.609 498.019 167.162 499.142 166.718 500.263ZM132.339 562.012C130.916 567.103 129.393 572.169 127.765 577.199C126.2 584.658 122.43 585.66 116.829 580.773C112.775 578.323 114.485 573.925 115.098 570.134C115.855 565.474 116.838 560.848 117.546 556.181C122.011 559.483 127.632 561.104 133.156 560.381C132.715 560.807 132.522 561.357 132.339 562.012ZM124.878 585.898C124.828 585.883 124.776 585.867 124.726 585.85C124.783 585.831 124.837 585.81 124.892 585.791C124.887 585.827 124.883 585.862 124.878 585.898ZM121.959 595.499C120.193 611.181 115.091 626.246 111.596 641.595C111.201 644.775 108.766 645.936 105.831 644.929C104.625 644.617 102.78 644.171 101.896 643.226C100.889 642.145 101.573 640.038 101.796 638.777C103.183 630.979 104.741 623.215 106.337 615.455C108.238 607.025 109.782 598.428 111.859 590.093C114.868 592.64 118.702 594.431 122.722 594.506C122.332 594.648 122.007 594.98 121.959 595.499ZM110.9 651.544C110.663 651.597 110.425 651.639 110.185 651.677C110.546 650.535 110.892 648.946 110.25 647.88C110.397 647.828 110.539 647.771 110.677 647.707C110.888 648.994 111.036 650.229 110.9 651.544ZM108.855 683.877C112.682 686.356 114.916 690.53 116.875 694.512C118.133 697.067 119.159 700.15 121.085 702.329C121.883 704.474 122.686 706.616 123.451 708.773C125.739 715.869 128.595 723.398 128.319 730.883C128.322 730.876 128.322 730.867 128.326 730.855C128.3 731.043 128.237 731.224 128.193 731.407C128.367 731.287 128.567 731.171 128.295 731.369C128.27 731.349 128.194 731.418 128.191 731.412C128.191 731.417 128.189 731.422 128.189 731.426C128.205 731.412 128.222 731.4 128.243 731.386C128.225 731.399 128.203 731.422 128.184 731.438C128.184 731.443 128.181 731.45 128.179 731.457C128.165 731.47 128.06 731.547 128.082 731.519C127.832 731.632 127.628 731.789 127.438 731.978C112.774 735.152 96.5842 735.716 83.0252 728.447C77.8151 717.865 83.1598 700.182 85.2979 688.786C92.1241 684.902 101.062 679.974 108.855 683.877ZM114.758 679.675C115.311 682.112 115.684 684.572 116.194 687.008C114.695 685.391 113.923 683.361 112.613 681.652C111.807 679.964 110.942 677.537 108.937 677.225C108.882 675.855 108.844 674.485 108.825 673.115C112.235 673.537 114.033 676.469 114.758 679.675ZM133.337 733.109C133.297 732.441 132.946 731.777 132.371 731.412C132.503 729.054 132.099 726.764 131.73 724.439C134.212 727.086 133.155 731.325 133.561 734.642C133.529 735.963 134.17 737.644 132.632 738.326C127.83 741.639 122.009 743.184 116.271 743.85C103.754 745.281 90.7399 742.984 79.5555 737.176C78.0589 735.153 78.583 730.233 78.3823 727.641C79.0901 729.954 80.3316 732.011 82.788 732.734C98.0037 740.045 115.911 739.166 131.917 735.05C132.966 734.769 133.388 733.953 133.337 733.109ZM93.1646 681.946C93.2525 681.839 93.3356 681.732 93.4211 681.623C93.9555 681.597 94.4898 681.55 95.0242 681.491C94.2248 681.809 93.438 682.155 92.6706 682.543C92.8369 682.346 93.0031 682.147 93.1646 681.946ZM99.6458 669.802C100.95 664.309 101.42 658.659 102.082 653.059C104.002 653.739 105.926 654.207 107.944 654.261C105.472 661.736 105.599 669.92 105.666 677.725C102.633 678.239 99.3658 678.526 96.3922 677.514C97.8836 675.13 98.9547 672.537 99.6458 669.802ZM120.111 439.152C118.446 438.986 116.791 439.103 115.143 439.34C105.387 432.723 103.849 405.59 102.318 394.135C109.299 395.915 116.693 395.435 123.469 393.092C123.597 394.341 125.025 394.984 125.894 394.142C130.489 402.305 137.365 408.842 144.458 414.686C144.375 414.413 144.316 414.914 144.42 414.724C143.517 416.79 140.199 415.718 138.63 417.158C137.623 417.907 137.412 419.218 138.053 420.092C136.356 424.773 139.054 430.488 136.514 434.929C135.944 435.59 135.201 436.066 134.709 436.809C131.329 434.497 128.248 439.386 124.825 439.6C124.849 439.6 124.872 439.6 124.899 439.598C124.372 439.656 123.526 439.628 123.063 439.563C122.081 439.41 121.101 439.251 120.111 439.152ZM126.399 275.59C127.117 270.923 127.953 266.284 129.038 261.691C130.346 261.919 130.639 264.91 130.805 265.791C136.407 291.09 133.981 317.124 131.581 342.659C131 349.506 130.52 356.365 130.145 363.229C129.66 366.385 133.297 367.456 135.239 369.185C132.538 377.862 127.879 386.257 128.43 395.498C127.706 394.834 126.988 394.163 126.276 393.488C126.456 392.907 126.611 392.326 126.741 391.741C127.628 391.281 127.91 390.008 127.15 389.338C127.442 351.499 120.327 313.338 126.399 275.59ZM197.199 201.934C198.546 199.543 202.112 202.648 199.871 204.385C198.312 205.645 196.152 203.576 197.199 201.934ZM202.608 227.114C203.7 225.112 207.245 226.106 206.581 228.479C206.591 228.377 206.598 228.297 206.605 228.235C206.699 230.168 202.945 231.737 202.684 229.266C202.276 228.624 202.178 227.782 202.608 227.114ZM207.613 254.313C210.316 253.251 211.312 257.238 209.022 258.3C206.559 259.173 205.202 255.193 207.613 254.313ZM210.768 283.515C211.435 281.26 214.846 281.856 214.822 284.174C214.736 287.305 210.092 286.36 210.768 283.515ZM216.358 311.843C217.307 309.01 220.95 310.476 220.645 313.22C221.042 314.805 217.964 318.003 217.341 315.412C216.51 314.412 216.118 313.127 216.358 311.843ZM222.081 344.514C222.089 344.505 222.096 344.495 222.103 344.486C224.13 345.438 222.375 349.773 220.421 348.181C218.525 347.026 219.838 343.364 222.081 344.514ZM224.749 371.039C227.113 373.359 223.457 377.03 221.124 374.655C218.757 372.34 222.412 368.667 224.749 371.039ZM282.217 388.956C282.248 389.025 282.281 389.094 282.319 389.158C282.257 389.106 282.196 389.054 282.134 389.002C282.16 388.987 282.189 388.973 282.217 388.956ZM193.578 665.338C193.667 667.056 193.795 668.789 194.21 670.453C195.44 677.216 204.146 685.335 211.309 680.476C214.596 678.167 216.035 673.7 219.953 672.252C224.06 670.732 228.555 672.228 232.011 674.577C236.01 677.295 239.126 681.168 242.532 684.55C249.775 691.746 257.807 698.153 266.406 703.663C270.907 706.452 280.331 710.634 276.6 717.163C273.745 721.297 266.562 719.326 265.326 721.659C249.391 722.313 233.8 717.964 218.652 713.511C210.962 711.003 202.916 709.54 195.461 706.353C188.317 700.108 188.293 686.366 189.277 677.559C189.598 675.633 190.394 666.475 193.4 668.106C194.292 668.204 192.996 667.218 192.678 667.339C193.096 666.745 193.44 666.06 193.578 665.338ZM280.286 716.727C280.388 716.777 280.495 716.8 280.604 716.803C280.917 717.604 280.763 720.867 280.704 721.429C279.738 726.34 271.99 727.155 267.882 727.897C253.449 730.167 238.77 728.581 224.689 724.96C217.816 723.261 210.981 721.296 204.31 718.929C198.38 717.128 191.057 714.139 191.785 706.635C195.098 711.086 205.649 712.4 210.957 714.241C227.618 719.292 244.521 724.725 262.103 724.899C264.767 724.784 268.448 725.527 270.446 723.524C274.683 722.92 279.079 720.578 280.286 716.727ZM284.119 335.034C280.259 319.857 274.05 305.412 268.005 291.012C261.472 271.892 259.557 251.641 257.223 231.688C255.939 220.431 254.551 209.189 251.953 198.144C249.745 177.555 228.792 175.31 212.361 172.118C212.385 170.36 212.926 168.36 211.159 167.236C209.538 165.592 200.879 160.482 199.169 162.645C198.497 161.015 198.169 159.206 197.851 157.466C197.637 156.779 197.549 154.411 196.801 154.43C196.641 159.065 194.67 165.852 198.625 169.333C196.251 172.944 194.272 177.318 191.144 180.193C191.146 180.191 191.149 180.188 191.151 180.186C190.994 180.288 190.835 180.38 190.671 180.468C190.709 180.437 190.484 180.52 190.299 180.58C189.873 180.66 189.17 180.505 188.736 180.309H188.741C177.968 174.199 167.428 167.655 157 160.953C158.491 158.752 160.42 147.966 158.57 146.471C157.277 150.726 155.93 154.995 153.967 159C152.267 158.073 149.515 156.408 148.082 158.585C146.275 161.61 145.759 165.996 147.928 169.004C138.606 172.67 128.553 173.953 118.928 176.818C114.734 177.892 110.293 178.69 106.358 180.551C94.6314 187.044 94.6219 203.042 93.3356 214.825C90.0355 272.178 79.5677 331.468 95.9601 387.731C96.5899 389.459 97.5209 391.118 98.2453 392.817C98.5326 393.49 99.2783 393.469 99.7699 393.104C100.326 393.434 100.936 393.696 101.575 393.91C100.502 408.538 99.047 435.261 113.194 443.983C115.668 444.87 118.002 443.608 120.569 444.213C120.911 456.739 116.926 468.769 113.233 480.637C110.517 478.536 109.476 484.858 108.654 486.486C105.896 492.318 113.261 494.927 117.123 497.448C111.365 515.544 99.442 540.605 116.926 555.705C115.071 560.263 114.119 565.247 113.053 570.053C112.48 573.191 110.977 577.044 112.875 579.955C112.361 579.617 111.876 579.217 111.352 578.896C113.633 578.862 110.26 577.201 108.899 578.441C105.099 581.266 107.914 586.441 110.759 589.095C109.652 589.92 109.27 592.2 108.942 593.283C107.598 597.729 106.42 602.23 105.33 606.745C102.677 617.959 100.215 629.234 98.3661 640.607C98.2405 641.72 98.3141 642.853 98.7107 643.856C97.2803 643.919 96.4211 645.282 95.9656 646.473C95.3201 649.139 98.7428 651.762 101.069 652.666C98.6174 660.786 98.3972 669.822 93.2034 676.872C92.6453 676.331 91.6905 676.234 91.2132 677.132C90.6919 678.621 87.4877 682.67 88.6887 683.882C88.7291 684.174 88.8787 684.46 89.1019 684.643C87.9548 685.416 86.86 686.237 85.7699 687.098C87.2276 682.933 88.4377 678.072 91.5716 674.864C92.3983 674.392 93.4551 674.551 94.1153 673.767C94.5974 673.193 94.6212 672.508 94.1391 671.946C93.9111 671.679 93.3862 671.963 93.5263 672.302C93.9253 673.259 91.4697 673.091 90.9045 673.286C85.3909 676.704 83.4121 684.475 81.6253 690.366C79.4793 700.715 76.4753 711.263 77.1391 721.908C76.4257 725.631 75.3985 735.863 77.5618 738.677C88.9789 745.466 103.143 747.459 116.271 746.152C122.122 745.306 137.486 743.455 136.389 735.349C136.021 730.772 137.081 724.66 132.591 721.804C132.076 721.503 131.579 721.586 131.214 721.856C128.469 709.597 122.506 698.578 118.928 686.617C117.428 681.13 116.342 671.728 108.814 672.138C108.572 666.225 109.084 660.162 108.265 654.306C108.265 654.308 108.265 654.308 108.263 654.308C108.258 654.294 108.251 654.279 108.244 654.268C109.79 654.081 112.39 654.493 113.21 652.879C113.629 650.609 113.835 647.942 112.896 645.771C115.717 639.55 116.309 632.333 118.226 625.765C120.607 615.77 123.353 605.768 124.208 595.499C124.253 594.951 123.958 594.612 123.566 594.484C124.177 594.473 124.826 594.321 125.293 594.058C129.509 593.816 131.914 586.341 128.121 584.027C128.155 583.705 128.112 583.423 128.015 583.188C130.58 578.298 131.466 572.953 133.268 567.838C133.609 565.561 135.852 562.196 134.555 560.149C154.024 555.102 158.669 525.306 163.113 508.457C169.532 507.205 168.924 501.106 172.408 497.151C173.019 496.561 173.047 495.853 172.76 495.281C178.921 482.688 182.806 468.401 188.315 455.298C189.06 468 188.808 480.764 187.463 493.418C183.394 492.477 183.378 498.085 182.81 500.778C182.516 502.451 182.221 504.122 181.927 505.795C181.495 508.258 184.668 508.961 185.518 507.013C188.059 508.267 190.705 509.227 193.412 510.009C193.984 512.692 194.54 515.337 194.561 518.108C194.731 521.28 192.973 524.457 193.566 527.527C189.647 536.857 183.499 544.861 180.666 554.584C171.301 588.606 190.409 621.737 192.728 655.495C191.751 651.239 192.32 661.635 192.36 662.494C192.465 669.425 186.385 666.213 186.618 681.377C186.189 688.595 186.6 695.986 189.558 702.682C190.213 704.742 189.089 706.792 189.567 708.906C190.037 712.735 193.177 718.536 197.57 717.957C222.639 727.43 251.681 736.021 278.048 727.199C279.882 726.288 281.794 725.11 282.452 723.065C283.013 721.24 283.771 714.329 280.604 714.864C280.672 708.578 274.688 704.781 269.862 701.947C263.116 697.716 256.677 693.002 250.73 687.703C241.713 680.479 234.283 666.527 220.956 668.685C219.22 659.192 221.038 649.511 221.025 639.929C221.893 597.672 230.222 556.245 236.525 514.614C236.58 514.254 236.086 514.102 235.965 514.462C222.393 553.53 218.949 595.445 216.398 636.48C215.555 647.511 216.506 658.491 218.771 669.311C212.809 670.947 211.886 680.214 204.923 679.322C201.224 678.548 197.911 675.634 196.426 672.202C198.008 669.635 196.889 666.045 196.825 663.127C196.58 660.297 196.293 657.47 195.958 654.647C193.649 622.222 175.848 590.853 182.869 558.068C186.225 541.942 202.154 528.415 197.136 510.974C211.44 514.257 226.346 514.909 240.893 512.977C246.173 512.813 247.86 510.587 248.968 505.676C249.765 502.404 251.395 499.19 251.421 495.793C251.186 493.153 248.001 491.309 246.097 493.393C251.806 472.816 256.619 452.086 260.928 431.184C274.848 437.144 280.33 419.996 282.891 409.668C284.125 403.483 286.782 395.872 283.23 390.087C293.617 394.219 286.712 340.647 284.119 335.034Z" fill="black"/>
<path fill-rule="evenodd" clip-rule="evenodd" d="M260.862 98.5829C261.674 97.8529 262.28 96.8953 262.586 95.8217C262.867 94.8428 262.886 93.7739 262.589 92.7974C262.271 91.7499 261.584 90.9156 261.739 89.8253C261.755 89.7187 261.777 89.6073 261.81 89.4959C262.404 87.4434 263.864 85.9621 263.342 83.6868C263.194 83.0445 262.917 82.4662 262.529 82.0111C262.572 81.5181 262.61 81.0204 262.641 80.5227C263.498 78.52 263.468 76.1404 262.553 74.1685C262.442 73.1588 262.273 72.1586 262.035 71.175C262.145 70.3052 261.993 69.3477 261.713 68.5869C261.22 67.2482 260.612 65.929 259.952 64.6316C260.029 64.2768 259.994 63.9019 259.798 63.5684C259.441 62.9624 258.97 62.4296 258.488 61.9089C258.147 61.3014 257.804 60.6989 257.464 60.1043C257.306 59.831 257.132 59.5279 256.94 59.2067C257.463 58.2383 257.742 57.2945 257.189 56.1557C256.981 55.7279 256.41 55.4124 255.94 55.4404C255.425 55.471 254.907 55.494 254.385 55.5136C253.41 54.3385 252.305 53.2836 251.12 52.6764C249.921 51.662 248.705 50.6665 247.523 49.6498C247.188 49.3606 246.85 49.0715 246.516 48.7823C246.513 48.7752 246.511 48.7657 246.508 48.7586C246.261 47.8603 245.984 46.9739 245.706 46.0828C245.532 45.5305 245.48 44.9522 244.941 44.6512C243.815 44.0231 242.084 43.9236 240.792 43.8169C240.664 43.7032 240.536 43.5918 240.407 43.478C240.994 41.9185 240.889 40.2618 240.151 38.6999C239.899 38.169 239.025 37.9296 238.545 38.2804C237.439 39.091 236.125 39.3777 234.826 39.2592C232.917 37.7945 225.215 31.171 224.025 30.4719C224.01 30.4467 223.998 30.4216 223.983 30.3967C223.314 29.3307 222.501 28.4746 221.588 27.7882C221.458 27.6524 221.327 27.5163 221.197 27.3803C221.312 26.5676 221.613 25.7829 222.099 25.1263C222.152 25.0505 222.211 24.977 222.27 24.9059C223.12 23.8963 222.083 22.5974 220.895 23.126C220.81 23.1639 220.724 23.2018 220.639 23.2421C219.726 23.6483 218.716 24.0899 217.664 24.4625C217.279 24.3186 216.887 24.1882 216.529 24.0446L212.697 22.5071C212.066 22.254 211.399 22.0395 210.789 21.7421C210.576 20.3297 209.158 19.4035 207.685 19.4518C207.77 19.1807 207.897 18.9174 208.076 18.6678C208.128 18.5943 208.185 18.5232 208.244 18.4545C209.002 17.5752 207.99 15.9446 206.907 16.7267C206.831 16.7812 206.753 16.8357 206.677 16.8902C206.376 17.1009 206.068 17.2986 205.756 17.4901C205.258 17.273 204.697 17.2235 204.109 17.4531C202.808 17.9615 201.609 18.4784 200.463 19.2753C200.417 19.3077 200.369 19.335 200.321 19.3656C199.753 18.6801 198.85 18.2218 198.037 18.2267C198.021 18.2267 198.008 18.2265 197.993 18.2263C197.385 17.3022 196.271 16.7651 195.196 16.8957C195.268 15.5696 193.938 14.3862 192.727 14.2424C191.312 14.0746 190.037 14.8944 189.612 16.2719C189.494 16.6554 189.376 17.0391 189.258 17.4228C188.159 16.8694 187 16.4454 185.788 16.2337C183.03 15.7516 180.334 16.265 177.676 17.0291C177.41 17.1054 177.145 17.1839 176.88 17.2621C176.501 16.8239 176.145 16.3752 175.805 15.9564C175.219 15.2335 173.811 15.8118 173.906 16.7409C173.972 17.382 173.711 17.8433 173.29 18.171C172.829 18.2383 172.383 18.2587 171.71 18.2452C170.821 18.2272 170.417 18.1995 169.488 17.8378C169.054 17.6695 168.515 17.227 168.263 16.8298C167.295 15.3065 164.837 14.8963 163.666 16.3487C162.434 15.8104 160.878 16.5527 160.194 17.5994C159.836 18.1466 159.09 18.4526 158.15 18.7157C157.444 18.9129 156.722 19.0622 155.998 19.1928C155.675 18.7555 154.994 18.4623 154.496 18.829C154.158 19.0781 153.829 19.3338 153.506 19.5959C151.01 19.9391 148.527 19.9515 146.147 18.9802C144.132 18.1578 142.282 20.4039 142.614 22.2896C142.031 22.5927 141.398 22.7944 140.821 23.112C139.564 23.8055 138.531 24.9016 137.902 26.1896C137.789 26.4202 137.687 26.6543 137.59 26.8897C137.12 27.2715 136.655 27.6635 136.202 28.0771C135.446 27.6908 134.694 27.3045 133.938 26.9181C133.373 26.629 132.421 26.8304 132.309 27.5794C132.126 28.8118 131.682 29.8334 131.048 30.689C128.987 31.7697 127.004 32.9832 125.106 34.3318C122.924 35.0144 120.603 35.4126 118.696 35.8605C118.043 36.0146 117.687 36.8654 118.055 37.4319C118.445 38.0315 118.834 38.6312 119.221 39.2308C118.136 40.2879 117.117 41.3923 116.155 42.5347C113.479 45.7107 111.239 49.1923 109.235 52.8802C108.442 53.2002 107.648 53.5178 106.855 53.8377C106.09 54.1458 105.746 55.0323 106.366 55.684C106.66 55.9945 106.924 56.3216 107.15 56.6653C106.026 58.521 104.703 60.2133 102.853 61.3225C102.291 61.6591 101.868 62.1876 101.642 62.7872C101.45 62.9152 101.26 63.0527 101.072 63.1925C100.55 63.586 100.234 64.4439 100.847 64.9535C101.277 65.3138 101.68 65.7404 102.022 66.212C102.096 66.4798 102.172 66.75 102.248 67.0179C100.528 68.5963 99.0987 70.4308 98.0253 72.4881C97.7712 72.4478 97.5099 72.4738 97.2986 72.6303C95.3797 74.0452 95.3227 76.2992 96.0945 78.3138C95.629 81.3499 95.9283 84.4618 96.826 87.4031C95.6456 88.5787 94.9355 90.2757 94.6458 91.911C94.1352 94.7836 94.0996 99.2015 93.9666 102.133C92.6794 103.373 91.7627 104.977 91.2521 106.703C90.8222 106.916 90.3924 107.129 89.9625 107.343C89.5802 107.532 89.2999 108.032 89.3237 108.454C89.4329 110.495 90.276 112.107 91.3946 113.567C91.7912 114.692 92.3778 115.731 93.1472 116.726C93.6792 117.409 94.1993 118.063 94.6577 118.8C94.7052 118.873 94.7337 118.942 94.7551 118.989C94.5746 119.184 94.4249 119.506 94.2943 119.736C93.1971 121.665 93.1805 123.926 94.7384 125.607C94.1518 126.086 94.1328 127.053 94.6506 127.645C98.0205 131.487 100.83 136.158 105.506 138.199C105.528 138.235 105.547 138.27 105.563 138.306C104.616 140.581 104.487 141.764 105.262 144.115C105.266 144.136 105.273 144.155 105.281 144.176C105.694 145.409 106.454 147.383 107.824 147.767C108.256 147.888 108.681 147.943 109.102 147.94C110.189 148.985 111.275 150.033 112.36 151.081C112.455 151.6 112.515 152.123 112.534 152.652C112.564 153.536 113.398 154.252 114.296 153.991C114.612 153.899 116.359 152.204 116.68 152.214C116.842 152.375 116.998 152.536 117.155 152.699C117.732 153.304 118.532 154.257 118.599 154.889C118.727 156.081 119.511 157.447 120.777 157.688C121.252 158.17 122.012 158.314 122.594 157.686C122.632 157.646 122.67 157.605 122.71 157.57C122.772 157.563 122.831 157.556 122.893 157.549C123.173 158.383 123.453 159.217 123.736 160.049C124.289 161.689 126.403 162.744 127.904 161.786C128.146 161.931 128.384 162.085 128.621 162.239C128.982 162.469 129.348 162.704 129.723 162.924C129.744 162.986 129.766 163.047 129.785 163.106C130.027 163.844 131.034 164.239 131.654 163.815C131.846 163.877 132.043 163.927 132.243 163.967C133.29 164.173 134.345 164.116 135.356 163.768C136.081 163.521 136.772 163.05 137.551 162.986C137.599 162.982 137.649 162.985 137.699 162.983C138.334 164.283 139.787 165.402 140.931 165.783C142.43 166.281 143.964 166.103 145.329 165.493C145.698 166.228 146.16 166.924 146.713 167.567C147.019 167.923 147.573 167.847 147.889 167.567C148.488 167.036 149.085 166.503 149.68 165.969C150.111 165.803 150.545 165.605 150.999 165.42C152.418 164.841 153.973 164.602 155.285 163.766C155.908 163.369 156.494 162.863 156.977 162.276C157.886 161.753 158.721 161.1 159.473 160.352C159.849 160.355 160.24 160.267 160.62 160.075C162.209 159.269 163.045 157.629 163.119 155.951C164.406 152.929 165.166 149.706 165.375 146.407C165.441 145.324 165.453 144.231 165.37 143.148C165.313 142.385 165.121 141.875 164.831 141.185C164.734 140.96 164.646 140.754 164.577 140.527C164.594 139.797 164.603 139.067 164.613 138.339C164.81 137.725 165.161 137.154 165.65 136.673C166.408 135.929 166.755 134.383 166.066 133.464C165.617 132.869 165.171 132.274 164.722 131.679C164.848 129.126 165.46 125.064 164.102 124.637C164.157 124.258 164.273 123.884 164.339 123.507C164.658 121.696 164.468 120.077 163.503 118.494C163.302 118.165 163.131 117.873 162.991 117.589C162.903 117.067 162.815 116.546 162.727 116.024C162.592 115.221 162.459 114.41 162.345 113.595C162.285 112.557 162.231 111.519 162.171 110.478C162.117 109.521 162.055 108.563 161.991 107.603C162.017 107.174 162.055 106.745 162.109 106.316C162.435 103.759 163.482 102.813 165.297 101.036C165.582 100.991 165.864 100.941 166.142 100.884C167.436 100.616 168.79 100.202 170.122 100.351C171.569 100.512 172.863 101.135 174.269 100.339C174.682 100.102 175.592 99.4479 175.67 98.9289C175.675 98.8957 175.682 98.8673 175.691 98.8459C175.789 98.8317 175.915 98.8199 175.993 98.8175C177.109 98.7796 178.176 99.218 179.301 99.0972C180.634 98.955 181.826 98.3648 182.61 97.4902C183.614 97.7367 184.64 97.8481 185.683 97.7107C186.557 97.5969 187.34 97.3125 188.115 96.8906C188.677 96.5872 188.499 96.4995 189.112 96.746C190.506 97.3101 191.767 98.0543 193.337 97.668C194.152 97.4689 194.854 97.0304 195.446 96.4403C195.586 96.3028 195.823 96.0966 195.983 95.9023C196.728 96.2791 198.604 97.13 198.913 97.2058C199.787 97.4191 200.713 97.386 201.564 97.1015C202.188 96.893 202.953 96.3242 203.501 96.208C204.212 96.0563 205.788 97.0423 206.636 97.3812C208.123 97.9761 209.698 98.1231 211.203 97.5092C211.721 97.2983 212.728 96.4569 213.115 96.464C213.744 97.239 215.502 101.479 216.029 103.027C218.164 109.284 218.717 128.821 217.732 133.805C217.694 133.952 217.653 134.096 217.613 134.243C216.402 138.578 215.141 142.987 213.115 147.025C211.203 150.832 208.56 154.259 204.767 156.337C200.834 158.494 196.218 159.061 191.796 158.769C188.948 158.584 186.148 158.013 183.393 157.297C181.954 156.925 180.527 156.51 179.107 156.079C178.487 155.892 177.857 155.717 177.249 155.498C176.176 155.112 175.613 155.081 174.585 155.577C173.649 156.027 173.409 157.357 173.896 158.193C174.689 159.558 176.143 159.653 177.546 160.051C178.976 160.457 180.41 160.845 181.854 161.194C184.621 161.857 187.433 162.367 190.269 162.602C195.346 163.026 200.578 162.372 205.2 160.16C205.722 159.909 206.225 159.641 206.712 159.352C206.532 159.603 206.349 159.855 206.164 160.104C205.651 160.793 206.031 161.966 206.75 162.343C206.978 162.462 207.206 162.576 207.437 162.687C207.468 162.76 207.501 162.834 207.539 162.907C208.197 164.225 209.574 165.003 210.978 165.339C212.645 165.737 214.511 165.455 216.207 165.405C217.779 165.358 219.352 165.311 220.921 165.263C221.292 165.254 221.662 165.242 222.033 165.23C223.899 165.173 225.764 165.119 227.628 165.062C229.29 165.012 229.212 165.14 230.772 164.476C231.468 164.178 232.038 163.756 232.518 163.194C232.817 163.061 233.107 162.91 233.385 162.737C234.278 162.182 235.071 161.438 235.802 160.618C237.044 161.009 238.785 160.646 239.028 159.089C239.417 156.598 242.661 155.534 244.176 153.733C245.399 152.28 246.273 150.377 246.228 148.549C249.311 147.061 250.987 143.138 251.379 139.811C251.562 138.268 251.534 136.616 251.797 135.047C251.914 134.921 252.018 134.789 252.106 134.646C252.88 133.397 253.555 132.11 254.148 130.793C254.956 130.212 255.927 129.854 256.944 129.795C259.442 129.65 259.912 126.287 257.53 125.476C257.518 125.472 257.509 125.469 257.497 125.465C258.143 123.853 258.088 121.945 257.305 120.419C257.338 120.253 257.369 120.089 257.4 119.923C258.737 118.489 259.504 116.496 259.418 114.555C260.029 114.126 260.713 113.794 261.461 113.588C262.617 113.27 262.624 111.863 261.77 111.232C261.425 110.978 261.14 110.682 260.903 110.355C261.494 108.582 261.261 106.532 260.052 105.077C260.82 104.096 261.587 103.114 262.354 102.133C262.862 101.484 263.13 100.382 262.354 99.7655C261.857 99.3697 261.361 98.9763 260.862 98.5829Z" fill="black"/>
<path fill-rule="evenodd" clip-rule="evenodd" d="M185.573 138.62C185.598 136.009 187.865 135.558 190.019 135.906C193.666 136.495 197.326 136.909 201.022 136.984L201.659 136.995C201.762 136.846 201.933 136.733 202.166 136.708C204.215 136.487 206.308 136.523 208.368 136.462C210.165 136.409 212.012 136.23 213.808 136.371L213.951 136.383C216.148 136.595 218.465 137.714 218.2 140.286C217.956 142.668 215.675 144.776 213.853 146.1C213.485 146.365 213.108 146.614 212.72 146.84C212.599 146.995 212.421 147.103 212.216 147.125C210.422 148.092 208.443 148.664 206.394 148.854C202.05 149.258 196.999 148.821 192.827 146.942C191.47 146.332 190.205 145.569 189.087 144.632C187.362 143.187 185.554 140.996 185.573 138.62ZM202.689 143.798C200.948 143.745 199.209 143.989 197.55 144.525C196.426 144.887 195.402 145.583 194.325 146.067C197.954 147.448 202.171 147.749 205.895 147.498C207.529 147.387 209.113 147.011 210.588 146.365C210.359 146.199 210.126 146.031 209.882 145.884C209.146 145.439 208.376 145.061 207.573 144.759C206.009 144.174 204.359 143.85 202.689 143.798ZM203.272 120.962C202.803 120.625 203.175 119.511 204.179 119.683C213.298 121.246 208.573 136.922 196.931 128.32C195.545 127.204 197.223 124.746 198.717 125.702L199.248 126.11C200.972 127.429 203.825 129.424 205.869 127.284C207.798 124.587 205.066 122.05 203.272 120.962ZM209.446 109.098C211.384 107.447 213.816 108.664 215.243 110.335L215.494 110.634C215.78 110.975 216.096 111.373 216.286 111.797C217.867 110.453 220.012 109.508 222.064 110.122C224.054 110.719 225.189 112.615 224.847 114.651C224.46 116.966 222.705 118.522 220.819 119.725L220.284 120.064C218.018 121.506 215.897 122.958 214.032 124.94C213.728 125.262 213.07 125.219 212.871 124.79L212.71 124.445L212.548 124.101C211.225 121.285 209.807 118.488 208.643 115.606C207.781 113.471 207.501 110.752 209.446 109.098ZM187.349 110.593L187.645 110.252C189.065 108.603 191.471 107.498 193.368 109.098C195.389 110.802 194.993 113.62 194.092 115.793C193.009 118.415 191.743 120.978 190.526 123.549L190.267 124.101C190.157 124.331 190.05 124.56 189.944 124.79C189.744 125.219 189.084 125.262 188.782 124.94C186.975 123.02 184.931 121.599 182.747 120.203L182.088 119.785C180.171 118.571 178.359 117.005 177.965 114.651C177.627 112.62 178.755 110.712 180.748 110.122C182.805 109.513 184.944 110.451 186.528 111.797C186.717 111.362 187.042 110.952 187.349 110.593ZM189.948 98.7587C190.642 99.6574 189.901 101.126 188.888 101.358C187.634 101.646 186.366 101.471 185.135 101.828C184.006 102.156 182.925 102.811 181.958 103.465C180.855 104.21 179.839 105.042 178.905 105.99C178.35 106.554 177.65 107.89 176.794 107.914C175.942 107.939 177.085 105.282 177.18 105.052C177.851 103.416 178.794 101.91 179.974 100.591C182.301 97.9877 187.231 95.241 189.948 98.7587ZM215.942 98.0393L216.523 98.2004C217.961 98.5993 219.496 99.0894 220.729 99.9496L220.826 100.018L220.975 100.127C222.524 101.279 224.714 103.578 223.617 105.584C223.542 105.722 223.381 105.735 223.252 105.679C221.793 105.041 220.711 103.768 219.159 103.235L218.873 103.137C217.37 102.632 215.51 102.101 213.892 102.149C212.755 102.518 211.218 102.213 210.922 100.831L210.909 100.763L210.883 100.62C210.713 99.6758 210.966 98.472 211.945 98.017C213.285 97.3936 214.592 97.671 215.942 98.0393Z" fill="black"/>
<path fill-rule="evenodd" clip-rule="evenodd" d="M223.287 117.422C222.616 119.246 221.594 121.145 220.344 122.68C215.287 126.954 210.373 124.588 207.878 118.796C206.93 114.702 209.447 110.293 212.114 107.282C215.966 103.429 222.253 105.451 224.024 110.031C224.132 110.625 224.197 111.217 224.228 111.807C224.191 113.725 223.959 115.364 223.287 117.185V117.422ZM174.678 113.744C181.34 105.835 193.804 105.413 193.486 117.584C192.055 132.991 167.956 129.209 174.678 113.744ZM225.383 107.147C225.149 106.752 224.89 106.37 224.608 106.005C224.503 105.943 224.443 105.392 224.059 105.351C218.923 99.6962 209.9 102.905 206.639 108.54C206.044 109.252 205.558 110.086 205.2 110.967C201.988 110.379 198.243 110.493 195.255 111.704C192.293 103.984 183.324 103.295 177.414 106.594C173.738 108.398 171.354 112.177 167.779 114.252C159.374 114.856 150.354 112.977 142.101 115.081C135.593 116.431 141.034 119.72 142.125 117.525C149.906 115.231 159.124 117.17 167.203 116.653C168.043 118.071 169.654 119.231 171.259 119.182C172.993 134.521 195.408 131.978 196.181 118.342C197.059 116.958 198.149 115.633 199.711 114.771C200.308 114.648 200.886 114.487 201.413 114.239C202.315 114.112 203.705 114.493 204.535 115.243C207.377 132.264 223.754 130.282 226.68 115.37C226.738 115.311 226.901 115.089 227.026 114.732C228.028 113.41 230.48 112.919 230.088 110.688C229.739 108.456 226.915 108.482 225.383 107.147Z" fill="black"/>
</svg>
