<svg width="200" height="200" viewBox="0 0 391 780" fill="none" xmlns="http://www.w3.org/2000/svg">
<path fill-rule="evenodd" clip-rule="evenodd" d="M160.679 151.449C161.473 152.075 161.39 153.811 161.468 154.783L161.473 154.847C161.723 157.782 161.385 160.731 160.67 163.58L160.559 164.015C160.217 165.377 159.877 167.01 158.807 167.944C157.592 169.005 155.661 168.318 155.618 166.607C155.595 165.812 155.861 165.046 156.197 164.3C153.842 165.209 151.488 166.107 149.124 166.984C147.613 179.472 165.06 194.762 175.162 200.115C189.872 208.258 202.249 195.786 204.132 181.125C204.449 179.177 204.661 177.176 204.702 175.202L204.705 175.012C204.713 173.38 204.442 171.197 205.506 169.84C204.723 169.821 204.027 169.931 203.261 170.051L203.298 170.115C203.732 170.891 204.346 172.824 202.971 172.971C200.001 172.659 198.62 167.454 197.897 164.957L197.868 164.849C197.401 162.978 196.806 156.188 198.213 155.373C198.646 157.049 198.476 158.868 199.002 160.548C200.2 161.031 202.481 161.161 203.01 161.25C209.18 161.322 212.678 165.751 215.179 170.935C222.511 176.952 233.049 175.918 240.966 180.873C265.191 198.432 257.279 266.79 269.346 295.871C271.761 294.871 274.224 296.873 274.546 299.315C274.88 301.193 274.78 303.205 274.807 305.108L274.818 305.346C275.016 309.238 275.689 313.613 270.431 313.697C270.44 315.87 270.849 317.974 271.374 320.071C274.285 332.768 275.555 345.845 275.842 358.861L275.856 359.817C275.951 366.658 276.035 387.822 272.102 390.326L272.285 391.817C272.74 395.545 273.169 399.283 273.409 403.03C273.786 404.975 272.502 409.635 269.881 408.401C265.075 409.59 260.335 411.344 255.34 411.353C256.55 451.609 255.949 491.906 256.128 532.178C255.742 561.864 257.347 591.795 255.944 621.367L255.995 621.784C256.391 625.105 256.51 627.992 252.672 629.129C252.616 629.942 251.991 630.376 251.25 630.471C249.146 630.754 247.042 631.022 244.936 631.281C242.974 631.427 240.875 631.915 238.919 631.682C239.108 631.873 238.595 631.903 238.539 631.763C236.757 636.237 236.239 641.113 235.798 645.885C240.125 647.534 242.487 651.244 241.78 655.895C246.146 656.071 249.335 660.922 249.947 665.011C250.339 667.832 250.025 670.634 249.898 673.46C249.294 683.119 250.714 693.524 256.95 701.228C260.997 706.064 266.267 710.438 268.033 716.735C268.513 716.959 268.907 717.393 269.08 718.07L270.201 722.467L270.758 724.665C271.166 726.268 271.528 727.908 271.31 729.567L271.287 729.728C270.195 740.237 227.105 735.172 218.695 734.417C215.315 733.887 211.605 734.176 208.561 732.386C204.827 729.922 204.361 724.923 205.001 720.83L205.055 720.446C205.314 718.615 205.694 716.696 207.431 715.672C206.847 711.879 207.073 707.997 206.377 704.219C205.327 698.873 202.149 694.234 200.526 689.101C198.159 686.469 198.08 682.367 197.585 679.002C197.21 675.738 196.903 672.451 196.777 669.167C196.433 664.826 198.318 661.245 202.883 660.678C202.671 659.856 203.251 659.145 203.828 658.618C202.467 653.784 202.091 647.147 207.996 645.498C210.233 639.953 210.883 633.943 211.479 628.029C211.408 628.014 211.337 628.002 211.266 627.989C208.561 629.116 207.826 624.294 207.573 621.748L207.517 621.14C204.732 591.705 204.989 562.097 203.943 532.572L203.841 530.437C202.924 510.983 202.378 491.358 199.014 472.164C195.627 450.771 194.742 429.029 193.585 407.412C192.221 409.53 191.488 411.962 190.385 414.219C176.069 456.275 161.38 498.205 147.227 540.319C136.969 570.81 127.168 601.462 117.339 632.096C116.837 633.664 115.257 633.989 114.1 633.487C111.156 634.508 108.067 635.088 104.957 635.188C104.77 635.619 104.385 635.934 103.823 635.872C102.16 635.69 100.246 636.21 98.583 636.404C94.7778 636.78 91.0836 637.363 87.2436 637.418C84.8647 640.426 84.7152 644.504 83.6183 648.083C82.9869 649.908 83.086 654 80.9056 654.514C81.6872 655.718 81.7895 657.163 81.6628 658.652C82.341 658.806 83.0288 659.097 83.6668 659.396C84.2881 659.71 85.1089 659.683 85.537 660.316C97.7155 662.524 88.8155 685.648 86.6987 693.296C84.621 699.548 83.9704 706.079 84.9185 712.607C86.3678 714.608 85.8825 717.586 86.1043 719.958C86.2209 722.075 86.4352 724.224 86.416 726.344C86.1793 735.15 75.3078 733.717 69.1744 734.86C65.3446 735.305 61.4972 735.616 57.6501 735.857C47.8931 736.463 38.0813 736.51 28.3442 735.566C22.0573 735.367 20.7055 731.266 20.7155 725.657L20.7059 725.425C20.5642 721.618 21.1781 717.021 24.7939 715.042C24.9741 713.03 25.9945 710.999 27.0364 709.241C31.8813 701.096 39.1555 693.958 40.5863 684.184C41.9897 677.785 40.3997 663.699 46.905 660.363C47.056 657.482 48.8259 654.545 51.0175 652.987C51.4404 650.587 53.0338 648.381 54.0197 646.175C56.0304 641.964 57.8904 637.686 59.8904 633.472C58.8432 633.029 57.7305 632.214 57.5844 631.057C56.579 631.069 55.5856 630.419 55.7073 629.196C56.0624 625.643 56.8395 622.15 57.5735 618.659L57.665 618.223C70.7242 555.1 97.6919 496.073 113.47 433.759C111.347 434.143 109.362 431.715 108.188 430.135C104.397 425.031 102.158 418.855 101.174 412.589L99.3916 412.368C93.4488 411.638 87.4766 411 81.4841 411.171L80.0399 411.22C78.4354 411.269 76.8282 411.256 75.303 410.679C74.2389 410.777 73.131 410.206 72.8681 409.012C68.4298 386.894 79.3392 365.903 87.1535 345.916C88.9943 341.002 90.3045 336.017 91.5536 330.928C91.5947 330.763 91.8528 330.798 91.8457 330.968C91.6023 336.625 90.1995 342.329 88.7749 347.782C84.0972 366.272 74.3521 384.404 76.7347 403.98C84.1408 398.147 92.937 394.096 102.177 392.382C102.71 390.065 103.299 387.766 103.742 385.434C103.306 381.85 103.009 378.248 102.63 374.646C101.495 363.873 99.7615 353.127 97.4508 342.543C93.8662 331.894 90.7367 321.1 89.6176 309.872L89.4139 309.912C86.9286 310.416 84.1904 311.511 81.8847 309.928C80.4213 308.914 79.788 307.233 79.1968 305.618C77.5077 301.702 77.1953 296.555 81.9745 294.918C80.1929 282.469 81.3505 269.473 83.5039 257.14C85.228 246.331 89.0106 235.68 87.5947 224.614C86.0227 213.98 83.0916 202.842 87.3288 192.432C94.2925 175.06 111.927 166.818 129.27 164.165L129.551 164.082C131.696 163.447 133.65 162.778 135.885 163.259C141.158 153.475 149.709 157.455 158.06 159.635C158.623 157.976 159.093 156.279 159.535 154.583C159.81 153.719 159.719 151.726 160.679 151.449ZM209.011 720.419L208.989 720.845C208.769 725.426 209.017 729.351 214.697 729.321C218.605 729.738 222.514 730.144 226.428 730.498L227.896 730.628C239.514 731.664 251.271 732.171 262.867 730.615L263.35 730.549C264.319 730.411 266.114 730.438 266.881 729.722C267.806 728.478 266.735 726.105 266.511 724.66C248.418 724.45 230.301 723.782 212.196 724.013C210.292 724.023 209.432 722.395 209.608 720.913C209.393 720.768 209.191 720.601 209.011 720.419ZM25.3135 718.122C24.4238 721.25 24.6429 724.206 25.1455 727.338C25.3967 730.619 26.9573 730.829 29.7812 730.906C40.8056 731.923 51.9096 731.71 62.9369 730.857C68.8473 730.22 74.9209 730.244 80.7212 728.936C83.4885 727.71 81.891 723.854 81.9852 721.489C68.9586 729.884 49.2578 728.818 35.0527 723.961L34.8251 723.864C31.4649 722.453 27.1695 721.564 25.3135 718.122ZM46.8907 661.638C45.3931 663.327 45.3619 668.139 45.2991 669.776L45.2912 669.959C45.123 673.399 45.1497 676.845 45.0007 680.284C45.1105 694.768 36.747 701.991 30.5359 713.636C28.837 716.462 31.3084 716.863 33.3187 717.779C46.3358 723.837 61.7332 724.763 75.3322 720.125C82.1679 718.139 80.6756 713.539 80.0951 707.912C79.5236 696.414 85.5738 686.055 87.3634 674.932L87.4116 674.644C87.9452 671.379 88.8672 663.01 83.6646 664.799C82.5326 665.496 81.4683 664.622 81.3347 663.554C81.1998 663.576 81.0615 663.588 80.928 663.59C80.3264 667.308 79.7031 671.02 79.1043 674.738C79.6081 675.058 80.0805 675.42 80.4993 675.833C81.0082 676.338 80.6527 677.397 79.8857 677.333C79.4915 677.298 79.1019 677.239 78.7145 677.165C78.4075 680.397 73.2752 678.584 74.7578 675.993C67.3787 673.444 59.2491 673.647 51.7556 675.602L51.7246 675.615C51.1445 675.846 46.9731 676.682 48.3151 677.333C48.8744 677.4 47.6009 678.132 47.3777 677C47.3056 675.579 50.5479 674.882 51.5413 674.292C49.0358 670.706 47.3238 666.059 46.8907 661.638ZM235.934 650.284C228.983 646.52 220.44 647.917 212.901 648.583L212.584 648.619C210.665 648.825 207.991 648.953 207.11 650.929C205.835 654.095 207.949 661.179 208.613 664.701L208.839 665.624C209.389 667.879 209.912 670.115 210.101 672.446C210.105 672.52 210.035 672.571 209.969 672.571C207.328 669.75 206.141 665.955 204.907 662.335C204.381 662.635 203.867 662.96 203.383 663.317C201.49 669.822 200.856 676.748 202.355 683.384L202.409 683.618C204.26 691.818 210.025 698.525 210.573 707.094C210.939 710.559 210.857 714.109 211.853 717.474C212.42 717.599 212.915 718.017 213.137 718.542L216.386 718.546C232.093 718.573 247.805 718.715 263.502 719.362C262.996 714.948 259.1 711.031 256.356 708.005C247.936 699.382 244.294 686.994 245.681 675.055C246.411 669.083 249.744 659.699 241.591 657.492C240.995 662.36 240.19 667.212 239.745 672.099C241.284 672.841 241.189 674.798 239.309 674.76C238.465 677.599 235.636 676.451 235.942 673.773C225.594 669.951 219.657 668.67 209.577 674.428C209.294 674.386 210.351 673.255 210.485 673.054C213.671 669.619 218.563 668.004 223.154 667.946C227.704 667.945 231.983 669.66 236.276 670.986C236.921 666.375 237.355 661.735 237.867 657.108L237.977 656.116C238.245 653.686 238.148 651.68 235.934 650.284ZM69.6419 709.835C71.1564 709.498 72.5493 708.986 74.0879 709.333C79.5031 713.401 57.3767 714.548 55.4928 714.259C50.6968 714.118 45.8988 713.509 41.2832 712.154L40.9614 712.058C40.5069 711.931 35.9062 710.65 36.7786 710.078C43.0214 710.632 49.1331 711.778 55.4928 711.479C58.6654 711.413 61.8503 711.189 64.9888 710.711C66.5496 710.472 68.103 710.182 69.6419 709.835ZM215.93 704.795C214.938 703.309 219.771 705.282 220.4 705.3C224.402 706.287 228.475 707.035 232.587 707.346C235.343 707.555 238.128 707.599 240.889 707.464C242.934 707.393 244.957 707.091 246.989 706.883L247.062 706.879C248.269 706.837 250.688 707.586 249.197 709.023C246.879 710.821 243.449 710.273 240.67 710.537C232.232 710.509 223.297 709.151 215.93 704.795ZM57.2951 693.995C59.7275 693.554 73.1172 693.41 71.7824 697.52C71.4585 698.301 70.7183 698.559 69.9392 698.436C61.6526 696.42 52.7136 695.366 44.4533 698.146C44.3194 698.192 44.2269 697.973 44.3584 697.914C48.4197 695.879 52.7655 694.456 57.2951 693.995ZM231.091 689.977C233.278 689.811 235.477 689.87 237.664 690.034L238.559 690.104C239.482 690.178 240.425 690.274 241.306 690.542L241.481 690.598C242.682 690.985 245.389 693.049 243.334 694.042C241.128 694.756 239.263 693.906 237.135 693.359C231.203 691.954 224.967 692.43 219.09 693.867L219.918 694.133C219.969 694.096 220.035 694.182 219.986 694.224C219.392 694.743 218.576 694.559 218.155 693.914C218.082 693.803 218.128 693.626 218.245 693.564C222.229 691.474 226.621 690.317 231.091 689.977ZM46.3359 689.453C53.0352 686.487 60.7971 686.159 67.9817 687.019L68.4935 687.082C70.735 687.345 73.6585 687.465 74.9408 689.554C75.3839 690.277 74.9262 691.107 74.2103 691.368C72.102 692.139 69.623 690.595 67.5975 690.021C61.6072 688.381 55.21 688.208 49.1189 689.342C49.1615 689.567 48.1528 689.469 47.9331 689.549C47.6578 689.533 45.8306 690.138 46.3359 689.453ZM215.276 684.822C221.121 681.979 227.878 681.301 234.188 682.769L234.45 682.844C237.246 683.629 241.747 684.555 242.749 687.515C242.966 688.182 242.496 689.083 241.792 689.219C239.408 689.674 237.244 687.934 235.087 687.097C228.74 684.711 221.555 684.14 214.991 685.895C214.948 686.154 214.904 686.41 214.857 686.668C214.97 686.595 215.086 686.759 214.996 686.851C213.949 687.584 212.859 685.732 215.276 684.822ZM61.3947 679.824C66.1236 679.51 70.8923 680.111 75.4576 681.359L76.3161 681.595C77.5638 681.945 79.1801 682.496 79.3617 683.845C79.4323 684.381 79.2984 684.751 78.8625 685.083C77.2733 686.272 73.8167 683.781 71.8406 683.488C64.6667 681.332 56.9662 681.363 49.6992 683.012L49.4517 683.069L49.627 684.317C49.7991 684.914 48.2021 683.507 48.8089 682.867C52.645 680.913 57.1213 680.176 61.3947 679.824ZM219.735 677.594C223.53 676.909 227.446 676.778 231.283 677.123L231.736 677.165C234.028 677.368 241.452 677.663 239.696 681.537C239.402 682.185 238.547 682.269 237.994 681.988C236.139 681.048 234.11 680.708 232.063 680.398C224.833 679.391 217.446 679.804 210.387 681.752C210.541 681.993 210.224 682.278 209.925 682.335C209.18 682.473 209.18 681.584 209.499 681.112C209.879 680.553 210.636 680.348 211.22 680.102C213.938 678.917 216.821 678.117 219.735 677.594ZM75.9879 656.035L75.5556 655.932C68.3128 654.228 52.255 651.171 50.5921 661.151C50.0019 665.546 51.9488 669.834 51.8049 674.187C59.3153 671.131 67.6204 671.163 75.4232 673.182C76.1145 668.664 76.7743 664.142 77.4805 659.627L77.5946 659.087C77.909 657.564 78.0157 656.373 75.9879 656.035ZM59.8559 657.852C61.4342 656.498 64.0663 656.517 65.6144 657.995C67.0302 658.292 68.0288 659.795 68.0517 661.084C70.2043 664.869 67.6085 670.098 63.4987 671.043C54.2184 672.999 50.0698 660.248 59.8559 657.852ZM220.641 651.813C228.406 650.425 231.227 660.279 224.854 664.275C215.851 668.792 209.853 654.59 220.641 651.813ZM63.6979 629.927C63.8123 630.68 63.4417 631.216 62.9991 631.724C61.4071 638.252 59.0112 644.327 56.6489 650.585C64.3341 649.31 71.5951 650.422 78.395 652.51C78.4763 650.6 79.3463 648.621 79.9507 646.82C81.1273 643.402 82.55 640.072 84.1908 636.855L84.397 636.453C84.9862 635.309 85.5536 634.112 86.2497 633.017C78.7281 631.989 71.2065 631.064 63.6979 629.927ZM215.182 628.536L214.981 629.444C214.118 633.384 213.299 637.362 212.014 641.19L211.996 641.269C211.799 642.235 211.357 646.708 211.079 643.551C210.864 644.026 210.636 644.496 210.392 644.959L212.255 644.737C219.201 643.921 226.448 643.271 233.26 645.016C232.554 639.537 233.594 634.302 235.113 629.122C228.455 628.969 221.855 629.018 215.182 628.536ZM89.0819 635.346C88.8384 635.575 88.6001 635.809 88.3734 636.052C88.6804 635.974 88.9872 635.897 89.2718 635.831C89.2601 635.651 89.133 635.516 89.0819 635.346ZM239.139 630.321L238.922 630.83C239.034 630.764 239.158 630.7 239.292 630.643C239.231 630.545 239.18 630.439 239.139 630.321ZM59.5843 629.203C59.5056 629.495 59.4455 629.816 59.304 630.082C59.416 630.102 59.5305 630.124 59.6452 630.148C59.7837 629.868 59.93 629.594 60.0881 629.326C59.9201 629.287 59.7521 629.247 59.5843 629.203ZM117.501 306.112C116.819 306.442 116.108 306.526 115.169 306.565C107.532 306.882 99.9204 307.767 92.422 309.276C92.8359 315.345 94.6816 321.223 96.4378 327.009L96.802 328.277C102.736 349.006 107.916 370.668 106.873 392.35C106.931 392.372 106.987 392.402 107.041 392.429C106.946 392.694 106.878 392.966 106.783 393.23L106.722 393.386L106.366 394.272C106.169 394.763 105.978 395.256 105.811 395.762C105.52 395.867 105.162 395.944 104.82 395.993C103.088 407.472 104.735 420.343 112.542 429.32C109.759 423.716 108.788 417.35 108.91 411.124L108.932 410.172C108.964 408.996 109.035 407.824 109.393 406.708C109.408 406.648 109.486 406.658 109.505 406.708C111.158 411.814 111.266 417.361 112.89 422.505L113.014 422.9C114.298 426.931 116.443 432.121 120.167 434.204C120.853 434.409 121.908 434.167 122.264 434.957L122.288 435.014L122.31 435.007C120.647 429.558 119.577 423.924 119.21 418.236L119.186 417.848C119.069 415.863 118.811 413.736 119.306 411.798C120.248 413.57 120.014 416.465 120.452 418.608L120.47 418.731C120.816 421.047 124.15 438.757 126.34 436.391C126.792 435.738 126.675 434.476 126.689 433.699L126.69 433.623C126.725 432.501 126.712 431.378 126.674 430.256C126.437 423.642 125.41 416.855 127.423 410.413C127.76 409.327 129.586 409.123 129.807 410.413C130.694 415.573 131.541 420.738 132.388 425.903C133.006 429.058 132.98 432.616 134.857 435.337C134.879 429.397 134.55 423.473 134.265 417.54L134.189 417.293C133.964 416.544 133.742 415.572 134.258 414.935C134.465 413.581 136.442 413.736 136.61 415.154C136.647 415.45 136.673 415.75 136.703 416.048C137.358 416.87 137.967 417.71 138.741 418.416C143.911 407.855 126.995 389.614 124.66 377.687C117.782 354.46 121.736 330.107 123.737 306.455C121.668 306.21 119.583 306.144 117.501 306.112ZM215.934 172.434C219.55 179.697 222.204 187.383 224.043 195.293C224.609 197.735 221.336 199.234 220.013 197.094L219.974 197.028C218.348 194.313 215.924 191.922 212.857 190.987C210.767 199.756 211.785 209.022 212.871 217.876C214.797 230.211 216.329 242.599 216.558 255.099L216.569 255.769C217.24 298.457 223.509 340.954 230.376 382.749C241.353 384.513 251.402 389.491 261.52 393.866C263.278 394.553 265.075 395.152 266.916 395.565C261.832 348.18 242.498 303.742 236.524 256.53C234.945 244.251 234.871 231.782 237.052 219.575C237.089 219.341 237.42 219.42 237.434 219.626C237.674 224.641 238.531 229.59 239.039 234.577C239.385 231.729 240.183 228.844 240.829 226.113C241.618 223.442 241.909 219.154 244.221 217.413L244.367 216.908C244.427 216.692 244.749 216.783 244.698 216.999C244.674 217.103 244.649 217.204 244.627 217.307C246.112 217.702 244.725 219.465 244.357 220.308C241.974 226.707 241.265 233.634 239.638 240.23C241.992 260.82 246.231 281.149 251.452 301.162C256.249 299.895 261.062 298.675 265.871 297.437C255.144 262.437 261.417 223.376 245.345 189.956C239.324 178.74 224.495 180.264 215.934 172.434ZM134.433 166.036C132.184 165.915 129.834 167.139 127.674 167.56C124.811 168.116 121.962 168.557 119.162 169.411C104.829 173.349 91.0009 184.101 88.4043 199.594C86.6196 210.232 91.0389 220.596 90.8835 231.204C90.4172 241.714 86.959 251.815 85.6115 262.219C83.9906 272.858 83.4326 283.994 84.8229 294.684C97.6802 291.029 111.108 290.8 124.292 292.688C123.193 276.484 124.636 260.201 125.434 244.009C126.009 233.61 126.992 223.164 126.644 212.745C126.637 212.514 127.012 212.457 127.048 212.689C131.002 233.968 128.683 255.569 128.283 277.03C128.029 282.452 128.699 287.926 128.429 293.318C134.423 294.611 134.206 301.616 132.373 306.233C132.048 307.344 130.946 307.151 130.053 307.016C129.086 308.035 126.778 306.705 125.463 306.706C124.434 333.343 118.18 361.796 130.995 386.693C136.353 386.723 141.511 384.87 146.718 383.819L147.002 383.763L147.009 383.76C147.775 382.761 148.149 381.156 148.251 379.981C148.979 359.467 146.702 338.906 148.034 318.39C149.666 295.617 154.735 272.984 152.391 250.058C150.769 229.567 146.319 209.448 144.174 189.018L144.066 187.961C143.932 186.702 143.881 185.31 143.26 184.35C139.641 187.654 136.605 191.583 134.431 196.004C133.227 198.14 130.003 197.189 129.953 194.778C129.49 190.474 129.421 186.153 129.891 181.847L129.934 181.467C130.516 176.077 132.141 170.933 134.433 166.036ZM268.959 313.875C264.298 314.122 259.632 314.64 254.963 314.579L255.433 316.346C261.085 337.554 267.103 358.724 270.651 380.424L270.78 378.389C270.908 376.354 271.031 374.318 271.111 372.278C272.118 352.776 270.58 333.3 268.959 313.875ZM147.636 178.523C147.655 179.404 147.699 180.283 147.768 181.159C149.922 184.398 149.73 188.702 150.212 192.427C152.915 212.546 156.896 232.581 158.237 252.909C159.485 269.17 157.447 285.374 155.365 301.472C152.796 319.908 153.065 338.535 153.662 357.096C163.532 348.141 177.56 346.57 190.012 343.789L190.605 343.668C200.18 341.703 209.735 338.854 217.87 333.257C212.02 291.312 213.397 248.826 207.415 206.918C207.23 203.618 207.192 200.299 207.466 197.002C207.203 193.432 207.125 189.842 207.118 186.263C204.496 196.837 195.713 207.053 184.205 206.719C171.961 205.999 161.568 195.947 153.584 187.331C151.42 184.761 149.268 181.76 147.636 178.523ZM255.323 313.894L254.77 313.867L254.804 313.988C254.918 313.965 255.034 313.944 255.149 313.924L255.323 313.894ZM270.511 299.571C270.424 299.544 270.275 299.544 270.109 299.551C269.871 300.103 269.389 300.558 268.829 300.708L264.157 301.974C260.263 303.028 256.367 304.078 252.467 305.098C253.121 307.629 253.786 310.16 254.458 312.688C259.778 310.966 265.669 311.357 271.093 310.248C271.027 307.327 270.868 304.391 270.818 301.464C270.806 300.987 270.903 300.219 270.66 299.79C270.507 299.517 270.66 299.618 270.511 299.571ZM91.7969 309.404L91.6505 309.436C91.6992 309.569 91.7433 309.702 91.7847 309.837C91.7871 309.692 91.7893 309.549 91.7969 309.404ZM126.433 295.347C116.41 293.881 106.216 293.014 96.1064 294.012C91.5337 294.634 86.8918 295.298 82.4104 296.147C80.8518 298.552 82.576 304.404 84.5163 306.255C85.0983 306.477 86.099 306.046 86.6566 305.92C90.8404 304.971 95.065 304.206 99.3109 303.609C99.4373 303.769 99.6223 303.872 99.8512 303.85L100.827 303.759C106.683 303.223 112.59 302.83 118.459 303.166L118.502 303.2C122.462 303.491 126.407 304.118 130.35 304.571C131.907 300.48 131.639 295.785 126.433 295.347ZM199.365 161.905C199.753 163.223 200.218 164.505 200.797 165.75C201.401 165.582 202.235 165.717 202.679 166.1L202.868 166.066C203.388 165.966 204.012 165.815 204.174 165.797C211.336 164.801 210.79 174.434 210.816 179.276C210.86 181.703 210.909 184.133 210.982 186.561C213.032 185.859 215.772 187.12 217.563 188.237C216.161 183.542 214.512 178.924 212.674 174.387L212.326 173.503C210.878 169.842 209.274 166.135 206.197 163.586C203.858 162.971 201.592 162.859 199.365 161.905ZM147.438 159.488C140.782 157.1 138.145 162.526 136.299 167.936C134.122 173.929 133.528 180.526 133.89 186.974L134.115 186.676C136.564 183.393 140.095 177.974 144.56 178.845C144.516 176.354 144.606 173.618 145.081 171.031C144.804 169.362 144.733 167.675 144.926 165.989C145.027 163.875 147.318 164.195 148.826 163.896C150.131 163.022 151.711 162.67 153.299 163.286C154.497 163.126 155.695 162.973 156.893 162.821C157.077 162.414 157.225 162.006 157.38 161.59C154.064 160.901 150.75 160.19 147.438 159.488Z" fill="black"/>
<path fill-rule="evenodd" clip-rule="evenodd" d="M220.06 91.2812C220.065 91.1694 220.226 91.1443 220.257 91.2547C220.872 93.4316 221.22 95.6493 221.701 97.8602C222.164 99.9897 222.601 102.125 222.965 104.274C223.652 108.328 224.23 112.393 224.769 116.469L224.902 117.488C225.837 124.659 227.382 132.13 226.032 139.343C224.879 145.498 221.015 150.458 216.035 154.095C211.32 157.539 205.602 159.749 199.926 161.005C193.833 162.354 186.612 162.756 181.655 158.298C179.67 156.512 182.375 152.97 184.528 154.581C189.584 158.364 196.014 157.249 201.719 155.743L201.891 155.698C206.898 154.367 211.937 152.35 215.912 148.947C220.306 145.184 222.479 139.962 222.73 134.235C222.871 131.018 222.57 127.804 222.246 124.605L222.21 124.25C221.838 120.592 221.447 116.935 221.087 113.276C220.758 109.939 220.475 106.582 220.325 103.231L220.255 101.54C220.109 98.1316 219.913 94.6733 220.06 91.2812ZM160.773 62.9604C168.999 58.6864 178.453 57.1568 187.608 58.5911C196.408 59.9701 204.485 64.5022 210.523 71.0007C213.47 74.1736 216.086 77.8437 217.758 81.8532C218.589 83.845 219.239 85.9229 219.585 88.0569C219.763 89.1541 219.938 90.2908 219.972 91.403C220.003 92.4329 219.7 93.3987 219.736 94.4455C219.741 94.6093 219.49 94.6408 219.451 94.4839C219.165 93.3167 218.476 92.434 218.044 91.3253C217.721 90.4974 217.355 89.6892 216.982 88.8834L216.661 88.193C215.731 86.1862 214.618 84.2619 213.518 82.3445C211.303 78.4827 208.46 74.973 205.131 72.0116C199.287 66.8121 191.789 63.4558 183.964 62.8514C175.841 62.2238 167.603 64.1559 160.666 68.4358C153.73 72.7155 148.485 79.3684 145.762 87.0283C144.388 90.8937 143.629 94.9212 143.453 99.0163C143.364 101.089 143.447 103.179 143.593 105.248L143.665 106.235C143.75 107.418 143.808 108.596 143.631 109.751C144.882 109.362 146.193 109.2 147.509 109.393C149.465 109.679 150.634 110.479 151.511 112.223C151.557 112.314 151.465 112.405 151.374 112.36C150.236 111.793 148.396 112.092 147.192 112.389C145.938 112.698 144.809 113.235 143.744 113.962C141.774 115.306 140.229 117.388 139.85 119.776C139.484 122.084 140.433 124.42 142.027 126.074C142.848 126.926 143.829 127.662 144.928 128.121C146.261 128.679 147.58 128.661 148.76 129.581C149.489 130.15 149.312 131.123 148.818 131.754C151.306 134.477 153.513 137.456 156.001 140.189C157.154 141.456 158.298 142.724 159.403 144.032L159.815 144.525C160.919 145.854 162.674 147.257 163.178 148.929C163.492 149.968 162.376 151.328 161.249 150.855C159.519 150.128 158.284 148.236 157.115 146.786L157.038 146.692C155.812 145.188 154.724 143.601 153.729 141.938L153.402 141.39C151.602 138.37 149.819 135.238 148.671 131.92C148.595 131.998 148.515 132.069 148.431 132.129C146.778 133.302 144.375 132.4 142.724 131.638C141.166 130.919 139.737 129.838 138.623 128.534C136.201 125.699 135.085 122.027 135.894 118.347C136.579 115.23 138.744 112.199 141.582 110.622C140.272 109.117 139.729 107.088 139.368 105.105C138.907 102.573 138.816 99.9778 138.941 97.4103C139.19 92.2963 140.509 87.2554 142.548 82.5725C146.195 74.1935 152.643 67.1847 160.773 62.9604ZM143.459 118.874C145.186 118.551 146.795 118.473 148.46 119.202C150.266 119.993 151.538 121.3 152.72 122.83C154.064 124.571 150.618 126.473 149.749 124.162L149.724 124.091C149.491 123.406 149.074 122.745 148.546 122.136C148.388 122.378 148.176 122.592 147.927 122.714C147.626 122.862 147.165 122.759 147.093 122.375C147.013 121.949 147.101 121.432 147.348 121.071L147.382 121.022C146.184 120.06 144.743 119.357 143.459 119.131C143.331 119.108 143.333 118.897 143.459 118.874Z" fill="black"/>
<path fill-rule="evenodd" clip-rule="evenodd" d="M197.519 143.847C195.923 143.197 194.498 142.113 193.457 140.728C193.095 140.247 193.001 139.738 193.077 139.273C193.162 138.75 193.472 138.277 193.895 137.959C194.319 137.64 194.85 137.483 195.362 137.563C195.808 137.632 196.251 137.876 196.603 138.381L196.676 138.482C197.295 139.318 198.102 140.004 199.021 140.446C199.907 140.872 200.898 141.071 201.924 140.955C203.877 140.735 205.223 139.681 206.654 138.249C206.831 138.069 207.008 137.882 207.187 137.693C207.299 137.521 207.456 137.411 207.629 137.353C207.822 137.289 208.04 137.292 208.239 137.362C208.432 137.429 208.604 137.556 208.719 137.725C208.829 137.886 208.891 138.084 208.871 138.313C208.74 139.796 207.963 141.12 206.859 142.16C205.633 143.314 204.008 144.113 202.478 144.393C200.792 144.702 199.075 144.481 197.519 143.847ZM203.273 120.962C205.066 122.05 207.799 124.587 205.87 127.284C203.599 129.662 200.329 126.935 198.718 125.702C197.224 124.746 195.545 127.204 196.932 128.32C208.574 136.922 213.299 121.246 204.18 119.683C203.176 119.51 202.803 120.625 203.273 120.962ZM182.409 110.955C182.608 108.5 186.353 107.943 186.726 110.372C187.06 112.548 186.667 114.546 185.685 116.505C184.747 118.377 182.388 117.504 182.21 115.8C181.971 113.515 182.286 112.482 182.409 110.955ZM210.923 109.868C211.446 109.186 212.2 108.72 213.103 108.983C215.926 109.806 215.094 113.805 214.102 115.752C213.564 116.809 211.823 117.077 211.036 116.146C209.753 114.628 209.139 111.597 210.77 110.102C210.814 110.025 210.863 109.947 210.923 109.868ZM185.645 100.215L186.091 100.137C187.47 99.8986 189.185 99.6699 190.161 100.777C190.678 101.363 190.857 102.454 190.161 103.016C188.937 104.004 187.585 103.621 186.118 103.705C184.91 103.774 183.749 103.974 182.585 104.306C180.031 105.034 177.951 106.364 175.77 107.824C175.484 108.015 175.192 107.65 175.328 107.383C176.587 104.922 179.027 102.9 181.471 101.668C182.775 101.01 184.202 100.465 185.645 100.215ZM208.35 99.1123L208.692 99.182C212.405 99.9567 217.23 101.504 218.989 105.145C219.056 105.659 218.985 105.77 218.927 105.842L218.908 105.866C218.861 105.927 218.823 106.012 218.599 106.082C218.537 106.067 218.475 106.052 218.411 106.035C217.605 105.824 216.967 105.534 216.35 105.233L215.68 104.903C214.904 104.523 214.12 104.157 213.29 103.887C211.518 103.31 209.695 102.903 207.844 102.686C207.442 102.639 207.056 102.504 206.751 102.273C206.462 102.053 206.241 101.749 206.14 101.344C206.01 100.82 206.047 100.424 206.329 99.9517C206.54 99.597 206.843 99.3511 207.191 99.2099C207.545 99.066 207.949 99.0321 208.35 99.1123Z" fill="black"/>
</svg>
