<svg width="200" height="200" viewBox="0 0 391 700" fill="none" xmlns="http://www.w3.org/2000/svg">
<path fill-rule="evenodd" clip-rule="evenodd" d="M320.249 259.196L319.594 259.779C308.881 269.301 297.517 278.805 284.105 284.185C282.289 284.847 280.395 285.025 278.529 285.419C262.93 285.574 252.337 273.502 242.459 263.093C243.286 245.28 242.602 226.888 235.559 210.242L235.391 209.814C233.668 205.46 231.562 201.143 228.193 197.816C228.11 197.735 227.996 197.856 228.067 197.941C230.942 201.46 232.616 205.759 233.818 210.095L233.879 210.315C237.977 225 238.69 240.408 238.151 255.575L238.134 256.035C237.766 266.283 236.88 276.586 238.115 286.813C239.016 297.368 243.69 306.913 248.781 316.029C253.219 324.449 256.536 333.449 258.547 342.752C257.9 345.497 255.557 347.51 253.122 349.038C248.722 351.754 243.623 353.24 238.643 354.484C218.265 359.71 197.041 362.136 176.076 359.606C153.709 356.705 131.879 350.701 110.218 344.589C107.99 343.906 105.518 343.288 103.39 342.226C103.247 342.069 103.079 341.937 102.896 341.828C102.528 336.636 102.041 331.49 101.678 326.311C102.168 316.278 104.958 306.522 109.232 297.462C117.043 282.608 114.463 273.575 109.702 258.44C108.608 254.589 107.826 250.56 107.924 246.59C108.422 244.089 108.904 241.587 109.349 239.077C109.534 238.596 109.736 238.119 109.961 237.645C110.004 237.555 109.883 237.484 109.826 237.567C109.726 237.709 109.631 237.854 109.536 238.001C109.866 236.086 110.173 234.168 110.441 232.246C110.477 231.992 110.149 231.893 110.054 232.139C101.495 255.137 96.526 279.788 96.7305 304.363C96.8519 311.599 97.3506 318.833 97.8826 326.052L97.8331 326.748C97.6445 329.48 97.5453 332.264 98.5024 334.867C98.7062 339.332 99.4647 343.743 99.2291 348.222C98.6767 352.311 97.4418 355.204 94.3675 358.032C91.3229 361.12 87.8382 363.676 83.8683 365.448C67.364 317.258 57.6944 267.201 81.5614 219.55C92.6386 196.349 111.707 175.506 137.299 168.877C133.651 172.9 136.495 178.92 139.117 182.756L139.277 182.988C151.836 201.567 179.491 205.993 200.231 201.952C210.278 200.231 219.699 193.737 220.5 182.877C221.123 175.603 216.976 168.428 210.707 164.845L211.47 164.928C217.572 165.605 223.498 166.582 228.181 170.941C245.443 186.887 253.451 209.596 263.648 230.156L264.053 230.904C268.421 238.99 272.641 247.723 279.897 253.586L278.541 254.741C278.37 254.888 278.553 255.22 278.769 255.132C279.467 254.85 280.16 254.553 280.852 254.253C281.826 255.033 282.946 254.243 283.063 253.252C299.471 245.411 313.339 232.972 326.212 220.355C329.462 227.87 334.943 236.067 343.717 237.294C335.434 244.08 328.102 251.925 320.249 259.196ZM188.359 403.281C189.423 402.676 190.475 402.047 191.512 401.396C193.225 404.131 192.789 406.536 192.605 409.557C192.213 414.598 192.301 419.725 191.277 424.687C189.503 437.346 188.454 450.575 185.819 462.911C185.76 463.601 185.699 464.29 185.645 464.98C185.574 465.888 184.149 465.892 184.22 464.98C185.955 444.501 189.637 423.902 188.359 403.281ZM198.017 649.983C211.385 652.199 225.031 650.628 238.404 649.204L240.368 648.95C246.697 648.128 253.065 647.265 259.282 645.887C259.806 645.454 260.613 645.263 260.928 644.622L261.312 644.649C261.636 644.466 261.966 644.294 262.302 644.132C263.279 643.957 264.075 643.745 265.084 643.469C266.452 643.933 266.595 645.135 265.666 645.986C265.759 646.42 265.239 646.668 264.899 646.86C264.844 646.969 264.76 647.074 264.633 647.163C264.023 647.547 263.407 648.007 262.709 648.197C261.003 649.968 257.339 650.641 255.321 651L255.121 651.036C238.35 654.033 221.192 654.838 204.208 653.484C201.28 653.249 198.354 652.951 195.439 652.587L194.645 652.487C192.127 652.162 189.351 652.036 187.415 650.197C186.452 649.282 184.52 649.859 184.574 651.314L184.577 651.37C184.747 653.759 179.153 651.782 178.045 651.474L178.013 651.465C174.916 650.626 171.839 649.699 168.732 648.9L167.97 648.753C165.272 648.218 165.062 647.947 165.032 644.608L164.932 643.7C164.796 642.49 164.651 641.284 164.455 640.083L164.379 639.633C164.291 639.129 163.431 636.005 164.863 636.419C165.044 636.472 165.22 636.327 165.229 636.152C175.292 642.551 186.181 647.905 198.017 649.983ZM144.87 658.037L145.724 657.526C147.154 656.662 148.591 655.724 149.605 654.411C151.279 654.474 151.967 652.9 151.904 651.496C153.309 656.06 151.567 659.713 147.448 662.023C133.103 669.628 114.749 668.508 100.469 661.277C99.0982 660.571 97.7588 659.805 96.4597 658.978L96.1674 658.792C95.6806 658.48 95.2086 658.146 94.9493 657.61C94.3245 655.781 94.333 653.978 94.2653 651.939C95.3473 653.396 97.143 654.405 98.6351 655.409C101.483 657.312 104.568 658.821 107.767 660.033C119.612 664.427 133.682 664.159 144.87 658.037ZM101.483 283.236C102.627 273.319 104.587 263.539 106.487 253.748C107.259 264.271 112.729 274.518 110.296 285.163C107.919 293.732 102.824 301.334 100.647 309.978C100.224 301.051 100.484 292.119 101.483 283.236ZM115.58 369.285C114.293 369.52 112.97 369.515 111.668 369.423C106.393 368.784 105.559 371.975 105.577 376.436C105.416 379.319 105.24 382.203 105.089 385.088L105.002 386.819C104.893 389.125 104.603 391.704 104.893 394.114C103.937 396.303 103.42 398.585 103.268 400.978C102.829 400.86 102.359 400.916 102.021 401.146C100.086 397.7 99.6228 393.493 99.2238 389.613C99.0291 387.705 96.2219 387.618 96.1792 389.613C96.1246 392.327 96.0842 395.043 96.0367 397.757L95.9631 401.945L95.9633 402.007C95.9751 402.604 96.245 404.11 95.5109 404.052L95.4691 404.047C94.1031 403.945 94.0401 399.089 93.7447 397.878L92.605 389.756C92.3489 387.938 89.7333 388.531 89.5534 390.117L89.5485 390.168C89.2286 393.88 88.9042 397.593 88.6294 401.308C88.5427 401.95 88.5311 403.113 87.8291 403.393C87.209 402.837 87.0914 401.9 86.9596 401.123C85.7921 390.405 83.5999 379.824 82.2481 369.131C83.1244 369.006 83.9271 368.46 84.1836 367.622C91.2166 366.186 98.5973 362.23 102.131 355.804C102.836 356.425 103.387 357.238 104.071 357.875C105.152 358.887 106.339 359.8 107.474 360.746C110.656 363.437 113.85 365.978 116.967 368.752C116.511 368.901 116.095 369.193 115.58 369.285ZM192.099 149.878C192.135 149.738 192.329 149.778 192.339 149.911C192.533 152.613 193.182 155.464 194.17 158.114C194.524 158.171 194.863 158.37 195.11 158.757C195.443 159.276 197.033 159.638 197.863 159.882L197.981 159.918C201.426 160.98 205.022 161.409 208.595 161.788C225.399 162.717 231.515 167.978 240.995 181.273C252.249 196.249 258.563 214.024 267.046 230.554C269.133 234.574 271.387 238.498 273.864 242.293L274.1 242.653C276.313 246.017 278.761 249.425 282.141 251.695C290.319 244.844 299.066 238.727 307.156 231.77L307.913 231.116C313.983 225.873 319.78 220.317 325.297 214.496C325.948 213.809 327.169 213.629 328.071 214.032C328.424 208.792 329.905 203.653 331.27 198.591C332.704 192.07 335.195 187.662 342.708 189.276C345.732 181.668 349.781 174.244 355.912 168.689L356.306 168.335C357.611 167.151 359.324 165.453 361.158 165.606C362.823 165.743 363.678 167.249 363.744 168.78C363.82 170.596 363.028 172.445 362.46 174.147L362.412 174.292C361.681 176.527 360.892 178.744 360.059 180.943C359.256 183.059 358.396 185.155 357.496 187.231C356.579 188.968 355.904 191.843 354.233 192.893C353.37 193.405 352.482 192.716 352.39 191.836C352.259 190.682 352.924 189.667 353.414 188.662C353.865 187.738 354.306 186.809 354.736 185.875C356.464 182.116 358.014 178.278 359.346 174.363C359.742 173.046 361.361 169.62 360.799 168.436C360.237 168.441 359.079 169.628 358.669 169.981C352.228 175.311 348.042 182.675 343.254 189.395C346.259 190.253 349.521 190.655 352.017 192.67C357.151 197.145 353.028 206.007 346.146 204.357C348.067 208.435 349.719 215.022 346.315 218.706C345.291 219.663 343.304 219.357 342.993 217.831C342.66 216.21 343.059 214.821 343.425 213.25C344.087 210.051 344.489 206.775 344.037 203.518L343.895 203.434C342.729 202.726 341.995 201.932 342.031 200.47C341.879 199.413 343.007 197.989 344.14 198.854C344.508 199.133 344.957 199.155 345.344 199.437C346 200.061 346.816 200.551 347.747 200.544L347.837 200.541C349.034 200.532 349.918 199.811 350.283 198.693C351.286 195.623 347.816 194.592 345.56 194.002L344.977 193.823C338.819 191.942 336.587 191.912 335.039 199.141C333.363 204.534 331.886 210.086 329.052 215.015L329.404 215.857C332.254 222.636 335.831 230.439 343.491 232.519C343.762 230.254 346.215 230.172 347.989 230.229C350.28 230.106 352.579 228.945 354.197 227.276C355.611 225.854 356.322 223.873 357.885 222.605C357.178 220.998 358.776 219.225 360.446 220.149C361.571 220.77 362.251 221.656 363.609 221.837C364.813 221.998 365.922 221.578 366.836 220.808C369.223 218.793 368.088 215.833 368.672 213.195C367.903 214.525 366.625 215.544 365.257 216.248C356.123 221.467 356.214 211.234 361.263 212.916C366.746 211.669 366.654 209.69 364.604 205.042L364.568 204.933C364.234 203.957 363.49 202.232 364.181 201.181C364.219 201.129 364.288 201.112 364.338 201.16C364.965 201.776 365.212 202.809 365.741 203.535L366.372 204.287C368.289 206.595 370.295 209.335 369.05 212.415C369.183 212.387 369.328 212.444 369.373 212.605C369.962 214.745 371.133 216.848 370.89 219.137C370.384 224.155 364.938 226.909 360.429 224.818C359.562 231.268 353.194 235.911 346.811 235.623C346.609 236.508 345.954 237.285 344.94 237.366C335.547 252.395 298.625 291.059 280.519 289.444C278.787 290.228 276.583 289.835 274.75 289.598C260.688 287.766 248.936 277.494 242.38 265.318C239.97 305.2 253.588 304.716 262.7 337.756C263.612 338.327 264.144 339.574 263.436 340.628C263.827 342.627 264.628 344.676 264.319 346.727C264.167 347.312 263.861 347.845 263.583 348.381C263.011 349.474 261.503 349.343 260.797 348.492C261.995 352.819 261.484 357.361 261.177 361.772C260.99 364.363 261.004 366.918 261.001 369.51C260.644 408.982 241.339 444.572 231.415 482.019C228.608 492.516 226.452 503.213 225.604 514.056C224.704 525.591 225.331 537.19 224.248 548.711C222.993 562.055 219.424 575.024 215.215 587.708C215.467 588.735 215.99 589.904 215.667 590.79C209.655 591.802 203.852 593.643 198.012 595.352C197.783 595.417 197.641 595.559 197.569 595.728L196.234 596.17C195.368 596.458 195.739 597.832 196.613 597.542L198.072 597.058C203.062 595.409 208.11 593.833 213.3 593.094L213.459 593.029C214.497 592.614 215.718 592.31 216.265 593.452C216.542 594.03 216.323 594.613 215.926 595.071C215.591 595.458 215.165 595.696 214.872 596.135C214.545 596.712 214.268 597.319 213.942 597.905C213.946 600.802 212.991 603.67 213.361 606.561C213.64 607.76 214.613 608.91 213.995 610.194L214.277 610.373C215.914 611.424 217.479 612.576 218.555 614.2C218.79 614.555 218.968 615.287 219.237 615.539C219.517 615.799 220.04 615.83 220.384 615.953C222.128 616.483 223.225 618.055 223.075 619.881C227.158 621.054 225.752 625.196 229.967 628.079C234.294 631.21 240.152 631.554 245.263 632.366L253.972 633.753L254.478 633.815C259.991 634.494 267.18 635.772 268.289 642.203L268.378 642.307C269.71 643.895 270.991 646.91 269.347 648.634C268.01 649.819 266.184 650.375 264.565 651.066C262.32 652.685 259.085 653.439 256.622 653.896C235.33 657.834 213.395 658.29 191.959 655.235L191.6 655.183C190.102 654.959 188.555 654.656 187.188 654.015C185.275 657.23 181.592 656.826 178.491 655.913C176.056 655.312 173.622 654.719 171.188 654.127L170.96 654.067C167.2 653.103 161.868 652.81 160.957 648.23C160.487 645.871 160.518 643.248 160.541 640.851L160.536 640.065C160.533 638.046 160.692 635.309 162.98 634.883C159.801 629.002 160.494 621.77 163.455 615.939L163.612 615.653C165.791 611.663 167.152 608.331 166.429 603.617C164.978 602.252 164.301 600.292 163.764 598.365C162.636 594.309 161.652 590.21 160.818 586.082L162.111 583.43C165.904 575.646 169.654 567.829 172.488 559.64C172.748 558.888 171.525 558.356 171.186 559.091C167.603 566.857 163.221 574.236 159.885 582.118C157.674 586.24 155.018 590.116 152.041 593.724L151.91 593.908C150.754 595.49 149.786 596.016 147.888 596.668C147.584 596.796 147.275 596.798 146.985 596.715C145.174 599.167 142.976 601.11 142.024 604.037C140.986 607.274 140.59 610.834 140.385 614.219C140.276 618.628 142.116 622.792 143.271 626.979C145.038 632.62 147.005 638.2 149.181 643.698C150.344 644.168 151.399 644.89 152.372 645.78C153.183 645.702 154.037 646.07 154.34 647.057L154.466 647.469C155.538 651.02 156.447 655.12 155.056 658.677C151.209 667.295 138.846 669.443 130.39 670.475C117.867 671.663 104.731 668.674 94.3055 661.547C92.8331 660.516 91.8285 659.343 91.5839 657.516L91.5582 657.288C91.2216 654.232 91.1435 650.605 93.2677 648.237C95.0835 632.736 98.0581 617.241 102.342 602.226C102.309 601.802 102.283 601.377 102.261 600.951C99.8701 598.464 98.9342 594.963 98.6658 591.601C98.6347 590.188 100.066 589.893 101.176 589.721L101.584 589.717C105.201 589.691 108.933 589.869 112.16 591.217L112.001 591.223C111.838 591.231 111.667 591.251 111.543 591.335C113.16 591.853 114.923 592.083 116.469 592.763C117.614 592.819 118.612 593.362 119.771 593.46L119.956 593.472C120.162 593.49 120.319 593.429 120.431 593.327C123.546 593.881 126.643 594.628 129.752 595.085C130.649 595.216 131.037 593.846 130.131 593.713C125.971 593.102 121.83 591.982 117.641 591.463C116.715 591.104 115.82 590.643 114.891 590.273C114.837 590.15 114.735 590.04 114.57 589.962C113.552 589.485 112.494 589.092 111.412 588.764C108.638 587.905 105.724 587.543 102.835 587.373L103.039 585.309C106.363 551.586 108.789 516.959 122.579 485.553C119.649 478.791 115.664 472.351 113.1 465.395C112.036 462.615 111.39 459.781 110.547 456.943C109.999 455.584 109.546 454.208 109.327 452.751C105.951 437.32 104.042 421.624 102.05 405.972C100.709 404.865 99.8231 403.269 99.0458 401.801L99.0423 402.024C98.9964 404.44 98.6547 407.224 95.6093 407.152C93.1513 407.093 92.0752 405.261 91.5245 403.235C90.4539 407.472 85.6968 407.704 84.3025 403.531C83.6802 401.848 83.7064 399.928 83.5211 398.163C82.5272 388.472 80.453 378.788 81.0488 369.029C80.4219 368.816 79.8757 368.337 79.6094 367.539C67.7347 331.6 57.1669 293.139 64.8756 255.217C72.5835 218.062 93.4584 176.469 132.907 165.933C140.893 163.917 149.006 163.233 157.193 162.712C158.374 160.429 159.137 157.831 159.292 155.246C159.34 154.5 159.304 153.76 159.302 153.014C159.299 152.324 159.594 151.501 159.456 150.857C159.423 150.7 159.636 150.648 159.693 150.793C159.867 151.246 160.221 151.473 160.461 151.855C161.057 152.933 161.215 154.214 161.373 155.419C161.964 160.125 160.618 164.966 157.769 168.744L157.67 168.874C156.787 170.055 155.105 172.192 153.367 171.169C151.852 170.274 152.822 168.453 153.726 167.477L153.794 167.405C155.017 166.134 156.043 164.776 156.877 163.295C153.173 164.281 149.498 165.367 145.805 166.395L145.63 166.491C142.738 168.065 138.441 169.749 138.82 173.651C146.51 196.836 180.531 202.794 201.558 197.259L201.893 197.168C205.916 196.059 209.945 194.278 212.683 191.031L212.796 190.895C217.656 185.146 217.284 175.647 211.198 170.927C207.583 167.969 202.589 166.398 198.079 165.374C199.391 167.55 202.291 169.086 202.819 171.664C202.955 172.548 202.465 173.389 201.489 173.408C199.01 173.456 197.181 170.811 195.88 169.033C193.164 165.314 191.623 160.819 191.294 156.239C191.13 154.011 191.541 152.004 192.099 149.878ZM356.151 191.708C356.02 191.618 356.092 191.351 356.27 191.424C363.01 194.214 365.761 204.209 360.687 209.714C359.003 211.489 356.479 212.515 354.18 211.584C351.355 211.106 349.704 208.256 349.342 205.63C349.318 205.507 349.455 205.452 349.533 205.529L349.547 205.545C350.614 206.86 352.297 207.74 353.831 208.413C354.261 208.18 354.731 207.995 355.204 207.886C355.876 207.734 356.564 208.261 356.5 208.946C359.673 208.366 360.945 204.594 361.041 201.732L361.043 201.646C361.172 197.685 359.379 194.023 356.151 191.708Z" fill="black"/>
<path fill-rule="evenodd" clip-rule="evenodd" d="M149.94 19.7041C151.401 19.4852 152.504 20.3896 153.028 21.6643L153.056 21.7329C153.225 22.1666 153.412 22.5885 153.614 23.0033C157.269 21.2139 162.484 21.6737 164.797 25.2975C166.448 27.8857 165.441 30.9573 164.819 33.7019L164.41 35.5103C165.2 36.0118 165.795 36.9098 165.767 37.8396L165.764 37.9112L165.598 40.433C166.125 39.8997 166.607 39.3191 167.037 38.7005C167.334 38.1577 167.654 37.6244 167.999 37.1078C170.025 34.0669 174.573 36.7096 172.901 39.9661C172.58 40.5942 172.219 41.1891 171.832 41.7626C171.395 42.6088 171.036 43.4786 170.761 44.3721C171.552 44.7158 172.16 45.479 172.224 46.6308C172.373 49.3209 170.958 51.5654 168.707 52.9756C168.044 53.3903 167.36 53.4709 166.74 53.3169C166.631 53.4638 166.522 53.6108 166.417 53.7601C167.315 54.4877 168.125 55.3172 168.821 56.2368C170.915 55.924 173.022 55.777 175.128 55.7723C177.703 54.5138 180.785 54.5398 183.552 55.0115C185.333 55.3149 187.043 55.905 188.796 56.3293C190.643 56.7748 192.52 56.7914 194.389 57.0948C196.745 57.4764 198.811 58.5619 200.11 60.2944C201.537 60.3371 203.038 60.9202 204.282 61.7118C207.18 63.5557 210.061 65.4257 212.951 67.2815C214.06 67.994 214.475 69.1314 214.271 70.4L214.257 70.4811L214.16 71.0073L214.388 71.3312C215.273 72.5777 216.235 73.8834 216.808 75.2593C217.867 76.7832 218.824 78.3807 219.672 80.0279C220.814 82.2416 221.757 84.588 222.396 86.996C222.555 87.6051 222.714 88.219 222.818 88.8399C222.968 89.7169 222.738 90.3971 222.612 91.2385C222.455 92.305 222.398 93.3858 222.232 94.4547C222.12 95.1634 221.517 95.5118 220.885 95.5307C221.123 97.3344 221.294 99.1499 221.458 100.951C221.688 103.525 221.845 106.106 221.98 108.687C222.678 109.699 224.106 110.5 225.136 110.778C226.564 111.159 228.06 110.744 229.409 110.259C230.257 109.953 230.952 111.017 230.539 111.728C229.24 113.961 226.462 113.951 224.357 112.963C223.467 112.546 222.685 111.941 222.106 111.154C222.142 111.903 222.18 112.652 222.218 113.404L222.253 114.084C222.681 122.032 223.605 130.252 222.108 138.121C219.517 151.752 208.215 162.13 194.408 162.936C187.162 163.359 181.129 161.224 178.129 160.032C175.128 158.841 176.294 156.412 178.377 157.106C181.965 158.302 188.556 160.084 194.455 159.315C208.358 157.501 220.147 150.566 218.936 120.699C218.764 116.463 218.235 112.226 218.121 107.99C218.012 103.85 218.052 99.7068 217.869 95.5686L217.808 94.1567C217.737 92.507 217.66 90.8495 217.537 89.1978C217.387 88.5579 217.264 87.9085 217.081 87.2804C216.584 85.5716 215.936 83.9101 215.131 82.3245C214.953 82.4596 214.753 82.5568 214.537 82.5947C212.896 82.8886 211.357 82.8057 209.821 82.1231C209.103 81.8078 208.472 81.3883 207.883 80.8693C207.603 80.6252 207.415 80.3882 207.268 80.1417C206.524 80.1535 205.781 79.9307 205.316 79.3975C204.785 78.7896 204.696 78.1618 204.904 77.5807L204.926 77.5227L204.874 77.5037C204.247 79.1225 202.998 80.547 201.627 81.5092C199.461 83.0356 196.752 83.4764 194.154 83.5167C191.285 83.5593 188.259 83.1185 185.428 82.6682C184.68 82.5497 183.937 82.4146 183.208 82.2321C183.179 82.2605 183.151 82.2937 183.12 82.3222C180.69 84.6425 177.273 85.2398 174.19 83.9149C172.409 83.1493 170.915 81.9169 169.595 80.5043C169.576 81.2438 169.538 81.9832 169.474 82.7156L169.447 83.0064C169.316 84.3704 169.063 85.8173 168.03 86.8017C166.36 88.3967 163.938 87.7568 162.012 86.7187C162.014 86.7685 162.014 86.8206 162.014 86.8727C162.534 88.6361 163.057 90.4018 163.579 92.1676L163.692 92.5437C164.072 93.7975 164.488 95.0528 164.603 96.365C164.821 98.8726 163.149 101.349 160.356 100.508C158.891 100.068 157.718 98.8389 156.592 97.8543L155.882 97.2419C157.718 103.231 158.991 109.434 159.11 115.684C159.117 116.023 158.825 116.279 158.502 116.29C157.746 116.321 156.934 116.172 156.174 115.871C156.131 115.869 156.089 115.866 156.044 115.859C154.747 115.672 153.543 115.205 152.481 114.515C152.726 115.29 152.835 116.122 152.771 116.992C152.754 117.203 152.424 117.276 152.377 117.044C151.764 114.036 148.237 111.764 145.197 112.339C141.934 112.958 139.531 115.76 138.942 118.947C138.31 122.372 139.519 126.333 141.759 128.975C142.789 130.193 144.145 131.21 145.756 131.466C146.492 131.582 147.256 131.542 147.971 131.333C148.275 131.243 148.56 131.118 148.85 130.999C149.273 130.829 149.767 130.803 150.166 130.622C151.071 130.217 151.98 131.049 151.522 131.976C151.123 132.784 150.764 133.329 150.102 133.746C150.638 134.4 151.125 135.31 151.306 135.555C152.227 136.797 153.163 137.97 154.213 139.105C155.281 140.257 156.447 141.309 157.68 142.283L158.198 142.692C159.385 143.632 160.419 144.502 161.256 145.85C161.917 146.914 161.062 148.358 159.824 148.341C155.953 148.287 153.139 144.893 151.135 141.928C150.85 141.504 150.581 141.056 150.332 140.596C150.242 140.74 150.142 140.875 150.03 140.999L150.251 141.591C150.907 143.336 148.083 144.476 147.264 142.847C146.667 141.667 145.976 140.544 145.207 139.482C144.753 139.418 144.309 139.143 144.062 138.787C143.438 137.884 142.737 136.972 142.146 136.01C141.818 135.699 141.481 135.401 141.136 135.109C141.037 135.197 140.934 135.284 140.837 135.377C140.405 136.36 139.871 137.259 139.208 138.105L139.066 138.285C137.797 139.882 136.143 141.516 134.097 141.906C133.473 142.025 132.872 141.25 133.425 140.755C134.857 139.47 136.55 138.595 137.871 137.162C138.521 136.455 139.119 135.677 139.632 134.862L139.749 134.673C139.835 134.533 139.923 134.393 140.013 134.251C139.417 133.846 138.821 133.438 138.225 133.03C136.584 134.43 134.447 135.07 132.632 136.229L132.451 136.346C130.81 137.441 129.081 135.019 130.397 133.689C131.847 132.229 133.058 130.488 134.343 128.865C133.739 127.754 133.453 126.441 133.346 125.114C133.303 124.738 133.27 124.362 133.237 123.986C132.316 124 131.39 123.685 130.606 123.142L130.309 122.931C129.357 123.235 128.357 123.382 127.4 123.356C125.149 123.289 124.227 120.723 125.635 119.099C127.072 117.44 129.587 117.077 131.58 117.883C131.644 117.85 131.71 117.814 131.775 117.779C131.68 117.343 131.701 116.947 131.809 116.6L131.777 116.388C131.339 115.717 131.051 114.951 130.942 114.141C130.855 113.5 130.873 112.865 131.022 112.232C131.071 112.021 131.174 111.803 131.253 111.583C131.091 111.175 130.995 110.753 130.966 110.329C130.921 110.275 130.875 110.22 130.833 110.16C129.844 108.775 130.044 107.106 130.985 105.985C130.989 105.913 130.996 105.842 131.005 105.771C130.95 105.647 130.9 105.522 130.854 105.396C129.934 104.471 129.259 103.357 129.385 101.977C129.459 101.165 129.793 100.434 130.299 99.8875C130.21 99.6225 130.201 99.3155 130.31 99.0593C129.502 96.9153 129.604 94.3331 130.186 91.9353C130.057 91.5703 129.991 91.1745 130.005 90.755C130.072 88.975 131.615 87.3397 133.444 87.361C133.664 87.3629 133.87 87.3916 134.068 87.4335L134.071 87.3911C134.141 86.8569 134.288 86.3632 134.503 85.9202C134.398 85.882 134.3 85.8273 134.214 85.7545C133.042 86.3783 131.802 86.8552 130.502 87.1802C129.546 87.4191 128.567 86.3347 129.161 85.4393C129.437 85.0238 129.741 84.6508 130.069 84.31C129.603 84.3126 129.13 84.3441 128.652 84.4055C127.792 84.5169 126.832 83.9315 126.274 83.1398C125.581 83.813 124.885 84.4837 124.189 85.1544C122.427 86.8585 119.765 85.6048 119.487 83.3579C118.962 83.2181 118.473 82.981 118.043 82.6421C115.264 83.8461 112.274 84.5074 109.218 84.633C107.023 84.7231 105.741 82.1728 106.767 80.3716C107.456 79.1628 108.311 78.0773 109.296 77.134C107.767 77.6009 106.187 77.9375 104.575 78.1532C103.703 78.2693 102.471 77.5488 102.122 76.7501C100.787 73.6784 100.901 70.4764 102.437 67.4877C102.497 67.3692 102.563 67.2554 102.627 67.1417C102.787 66.7459 102.96 66.3548 103.148 65.9708C101.257 64.0037 101.093 61.079 102.112 58.6306C101.704 57.9694 101.547 57.173 101.825 56.4525C102.616 54.3787 103.756 52.4636 105.195 50.8188C105.057 50.5533 104.936 50.2713 104.834 49.9679C104.024 47.5149 104.962 44.5546 106.855 42.8458C108.045 41.7697 109.413 41.1251 110.873 40.7127C111.488 39.6272 112.279 38.6483 113.2 37.8235C113.236 37.7453 113.272 37.6671 113.312 37.5889C114.747 34.8917 117.359 33.446 120.159 33.1118C120.268 32.0571 120.981 31.0498 122.016 30.7227C122.301 29.8102 122.726 28.938 123.31 28.1464C124.229 26.8997 125.757 26.3119 127.196 27.1296C127.984 27.5776 128.739 28.0919 129.447 28.6607C129.765 28.5119 130.125 28.4157 130.532 28.385L130.635 28.3787L132.976 28.2602C133.957 27.8264 134.936 27.3714 135.916 26.9282C136.505 26.4423 137.163 26.037 137.88 25.736C138.693 25.3971 139.524 25.2051 140.357 25.1411C141.034 24.9207 141.716 24.7264 142.409 24.5747C144.038 24.2192 145.744 24.0201 147.435 24.0367C147.469 23.5999 147.486 23.1579 147.483 22.7107L147.48 22.4866C147.442 21.0527 148.589 19.9079 149.94 19.7041ZM148.299 134.429C148.066 134.479 147.831 134.519 147.596 134.547C147.667 134.723 147.739 134.898 147.807 135.074C147.997 135.18 148.19 135.282 148.382 135.377C148.325 135.055 148.292 134.73 148.299 134.429ZM136.098 130.81L135.94 131.101C135.914 131.148 135.889 131.195 135.864 131.241C136.199 131.215 136.536 131.222 136.869 131.26L136.868 131.225C136.825 131.21 136.782 131.197 136.741 131.177C136.512 131.067 136.299 130.944 136.098 130.81ZM142.692 117.573C144.793 117.695 146.573 118.016 148.484 118.934L148.648 119.014C150.337 119.85 153.13 121.396 152.894 123.612C152.828 124.242 152.37 124.906 151.648 124.856C149.669 124.721 148.539 122.73 147.199 121.488C145.848 120.237 144.188 118.95 142.552 118.089C142.321 117.968 142.412 117.585 142.663 117.573H142.692ZM133.164 88.3755C132.66 88.3921 132.829 88.8803 133.088 88.4727C133.109 88.4395 133.135 88.4063 133.164 88.3755ZM160.341 55.7814C155.573 55.9065 150.774 58.7163 147.202 61.5564C144.094 64.0272 141.411 66.9661 139.035 70.1338C138.424 71.7113 137.899 73.3218 137.455 74.9441C137.163 76.0154 136.98 77.0985 136.736 78.1793L136.66 78.5106C136.468 78.869 136.325 79.2546 136.221 79.653C136.654 80.0863 137.215 80.3965 137.834 80.5437C138.033 80.5911 138.199 80.6937 138.329 80.8298C138.827 80.0007 139.262 79.1257 139.515 78.198L139.525 78.1551C140.482 76.5911 141.521 75.0757 142.635 73.6121C145.708 69.5711 149.092 65.888 153.16 62.8234C156.245 60.5007 159.694 58.6805 163.361 57.4978C162.463 56.7752 161.444 56.2035 160.341 55.7814Z" fill="black"/>
<path fill-rule="evenodd" clip-rule="evenodd" d="M203.327 143.666C201.577 144.172 199.699 144.217 197.916 143.695C196.299 143.221 194.638 142.178 193.447 140.799C192.39 139.573 191.705 138.084 191.732 136.494C191.735 136.313 191.8 136.161 191.9 136.044C192.008 135.917 192.158 135.83 192.319 135.792C192.485 135.754 192.66 135.767 192.809 135.835C192.945 135.896 193.06 136 193.133 136.152C193.316 136.392 193.498 136.628 193.681 136.858C195.152 138.671 196.576 140.026 198.788 140.511C199.988 140.775 201.187 140.658 202.287 140.256C203.464 139.825 204.528 139.068 205.362 138.099C205.739 137.661 206.184 137.483 206.619 137.48C207.112 137.476 207.6 137.705 207.967 138.07C208.328 138.429 208.569 138.918 208.591 139.428C208.61 139.876 208.464 140.344 208.074 140.762C206.79 142.138 205.127 143.146 203.327 143.666ZM203.273 120.962C205.066 122.05 207.799 124.587 205.87 127.284C203.599 129.662 200.329 126.935 198.718 125.702C197.224 124.747 195.545 127.204 196.932 128.32C208.574 136.923 213.299 121.247 204.18 119.683C203.176 119.511 202.803 120.626 203.273 120.962ZM186.497 116.175C185.921 115.807 185.243 115.681 184.491 116.022C183.904 116.289 182.874 117.177 182.157 118.345C181.667 119.144 181.319 120.082 181.392 121.058C181.408 121.285 181.324 121.452 181.192 121.576C181.087 121.673 180.936 121.745 180.759 121.767C180.608 121.786 180.44 121.769 180.303 121.726C180.042 121.645 179.904 121.476 179.852 121.339C179.35 120.008 179.566 118.524 180.129 117.185C180.888 115.378 182.266 113.864 183.169 113.376C184.715 112.54 186.538 112.502 188.086 113.353C189.403 114.078 190.227 115.247 191.046 116.439C191.22 116.693 191.393 116.944 191.572 117.191C191.93 117.687 191.966 118.178 191.827 118.599C191.673 119.065 191.282 119.459 190.792 119.665C190.339 119.856 189.814 119.883 189.349 119.687C188.956 119.522 188.596 119.199 188.368 118.652C187.984 117.732 187.344 116.716 186.497 116.175ZM215.771 118.224C215.376 118.429 215.067 118.491 214.629 118.36C214.387 118.288 214.148 118.149 213.96 117.962C213.775 117.776 213.641 117.546 213.589 117.29C213.461 116.659 213.115 116.069 212.622 115.684C212.2 115.354 211.668 115.18 211.079 115.278C210.442 115.384 209.835 115.792 209.418 116.272C209.278 116.433 209.169 116.616 209.059 116.797C208.853 117.136 208.653 117.451 208.369 117.7C208.261 117.795 208.099 117.861 207.942 117.861C207.878 117.861 207.814 117.85 207.752 117.831C207.118 117.196 206.996 116.715 207.017 116.237C207.038 115.737 207.236 115.23 207.556 114.757C208.306 113.647 209.73 112.737 210.69 112.531C212.006 112.249 213.313 112.588 214.361 113.321C215.439 114.076 216.237 115.247 216.486 116.568C216.546 116.886 216.521 117.229 216.4 117.527C216.281 117.817 216.074 118.066 215.771 118.224ZM189.399 104.344C188.609 105.112 187.675 105.231 186.729 105.337C186.204 105.396 185.784 105.444 185.372 105.537C184.237 105.793 183.116 106.177 182.093 106.732C181.024 107.311 179.858 108.01 179.02 108.905C178.821 109.118 178.633 109.342 178.445 109.566C178.273 109.77 178.108 109.967 177.933 110.156C177.733 110.374 177.543 110.602 177.354 110.83C177.238 111.022 177.214 111.069 177.191 111.119C177.155 111.192 177.114 111.275 177.067 111.364C177.003 111.485 176.927 111.618 176.848 111.739C176.717 111.96 176.646 112.02 176.585 112.047C176.484 112.092 176.388 112.115 176.295 112.103C176.208 112.091 176.126 112.049 176.044 111.981C175.639 111.639 175.519 111.078 175.532 110.483C175.55 109.579 175.884 108.578 176.192 107.963C176.908 106.534 177.901 105.049 179.095 103.982C180.457 102.765 181.947 101.843 183.659 101.208C184.723 100.813 185.954 100.45 187.113 100.496C187.948 100.529 188.744 100.777 189.402 101.395C189.806 101.774 189.999 102.314 189.999 102.853C189.999 103.403 189.798 103.956 189.399 104.344ZM217.377 111.375C217.327 111.457 217.257 111.514 217.18 111.548C217.099 111.584 217.008 111.594 216.922 111.579C216.835 111.565 216.753 111.526 216.688 111.466C216.625 111.409 216.578 111.333 216.556 111.24C216.032 108.942 215.014 107.232 212.841 106.129C211.773 105.587 210.543 105.242 209.38 104.968C209.042 104.888 208.685 104.836 208.325 104.784C207.197 104.619 206.062 104.431 205.327 103.522C204.884 102.974 204.698 102.273 204.803 101.632C204.902 101.029 205.255 100.476 205.897 100.144C207.496 99.3188 209.483 100.129 211.098 100.818C211.218 100.869 211.335 100.92 211.45 100.968C213.029 101.633 214.469 102.511 215.653 103.767C216.592 104.763 217.463 106.235 217.813 107.75C218.105 109.011 218.036 110.297 217.377 111.375Z" fill="black"/>
</svg>
