<svg width="200" height="200" viewBox="0 0 391 780" fill="none" xmlns="http://www.w3.org/2000/svg">
<path fill-rule="evenodd" clip-rule="evenodd" d="M159.791 150.501C160.054 150.607 160.233 151.006 160.339 151.605C160.631 151.696 160.881 151.911 160.956 152.235C161.178 153.19 160.919 154.185 160.72 155.136L160.697 155.245C160.508 156.166 160.277 157.081 159.995 157.978L159.954 158.206C159.267 161.914 157.943 165.441 156.389 164.842L156.748 165.495C162.848 176.549 180.274 206.229 193.879 201.999C201.802 198.828 201.688 188.522 201.109 181.349C195.226 184.952 194.126 157.374 195.332 154.327C196.292 153.622 196.755 159.966 197.112 160.84C197.892 164.32 198.848 167.755 199.745 171.206C201.642 171.581 203.436 172.336 205.022 173.417C205.098 173.461 205.176 173.5 205.25 173.545C206.201 174.124 206.944 174.861 207.606 175.678C208.355 176.514 208.995 177.429 209.599 178.37C210.928 179.877 212.194 181.44 213.503 182.963C214.124 183.686 214.76 184.387 215.41 185.07L215.911 185.491C215.995 185.56 216.079 185.63 216.163 185.699C231.193 195.069 241.599 209.088 241.628 227.349C241.673 238.757 243.315 250.151 246.441 261.122C248.946 271.843 257.039 282.8 252.664 293.996C257.604 293.206 258.063 299.547 261.153 301.944L262.123 302.206C266.463 303.372 270.444 304.345 274.884 305.021C278.976 305.512 283.707 304.973 287.553 306.816C288.864 307.745 288.395 309.421 288.497 310.804C298.202 306.84 306.918 301.364 315.961 296.212L316.264 296.104C319.611 294.917 325.582 293.135 328.332 295.74C329.94 297.629 328.316 299.316 326.886 300.581C324.196 302.962 321.341 305.147 318.585 307.448C326.013 308.067 333.465 307.573 340.811 306.37L341.212 306.304C343.012 306.011 345.134 305.312 346.92 305.975C352.709 309.201 346.01 312.967 342.902 314.852C345.27 314.655 347.634 314.361 350.008 313.955C350.952 313.794 351.634 314.33 351.738 315.27C351.798 319.778 345.851 320.021 342.793 321.745L343.038 321.687C345.038 321.224 347.912 320.818 348.539 323.306C349.193 326.361 345.069 327.595 342.953 328.409C326.467 333.924 308.556 335.598 291.306 333.512C290.04 339.446 279.292 351.8 273.374 353.58C266.818 355.212 258.932 350.039 252.96 347.533C237.657 339.761 223.479 326.941 219.115 309.93C215.447 336.305 216.929 362.896 222.435 388.847C223.326 390.87 224.267 392.861 225.325 394.802C225.645 394.854 225.915 395.067 225.977 395.499C226.01 395.735 226.058 395.965 226.112 396.192C227.165 397.979 228.32 399.696 229.392 401.473C229.613 401.84 229.832 402.221 230.032 402.611C237.169 411.016 228.47 421.845 220.691 426.376C263.86 496.62 235.978 585.141 265.227 659.564L265.292 659.776C266.402 663.316 269.783 670.602 264.893 672.269C263.34 675.77 255.517 676.183 252.041 677.279C253.924 682.727 256.019 688.114 258.828 693.164L258.879 693.186C259.998 692.365 262.398 691.516 263.389 692.411C263.631 692.442 263.871 692.509 264.106 692.626C265.641 693.388 266.875 694.844 268.343 695.76C269.137 696.256 269.963 696.706 270.813 697.099C271.604 697.465 272.444 697.707 273.09 698.31C273.294 698.5 273.345 698.742 273.295 698.965C273.805 699.229 274.314 699.494 274.821 699.761L275.097 699.588C279.583 696.797 283.191 695.286 276.665 700.647C279.003 701.727 281.401 702.671 283.815 703.555C285.648 702.675 287.604 702.033 289.622 701.944C289.984 702.393 287.211 704.123 286.754 704.6C299.029 708.844 312.531 712.168 321.75 721.921L321.957 722.154C323.527 723.909 325.823 726.254 324.803 728.678C327.469 729.801 328.781 733.484 328.016 736.401C324.168 749.181 265.189 744.137 251.943 744.471C241.468 743.137 213.073 745.325 207.248 737.363C205.286 735.156 205.742 730.866 208.532 729.705C206.595 728.22 208.715 722.651 208.72 720.15L208.764 719.861C209.061 717.994 210.346 710.687 211.68 705.581C211.708 705.178 211.761 704.766 211.826 704.351L211.868 704.087C212.133 702.46 212.54 700.805 213.593 699.495C214.349 698.556 215.397 697.975 216.534 697.766C216.838 695.821 217.088 693.873 217.303 691.921C217.454 689.626 217.512 687.326 217.486 685.027C217.473 683.865 217.442 682.704 217.385 681.544C217.343 680.691 217.392 679.676 217.175 678.804C217.031 678.951 216.825 679.031 216.594 678.952C216.104 678.784 215.653 678.475 215.203 678.222C215.186 678.213 215.173 678.201 215.158 678.191C212.756 679.748 211.018 673.084 210.084 671.275C188.561 609.62 205.555 538.663 170.664 480.844C165.847 491.167 161.708 500.637 157.072 511.033C142.592 543.496 124.718 600.68 112.73 635.055C109.469 642.081 105.635 648.873 101.078 655.147C99.6217 656.797 98.6442 659.224 96.5353 660.11L96.3508 660.139C95.7879 661.189 95.0066 662.074 93.8448 662.044C93.5598 662.037 93.2691 662.005 92.9756 661.954C91.9458 669.107 90.651 676.305 88.9297 683.344L89.1619 683.247C90.2886 682.781 91.4734 682.385 92.6298 682.489C95.436 683.198 94.3969 685.649 92.1788 686.457C94.9398 687.313 96.8082 689.729 98.8584 691.74C100.591 690.808 102.533 690.324 104.609 690.528C104.927 690.559 105.169 690.698 105.337 690.888C105.456 690.889 105.572 690.895 105.682 690.914L105.456 691.05C105.824 691.669 105.561 692.611 104.609 692.616C103.861 692.621 103.141 692.688 102.445 692.817C101.962 693.099 101.481 693.384 101.007 693.682C102.607 695.093 104.31 696.394 106.064 697.584C106.991 697.112 107.97 696.715 108.989 696.397C110.305 695.987 110.879 698.075 109.558 698.454C109.277 698.535 108.999 698.624 108.724 698.719L108.452 698.883C108.389 698.921 108.323 698.961 108.254 699.001C120.84 707.939 142.115 706.807 147.87 723.544C148.061 724.175 147.962 724.72 147.695 725.149C148.942 726.292 149.518 728.346 149.237 729.922L149.261 730.054C149.475 731.33 149.167 732.449 147.795 732.74C138.642 733.592 129.511 734.133 120.318 734.3L119.576 734.306C106.405 734.395 42.3423 733.917 39.4526 725.469C38.6819 723.906 38.4445 721.479 39.5721 720.085C39.7029 719.334 39.9606 718.651 40.4187 718.116C38.5632 716.244 39.4759 711.526 39.2488 709.149C39.6561 701.216 41.2677 692.709 46.123 686.217C46.2023 686.114 46.2982 686.051 46.3973 686.02C47.2451 685.169 48.3592 684.631 49.6331 684.559C49.6727 684.46 49.7131 684.361 49.7518 684.263C50.7421 681.93 51.6828 679.555 52.6173 677.169C53.3108 674.457 54.0342 671.753 54.7588 669.062C55.4829 666.375 56.1913 663.684 56.8843 660.988C57.4362 658.839 57.911 656.418 58.8662 654.364C58.8403 654.277 58.8153 654.189 58.7868 654.102L57.7929 653.7C51.2824 651.057 40.9667 646.599 43.2332 643.655C67.3856 593.53 91.0275 522.17 113.192 470.205C113.538 469.186 113.904 468.173 114.306 467.17C115.285 464.727 116.277 462.287 117.282 459.855L117.888 458.396L127.544 435.191C128.554 432.762 129.694 430.346 130.49 427.836C131.258 425.419 131.464 423.014 130.006 420.814C128.701 418.845 126.862 417.216 125.391 415.367C124.279 413.968 123.195 412.475 122.223 410.906C121.34 409.743 120.603 408.413 119.945 407.341C118.89 405.623 117.549 403.721 116.783 401.737C115.796 401.115 114.807 400.496 113.814 399.884C112.1 398.924 110.413 397.92 108.771 396.832C106.697 395.601 104.61 394.391 102.507 393.208C101.747 392.832 100.988 392.457 100.227 392.083C97.9481 392.28 91.6523 389.475 89.5075 387.576C89.2624 387.527 89.0185 387.471 88.7761 387.411C88.6792 388.623 88.2826 389.721 87.3585 390.535C81.213 393.581 73.3801 379.786 71.2213 375.184C66.9313 379.369 77.1676 400.075 80.4741 404.308L80.6505 404.57C81.535 405.894 82.4621 407.38 83.7166 408.358L83.8432 408.454C84.7031 409.089 84.8627 410.082 84.1612 410.916C78.2056 416.287 71.954 404.495 68.6913 400.61C55.2623 380.867 46.6815 356.843 47.0577 332.826C40.9485 330.784 32.4911 329.787 32.8015 321.508C32.4892 315.26 31.3578 309.078 31.1379 302.824C31.0742 301.386 35.5499 302.099 36.56 302.251C35.0721 287.883 37.3202 273.295 41.3297 259.485C51.8562 224.15 95.2035 160.464 137.869 158.165C137.831 158.096 137.849 158.002 137.945 157.977C139.876 157.476 142.01 157.557 143.994 157.62C146.06 157.685 148.159 157.699 150.214 157.932C152.343 158.173 154.598 158.955 156.028 160.502L156.524 159.609C157.099 158.567 157.653 157.514 158.071 156.363C158.283 155.782 158.45 155.18 158.601 154.571C158.772 153.703 158.815 152.799 159.227 152.01C159.238 151.989 159.251 151.972 159.263 151.953C159.411 151.456 159.58 150.969 159.791 150.501ZM212.156 729.675C211.546 730.294 210.489 730.564 209.552 730.268C206.441 739.096 223.321 738.542 228.739 739.039C234.516 739.654 339.746 745.12 321.95 732.176C301.071 740.123 231.239 740.999 212.156 729.675ZM263.403 694.67C261.998 696.117 259.88 696.76 258.373 698.141C254.113 701.739 250.687 706.802 244.799 707.755C237.065 709.197 230.092 705.385 223.174 702.366C222.312 702.325 221.414 701.961 220.531 701.692C220.499 701.756 220.468 701.82 220.433 701.879C220.39 701.862 220.344 701.848 220.292 701.84C220.215 701.827 220.143 701.819 220.067 701.808C219.89 701.666 219.702 701.547 219.509 701.446C219.392 701.429 219.275 701.414 219.16 701.407C217.734 701.32 216.186 701.651 215.271 702.832C215.193 702.932 215.122 703.038 215.053 703.146C214.61 704.715 214.553 706.614 214.767 707.941C214.836 708.375 214.655 708.802 214.349 709.048C214.075 715.615 213.335 722.211 212.818 728.691C215.406 729.62 218.091 730.327 220.778 730.775C239.323 733.051 258.066 734.109 276.753 733.537C287.878 733.135 298.986 732.143 309.995 730.492C313.554 730.158 317.197 728.783 320.753 729.338C320.905 729.053 321.141 728.808 321.469 728.642C312.353 716.176 296.772 712.806 283.189 707.341C280.945 708.773 279.564 711.756 277.065 712.644C276.095 712.79 274.746 712.219 274.888 710.99C275.291 708.474 278.013 707.326 279.846 705.865C277.879 704.948 275.95 703.951 274.068 702.843C272.219 704.507 270.032 705.773 268.301 707.547C269.285 709.946 265.183 709.739 265.137 707.186C265.421 704.362 269.902 703.166 271.903 701.519C268.777 699.62 265.985 697.224 263.403 694.67ZM43.1664 719.351C43.0574 719.566 42.8796 719.761 42.6162 719.913C42.1603 720.176 42.3794 721.569 42.4023 722.038L42.4036 722.073C42.4286 722.915 42.4813 723.756 42.5544 724.595C43.3239 725.288 44.3078 725.815 45.401 726.132C78.6934 731.436 112.625 731.867 146.238 729.941C146.084 729.049 145.431 728.314 144.852 727.57C123.602 729.374 101.841 727.487 80.5554 725.729C68.1114 724.096 55.0732 723.42 43.1664 719.351ZM91.6361 686.707C86.1491 688.593 81.0436 691.21 76.1803 694.344C74.373 695.518 72.6481 696.865 70.5705 697.538C63.377 699.7 52.5919 689.315 52.419 689.199C49.9208 687.519 47.2719 689.085 45.9127 691.413C45.7871 691.628 43.7036 703.533 43.7665 709.364C43.3927 711.346 44.3902 714.587 43.8594 716.748C44.2767 717.25 44.8716 717.486 45.2722 718.011C45.4173 718.2 45.3762 718.415 45.2509 718.577C64.6765 720.174 83.9892 723.203 103.507 723.842C116.866 724.548 130.249 724.385 143.61 724.224C140.57 715.312 130.216 712.958 122.308 710.025C116.333 707.881 110.832 704.688 105.991 700.583C103.892 702.054 102.237 704.116 100.75 706.188C100.074 707.029 98.6862 707.665 97.9626 706.499C97.2173 705.288 98.6722 703.758 100.469 702.418C101.413 701.021 102.605 699.83 103.977 698.85C102.46 697.5 100.999 696.093 99.6312 694.598C96.7939 696.517 94.7094 699.278 92.6685 701.958C91.6876 703.026 89.8533 701.614 90.6579 700.41C91.3027 699.58 92.0284 698.814 92.8055 698.097C93.9768 695.89 95.6632 693.853 97.7092 692.442L97.5531 692.244C95.8441 690.054 94.3666 687.426 91.6361 686.707ZM43.2926 717.952C43.2455 718.01 43.1962 718.066 43.1434 718.12C43.1905 718.215 43.2265 718.316 43.2531 718.418L43.7516 718.458C43.5785 718.314 43.426 718.14 43.2926 717.952ZM250.216 677.64C240.039 679.559 229.525 680.297 219.252 678.712C220.442 685.337 221.187 692.003 220.797 698.731C236.156 703.158 242.538 710.54 255.318 695.786C254.7 694.848 254.344 693.695 253.929 692.583C252.163 687.759 250.704 682.77 250.216 677.64ZM63.281 655.912C63.1359 656.233 62.8742 656.496 62.4971 656.613C62.3627 657.206 62.2237 657.799 62.0755 658.39C61.8262 661.442 60.6725 664.468 59.4793 667.284L59.2359 667.867C58.4488 670.209 57.6238 672.546 56.8099 674.886C56.1934 677.317 55.6503 679.768 55.0827 682.21C54.9732 683.867 54.7376 685.51 54.3754 687.133C54.3586 687.209 54.336 687.279 54.3111 687.346C54.8799 687.599 55.4289 687.892 55.9467 688.189C71.5298 699.878 68.8385 692.063 83.8006 685.518C83.7146 684.889 84.0299 684.322 84.2871 683.671L84.3202 683.586C84.3359 683.545 84.3513 683.503 84.367 683.462C84.3423 683.214 84.3568 682.948 84.4226 682.664C85.938 676.475 88.0481 670.394 90.0231 664.339C90.3392 663.427 90.7051 662.536 91.0792 661.646C81.5924 661.524 72.2087 659.002 63.281 655.912ZM59.1766 658.919C58.993 659.728 58.7931 660.525 58.6109 661.296L58.3423 662.445C58.7244 661.283 59.0258 660.105 59.1766 658.919ZM149.422 159.675C146.12 160.477 142.736 160.805 139.416 161.47C116.529 164.195 98.9824 180.398 83.8678 196.486C55.2363 226.51 38.5781 263.453 39.8076 305.206C50.0322 307.066 60.1514 309.788 70.5689 310.382C69.0549 308.093 71.5903 305.229 72.4631 303.037C87.5311 273.972 99.1655 241.887 108.613 211.288L108.356 212.624C105.39 227.981 101.934 243.273 96.6602 258.025C98.188 256.526 123.285 236.598 121.324 243.187C113.656 249.17 104.995 253.912 96.9609 259.403C106.514 291.262 92.7031 323.542 90.0791 355.414C89.4199 362.501 89.4771 369.637 88.591 376.697C88.254 377.496 88.6088 379.12 88.1127 379.879C88.4801 381.753 89.2529 383.461 90.8476 384.923C91.519 385.539 92.2519 386.072 93.0223 386.548C94.9458 386.838 96.8777 387.577 98.4442 388.262C101.93 389.786 104.997 392.033 108.113 394.179L108.196 394.236C113.22 396.813 118.238 399.74 123.275 402.793L123.5 402.911C125.374 403.892 127.289 404.778 128.922 406.139C128.996 406.201 129.046 406.272 129.078 406.347L132.138 408.233C156.644 423.331 181.911 438.263 210.642 427.486C218.715 424.24 230.45 417.663 228.943 407.493C228.646 406.517 228.194 405.601 227.683 404.709C227.541 404.518 227.395 404.329 227.248 404.144C226.134 402.739 224.888 401.45 223.922 399.933C223.528 399.316 223.176 398.68 222.867 398.026C222.649 397.96 222.455 397.807 222.333 397.54C220.95 394.529 219.596 391.513 218.334 388.449C203.039 335.217 221.604 278.022 226.856 224.332C227.22 221.257 227.756 218.152 227.755 215.055C227.755 214.91 227.966 214.914 227.977 215.055C229.83 228.758 228.425 242.589 226.663 256.231C224.408 273.297 221.446 290.291 219.41 307.388C224.821 324.621 239.976 337.073 255.888 344.54C258.595 345.824 261.364 346.969 264.186 347.976L264.376 348.042C267.477 349.125 270.977 350.8 273.969 348.605C279.711 344.715 283.765 338.778 287.486 333.061C285.981 332.898 284.473 332.757 282.965 332.654C279.261 336.883 274.723 340.474 269.934 343.408C267.982 344.525 265.765 344.052 264.863 341.866C264.011 339.804 265.054 337.395 265.809 335.406L265.918 335.116C269.74 324.826 276.376 315.396 285.337 308.952C278.577 307.603 271.555 307.644 265.069 304.977C265.423 305.348 264.959 305.763 264.734 306.077C264.814 306.687 264.37 307.133 263.825 307.296C258.533 314.199 254.523 322.373 253.685 331.126C253.908 334.108 251.236 337.551 248.662 334.421C246.649 325.706 254.567 312.088 261.529 306.71C254.547 301.927 256.582 295.023 252.199 294.991C251.067 297.162 249.589 299.239 247.726 300.852C246.884 301.535 245.862 302.05 244.958 302.656C244.008 303.294 243.018 301.891 243.771 301.121L243.97 300.883C246.828 297.469 250.223 294.114 250.813 289.496C251.667 283.808 249.107 278.047 247.144 272.852C243.381 262.893 240.886 252.53 239.67 241.955C238.293 232.481 239.968 222.653 236.719 213.484C236.073 210.931 235.144 208.605 234.006 206.447C233.978 206.425 233.952 206.402 233.927 206.373C232.576 204.813 231.496 203.077 230.236 201.442C228.918 199.732 227.489 198.105 225.976 196.565C223.447 193.992 220.655 191.845 217.744 189.778C217.69 189.758 217.636 189.733 217.581 189.701C217.036 189.379 216.512 188.989 216.007 188.56L215.958 188.525C214.265 187.351 212.538 186.076 211.217 184.482C209.92 182.917 208.997 181.091 207.938 179.367C206.491 177.604 205.112 175.716 203.366 174.248C202.379 173.685 201.352 173.155 200.471 172.451C200.326 172.391 200.18 172.334 200.031 172.28C200.406 173.808 200.974 175.214 201.486 176.767C202.228 176.454 203.242 176.801 203.367 177.941L203.413 178.366C204.158 185.349 204.534 193.799 200.421 199.845C191.362 212.956 177.832 201.762 170.99 192.543C164.849 185.19 159.686 177.012 155.874 168.222L155.811 168.106C155.101 166.761 153.562 162.659 153.128 160.688C152.028 160.11 150.691 159.83 149.422 159.675ZM120.421 404.044C120.394 404.078 120.362 404.108 120.328 404.134C121.613 405.956 122.837 407.839 124.098 409.667C123.064 407.98 122.092 406.279 121.231 404.56C120.962 404.386 120.691 404.215 120.421 404.044ZM48.5202 333.279C53.4301 359.887 60.4467 387.882 79.9978 407.776C73.9131 399.221 69.1813 389.233 67.8046 378.773C67.7476 375.965 68.7719 372.999 71.884 372.584C72.4151 372.513 72.8186 372.988 73.0083 373.41L73.0265 373.452C74.2508 376.369 75.8427 379.143 77.7276 381.685L77.9124 381.926C79.3349 383.762 85.3723 391.246 86.2146 387.668C85.598 369.584 66.8737 362.128 63.8072 337.221C58.5606 336.666 53.5819 334.677 48.5202 333.279ZM88.7737 386.058C88.7938 386.341 88.8036 386.623 88.7993 386.899C89.0774 386.785 89.3633 386.693 89.6557 386.621C89.3588 386.438 89.0653 386.25 88.7737 386.058ZM88.4952 384.109C88.5981 384.629 88.685 385.153 88.7384 385.672C89.2728 385.842 89.8014 386.028 90.3272 386.221C90.0085 385.935 89.7052 385.632 89.421 385.31C89.0897 384.935 88.779 384.531 88.4952 384.109ZM95.7312 260.664C91.896 271.348 87.6003 281.867 82.8042 292.157C79.5839 298.179 77.4353 305.195 72.979 310.42C72.9356 310.462 72.8919 310.501 72.8472 310.537L72.921 310.54C74.2489 310.599 81.464 311.308 77.7604 312.936C76.3224 318.592 74.4384 324.119 72.8631 329.737L72.828 329.9C72.2517 332.617 71.5229 338.091 67.6552 336.264C67.2356 336.585 66.7319 336.81 66.1902 336.961C67.9286 352.188 77.578 362.102 85.2059 374.534C83.5008 367.973 83.9991 361.121 84.5928 354.421L84.74 352.773C87.8917 322.055 99.4579 291.848 95.7312 260.664ZM127.765 358.306C121.548 350.571 90.9701 273.991 112.579 320.386C120.259 336.537 126.581 353.829 139.251 366.915C140.127 367.855 138.973 369.506 137.835 368.747C133.745 366.022 130.435 362.407 127.765 358.306ZM105.634 265.748C105.608 265.623 105.768 265.555 105.838 265.662C114.146 282.032 120.078 299.624 129.465 315.499C135.131 325.329 141.931 334.492 149.717 342.755C150.302 343.375 149.422 344.233 148.788 343.682C126.561 323.215 115.755 293.464 105.634 265.748ZM269.456 333.145L269.443 333.147L269.238 333.675C269.169 333.852 269.098 334.032 269.027 334.213C269.061 334.198 269.095 334.184 269.129 334.17C269.202 334.097 269.275 334.023 269.348 333.945C269.332 333.675 269.365 333.406 269.456 333.145ZM36.6484 302.894C35.5198 303.336 34.1334 303.419 32.8858 303.527C34.2825 310.094 35.4883 316.711 36.7524 323.296C37.3369 325.318 38.711 326.027 40.6128 326.668L42.1413 327.156C49.2771 329.438 56.4531 331.782 63.811 333.181C64.3283 332.845 65.0631 332.862 65.4065 333.4C65.7644 333.433 66.1318 333.453 66.4949 333.488C68.4608 326.242 71.8249 319.221 76.3265 313.21C63.744 313.615 51.0706 310.303 39.1007 306.601C38.616 306.836 37.9776 306.689 37.7731 306.133L37.5888 306.08C35.5793 305.485 32.9148 304.024 37.1379 304.766C36.8828 304.172 36.7412 303.534 36.6484 302.894ZM325.97 297.532C317.629 296.156 311.255 302.901 304.137 305.996C299.876 307.821 288.519 313.48 284.39 311.597C278.729 317.035 273.95 323.389 270.608 330.518C271.519 330.463 272.43 330.423 273.342 330.394C274.992 329.865 276.754 329.838 278.467 330.347C295.631 330.536 312.806 333.864 329.9 329.646L330.294 329.573C333.805 328.908 345.794 326.379 346.477 323.9C346.298 322.821 343.074 323.961 342.454 324.083C337.527 325.052 332.521 325.514 327.529 325.999C326.14 326.133 326.158 323.977 327.529 323.84C333.538 323.243 339.232 320.992 344.746 318.65C345.332 318.39 346.885 317.853 347.96 317.156C342.865 318.02 337.615 318.17 332.46 317.987C330.685 317.758 330.56 315.067 332.46 315.12C335.94 315.504 339.265 313.79 342.106 311.98L342.724 311.579C347.46 308.498 347.129 308.365 341.144 309.51C332.35 311.108 323.45 311.049 314.568 310.439C313.301 310.418 312.426 308.716 313.474 307.804C317.564 304.28 321.948 301.137 325.97 297.532ZM285.656 310.368L285.559 310.459C285.355 310.655 285.187 310.828 285.094 310.92L285.056 310.956C284.93 311.074 284.808 311.196 284.684 311.315C285.229 311.497 285.831 311.508 286.451 311.412C286.077 311.178 285.799 310.796 285.656 310.368ZM128.944 282.158L128.991 282.209C134.356 288.002 139.794 297.399 144.239 304.808C144.825 310.882 131.683 285.683 128.965 282.184L128.944 282.158ZM263.97 304.575C264.022 304.639 264.072 304.705 264.12 304.773L264.192 304.875L264.307 304.804C264.35 304.779 264.394 304.763 264.44 304.752C264.283 304.694 264.126 304.634 263.97 304.575ZM239.422 284.796C244.249 285.552 234.378 291.538 233.076 292.395C232.241 292.712 224.309 299.248 224.79 297.126L225.015 296.84C228.709 292.147 233.744 286.782 239.422 284.796ZM50.5882 272.252C52.3736 269.383 62.0905 273.161 65.162 273.613C66.8885 274.068 68.5963 274.606 70.3414 274.988C71.705 275.482 78.0636 275.003 75.73 277.694C73.295 279 70.116 277.99 67.6223 277.297C62.661 275.944 57.6825 274.366 52.6019 273.615C52.4494 273.539 52.4401 273.591 52.5736 273.77C53.6665 276.194 55.9649 278.468 58.5538 279.249C58.7326 279.301 58.6574 279.573 58.4764 279.527C55.6507 278.968 49.0699 275.839 50.5882 272.252Z" fill="black"/>
<path fill-rule="evenodd" clip-rule="evenodd" d="M235.526 120.803C234.061 111.725 233.655 102.494 231.736 93.4877C229.931 85.0125 226.556 77.0037 220.659 70.5428C215.382 64.7621 208.559 60.5173 201.235 57.8272C186.967 52.5869 170.556 53.772 156.753 59.8894C143.834 65.613 133.529 76.2026 127.523 88.9111C123.621 97.1685 121.66 105.947 120.788 115.008C119.821 125.074 119.717 135.244 119.323 145.345C119.275 146.592 119.206 147.839 119.19 149.086C119.171 150.451 119.724 151.647 120.175 152.918C120.206 153.008 120.251 153.093 120.306 153.174C119.966 153.216 119.627 153.266 119.287 153.321C118.907 153.38 118.924 153.996 119.287 154.07C122.363 154.695 125.524 154.783 128.651 154.937C131.893 155.098 135.14 155.186 138.386 155.295C141.552 155.402 144.717 155.508 147.883 155.615C149.546 155.672 151.208 155.729 152.87 155.783C153.661 155.809 154.452 155.838 155.245 155.864C155.64 155.878 156.036 155.89 156.43 155.904C156.751 155.914 157.274 156.117 157.307 155.883C157.366 155.919 157.43 155.949 157.499 155.97C157.575 156.011 157.649 156.058 157.72 156.11C158.107 156.376 158.694 156.343 159.086 156.11C159.121 156.089 159.159 156.065 159.197 156.042C159.489 155.869 159.694 155.617 159.808 155.333C161.432 157.291 164.308 155.091 162.646 153.02C161.753 151.906 152.87 124.595 156.547 103.79L171.29 101.842C173.986 101.57 179.001 101.027 179.001 101.027C179.001 101.027 180.229 97.0287 180.581 95.7417C180.607 95.6469 180.633 95.5497 180.661 95.4549C181.013 96.0737 181.367 96.6897 181.723 97.306L183.542 100.996C183.542 100.996 210.393 100.548 216.976 100.591C217.088 100.591 217.617 108.578 217.377 112.095C216.893 119.158 216.378 126.216 215.66 133.26C215.203 137.771 214.099 142.194 212.455 146.351C209.859 152.918 202.321 159.16 194.97 159.16C190.395 159.16 180.056 155.461 178.55 154.715C177.045 153.968 176.147 156.006 177.519 156.821C180.299 158.473 187.961 161.976 194.97 161.976C205.15 161.976 212.834 152.337 213.777 150.955C223.046 150.448 232.527 150.683 241.784 151.6C242.561 151.676 243.23 150.742 242.981 150.029C239.656 140.532 237.127 130.736 235.526 120.803Z" fill="black"/>
<path fill-rule="evenodd" clip-rule="evenodd" d="M183.91 137.771C186.818 134.399 191.716 134.164 195.774 135.007C198.378 135.548 200.913 136.45 203.558 136.784C204.793 136.94 206.041 136.987 207.285 136.964C208.508 136.942 209.732 136.696 210.949 136.742C211.137 136.748 211.207 136.994 211.045 137.093C209.374 138.118 207.124 138.446 205.15 138.646C205.156 138.792 205.165 138.934 205.185 139.055C205.239 139.377 205.288 139.696 205.328 140.02C205.418 140.75 205.518 141.478 205.618 142.207C205.815 143.641 205.877 145.121 206.223 146.53L206.284 146.764C206.364 147.061 206.382 147.328 206.356 147.569L206.436 147.532L206.689 147.41L206.856 147.332C207.462 147.051 208.041 146.847 208.754 146.915C209.297 146.966 209.753 147.336 209.756 147.914C209.77 150.511 206.263 151.346 204.258 151.843L203.67 151.987C201.117 152.609 198.51 153.154 195.885 153.284C191.671 153.493 186.936 152.333 184.18 148.922C181.608 145.74 181.137 140.987 183.91 137.771ZM203.044 148.68C202.602 144.771 197.789 144.556 196.404 147.035C195.789 143.58 186.699 146.737 187.41 147.424C190.104 150.027 194.193 150.262 197.707 149.78C199.497 149.535 201.289 149.135 203.044 148.68ZM197.703 138.435L196.492 138.261L196.016 138.195C193.016 137.794 189.642 137.587 187.175 139.507C186.275 140.207 185.768 141.121 185.579 142.103C187.912 141.758 190.255 141.494 192.604 141.275L193.245 141.216C194.715 141.084 196.185 140.945 197.653 140.798L198.697 140.693L199.741 140.585C200.108 140.546 202.582 140.42 203.047 140.505C203.097 140.088 203.162 139.185 203.267 138.779C201.509 138.839 199.759 138.708 198.011 138.477L197.703 138.435ZM203.273 120.962C205.067 122.05 207.799 124.587 205.87 127.284C203.599 129.662 200.329 126.935 198.718 125.702C197.224 124.746 195.546 127.204 196.932 128.32C208.574 136.922 213.299 121.246 204.18 119.683C203.176 119.511 202.803 120.625 203.273 120.962ZM206.482 125.545L206.569 125.498L206.598 125.481C206.648 125.448 206.616 125.452 206.501 125.491L206.416 125.522V125.583C206.438 125.569 206.461 125.559 206.482 125.545ZM183.515 115.88L183.514 115.826C183.518 114.315 184.4 110.864 186.58 110.864C187.942 110.864 188.769 113.213 188.912 115.634L188.917 115.732C188.98 117.237 188.566 120.527 186.58 120.527C184.572 120.527 183.535 117.411 183.515 115.88ZM215.613 115.406V115.352C215.61 113.841 214.728 110.39 212.547 110.39C211.219 110.39 210.4 112.623 210.227 114.978L210.215 115.16C210.129 116.614 210.516 120.053 212.547 120.053C214.555 120.053 215.592 116.937 215.613 115.406ZM184.758 100.56C186.538 100.29 188.894 100.803 189.723 102.608C190.093 103.412 189.655 104.302 188.724 104.347C186.472 104.454 184.453 103.954 182.476 105.415C181.626 106.044 180.911 106.915 180.31 107.784L180.083 108.114L179.895 108.386C179.488 108.984 179.102 109.634 179.162 110.355C179.18 110.569 178.961 110.771 178.754 110.763C177.458 110.71 177.319 109.089 177.489 108.116C177.806 106.309 178.682 104.613 179.896 103.248C181.172 101.813 182.855 100.849 184.758 100.56ZM209.265 102.752C210.492 101.965 212.061 101.663 213.498 101.778C216.332 102.006 221.087 104.41 220.461 107.865C220.268 108.93 218.783 109.492 217.908 108.901C216.967 108.266 216.739 107.278 216.038 106.448C215.48 105.784 214.772 105.304 214.014 104.896C213.267 104.492 212.402 104.248 211.554 104.159L211.413 104.145C210.903 104.102 208.325 104.114 208.704 105.074C208.778 105.262 208.498 105.411 208.369 105.268C207.579 104.396 208.474 103.26 209.265 102.752Z" fill="black"/>
</svg>
